  0
SECTION
  2
HEADER
  9
$ACADVER
  1
AC1018
  9
$ACADMAINTVER
 70
     0
  9
$DWGCODEPAGE
  3
ANSI_932
  9
$INSBASE
 10
0.0
 20
0.0
 30
0.0
  9
$EXTMIN
 10
1.000000000000000E+20
 20
1.000000000000000E+20
 30
1.000000000000000E+20
  9
$EXTMAX
 10
-1.000000000000000E+20
 20
-1.000000000000000E+20
 30
-1.000000000000000E+20
  9
$LIMMIN
 10
0.0
 20
0.0
  9
$LIMMAX
 10
12.0
 20
9.0
  9
$ORTHOMODE
 70
     0
  9
$REGENMODE
 70
     1
  9
$FILLMODE
 70
     1
  9
$QTEXTMODE
 70
     0
  9
$MIRRTEXT
 70
     1
  9
$LTSCALE
 40
1.0
  9
$ATTMODE
 70
     1
  9
$TEXTSIZE
 40
0.2
  9
$TRACEWID
 40
0.05
  9
$TEXTSTYLE
  7
Standard
  9
$CLAYER
  8
0
  9
$CELTYPE
  6
ByLayer
  9
$CECOLOR
 62
   256
  9
$CELTSCALE
 40
1.0
  9
$DISPSILH
 70
     0
  9
$DIMSCALE
 40
1.0
  9
$DIMASZ
 40
0.18
  9
$DIMEXO
 40
0.0625
  9
$DIMDLI
 40
0.38
  9
$DIMRND
 40
0.0
  9
$DIMDLE
 40
0.0
  9
$DIMEXE
 40
0.18
  9
$DIMTP
 40
0.0
  9
$DIMTM
 40
0.0
  9
$DIMTXT
 40
0.18
  9
$DIMCEN
 40
0.09
  9
$DIMTSZ
 40
0.0
  9
$DIMTOL
 70
     0
  9
$DIMLIM
 70
     0
  9
$DIMTIH
 70
     1
  9
$DIMTOH
 70
     1
  9
$DIMSE1
 70
     0
  9
$DIMSE2
 70
     0
  9
$DIMTAD
 70
     0
  9
$DIMZIN
 70
     0
  9
$DIMBLK
  1

  9
$DIMASO
 70
     1
  9
$DIMSHO
 70
     1
  9
$DIMPOST
  1

  9
$DIMAPOST
  1

  9
$DIMALT
 70
     0
  9
$DIMALTD
 70
     2
  9
$DIMALTF
 40
25.4
  9
$DIMLFAC
 40
1.0
  9
$DIMTOFL
 70
     0
  9
$DIMTVP
 40
0.0
  9
$DIMTIX
 70
     0
  9
$DIMSOXD
 70
     0
  9
$DIMSAH
 70
     0
  9
$DIMBLK1
  1

  9
$DIMBLK2
  1

  9
$DIMSTYLE
  2
Standard
  9
$DIMCLRD
 70
     0
  9
$DIMCLRE
 70
     0
  9
$DIMCLRT
 70
     0
  9
$DIMTFAC
 40
1.0
  9
$DIMGAP
 40
0.09
  9
$DIMJUST
 70
     0
  9
$DIMSD1
 70
     0
  9
$DIMSD2
 70
     0
  9
$DIMTOLJ
 70
     1
  9
$DIMTZIN
 70
     0
  9
$DIMALTZ
 70
     0
  9
$DIMALTTZ
 70
     0
  9
$DIMUPT
 70
     0
  9
$DIMDEC
 70
     4
  9
$DIMTDEC
 70
     4
  9
$DIMALTU
 70
     2
  9
$DIMALTTD
 70
     2
  9
$DIMTXSTY
  7
Standard
  9
$DIMAUNIT
 70
     0
  9
$DIMADEC
 70
     0
  9
$DIMALTRND
 40
0.0
  9
$DIMAZIN
 70
     0
  9
$DIMDSEP
 70
    46
  9
$DIMATFIT
 70
     3
  9
$DIMFRAC
 70
     0
  9
$DIMLDRBLK
  1

  9
$DIMLUNIT
 70
     2
  9
$DIMLWD
 70
    -2
  9
$DIMLWE
 70
    -2
  9
$DIMTMOVE
 70
     0
  9
$LUNITS
 70
     2
  9
$LUPREC
 70
     4
  9
$SKETCHINC
 40
0.1
  9
$FILLETRAD
 40
0.5
  9
$AUNITS
 70
     0
  9
$AUPREC
 70
     0
  9
$MENU
  1
.
  9
$ELEVATION
 40
0.0
  9
$PELEVATION
 40
0.0
  9
$THICKNESS
 40
0.0
  9
$LIMCHECK
 70
     0
  9
$CHAMFERA
 40
0.5
  9
$CHAMFERB
 40
0.5
  9
$CHAMFERC
 40
1.0
  9
$CHAMFERD
 40
0.0
  9
$SKPOLY
 70
     0
  9
$TDCREATE
 40
2457388.99818287
  9
$TDUCREATE
 40
2457388.956516204
  9
$TDUPDATE
 40
2457388.998182882
  9
$TDUUPDATE
 40
2457388.956516215
  9
$TDINDWG
 40
0.0000000116
  9
$TDUSRTIMER
 40
0.0000000116
  9
$USRTIMER
 70
     1
  9
$ANGBASE
 50
0.0
  9
$ANGDIR
 70
     0
  9
$PDMODE
 70
     0
  9
$PDSIZE
 40
0.0
  9
$PLINEWID
 40
0.0
  9
$SPLFRAME
 70
     0
  9
$SPLINETYPE
 70
     6
  9
$SPLINESEGS
 70
     8
  9
$HANDSEED
  5
BD
  9
$SURFTAB1
 70
     6
  9
$SURFTAB2
 70
     6
  9
$SURFTYPE
 70
     6
  9
$SURFU
 70
     6
  9
$SURFV
 70
     6
  9
$UCSBASE
  2

  9
$UCSNAME
  2

  9
$UCSORG
 10
0.0
 20
0.0
 30
0.0
  9
$UCSXDIR
 10
1.0
 20
0.0
 30
0.0
  9
$UCSYDIR
 10
0.0
 20
1.0
 30
0.0
  9
$UCSORTHOREF
  2

  9
$UCSORTHOVIEW
 70
     0
  9
$UCSORGTOP
 10
0.0
 20
0.0
 30
0.0
  9
$UCSORGBOTTOM
 10
0.0
 20
0.0
 30
0.0
  9
$UCSORGLEFT
 10
0.0
 20
0.0
 30
0.0
  9
$UCSORGRIGHT
 10
0.0
 20
0.0
 30
0.0
  9
$UCSORGFRONT
 10
0.0
 20
0.0
 30
0.0
  9
$UCSORGBACK
 10
0.0
 20
0.0
 30
0.0
  9
$PUCSBASE
  2

  9
$PUCSNAME
  2

  9
$PUCSORG
 10
0.0
 20
0.0
 30
0.0
  9
$PUCSXDIR
 10
1.0
 20
0.0
 30
0.0
  9
$PUCSYDIR
 10
0.0
 20
1.0
 30
0.0
  9
$PUCSORTHOREF
  2

  9
$PUCSORTHOVIEW
 70
     0
  9
$PUCSORGTOP
 10
0.0
 20
0.0
 30
0.0
  9
$PUCSORGBOTTOM
 10
0.0
 20
0.0
 30
0.0
  9
$PUCSORGLEFT
 10
0.0
 20
0.0
 30
0.0
  9
$PUCSORGRIGHT
 10
0.0
 20
0.0
 30
0.0
  9
$PUCSORGFRONT
 10
0.0
 20
0.0
 30
0.0
  9
$PUCSORGBACK
 10
0.0
 20
0.0
 30
0.0
  9
$USERI1
 70
     0
  9
$USERI2
 70
     0
  9
$USERI3
 70
     0
  9
$USERI4
 70
     0
  9
$USERI5
 70
     0
  9
$USERR1
 40
0.0
  9
$USERR2
 40
0.0
  9
$USERR3
 40
0.0
  9
$USERR4
 40
0.0
  9
$USERR5
 40
0.0
  9
$WORLDVIEW
 70
     1
  9
$SHADEDGE
 70
     3
  9
$SHADEDIF
 70
    70
  9
$TILEMODE
 70
     1
  9
$MAXACTVP
 70
    64
  9
$PINSBASE
 10
0.0
 20
0.0
 30
0.0
  9
$PLIMCHECK
 70
     0
  9
$PEXTMIN
 10
1.000000000000000E+20
 20
1.000000000000000E+20
 30
1.000000000000000E+20
  9
$PEXTMAX
 10
-1.000000000000000E+20
 20
-1.000000000000000E+20
 30
-1.000000000000000E+20
  9
$PLIMMIN
 10
0.0
 20
0.0
  9
$PLIMMAX
 10
12.0
 20
9.0
  9
$UNITMODE
 70
     0
  9
$VISRETAIN
 70
     1
  9
$PLINEGEN
 70
     0
  9
$PSLTSCALE
 70
     1
  9
$TREEDEPTH
 70
  3020
  9
$CMLSTYLE
  2
Standard
  9
$CMLJUST
 70
     0
  9
$CMLSCALE
 40
1.0
  9
$PROXYGRAPHICS
 70
     1
  9
$MEASUREMENT
 70
     0
  9
$CELWEIGHT
370
    -1
  9
$ENDCAPS
280
     0
  9
$JOINSTYLE
280
     0
  9
$LWDISPLAY
290
     1
  9
$INSUNITS
 70
     1
  9
$HYPERLINKBASE
  1

  9
$STYLESHEET
  1

  9
$XEDIT
290
     1
  9
$CEPSNTYPE
380
     0
  9
$PSTYLEMODE
290
     1
  9
$FINGERPRINTGUID
  2
{A47F8388-D5B8-7067-5121-54FB988C1E94}
  9
$VERSIONGUID
  2
{FAEB1C32-E019-11D5-929B-00C0DF256EC4}
  9
$EXTNAMES
290
     1
  9
$PSVPSCALE
 40
0.0
  9
$OLESTARTUP
290
     0
  9
$SORTENTS
280
   127
  9
$INDEXCTL
280
     0
  9
$HIDETEXT
280
     1
  9
$XCLIPFRAME
290
     0
  9
$HALOGAP
280
     0
  9
$OBSCOLOR
 70
   257
  9
$OBSLTYPE
280
     0
  9
$INTERSECTIONDISPLAY
280
     0
  9
$INTERSECTIONCOLOR
 70
   257
  9
$DIMASSOC
280
     2
  9
$PROJECTNAME
  1

  0
ENDSEC
  0
SECTION
  2
CLASSES
  0
CLASS
  1
ACDBDICTIONARYWDFLT
  2
AcDbDictionaryWithDefault
  3
ObjectDBX Classes
 90
        0
 91
        3
280
     0
281
     0
  0
CLASS
  1
VISUALSTYLE
  2
AcDbVisualStyle
  3
ObjectDBX Classes
 90
     4095
 91
        3
280
     0
281
     0
  0
ENDSEC
  0
SECTION
  2
TABLES
  0
TABLE
  2
VPORT
  5
8
330
0
100
AcDbSymbolTable
 70
     1
  0
VPORT
  5
29
330
8
100
AcDbSymbolTableRecord
100
AcDbViewportTableRecord
  2
*Active
 70
     0
 10
0.0
 20
0.0
 11
1.0
 21
1.0
 12
0.0
 22
0.0
 13
0.0
 23
0.0
 14
0.5
 24
0.5
 15
0.5
 25
0.5
 16
0.0
 26
0.0
 36
1.0
 17
400.0832450714202
 27
-227.5596672336917
 37
0.0
 40
188.8951022205714
 41
1.604210457202835
 42
50.0
 43
0.0
 44
0.0
 50
0.0
 51
0.0
 71
     0
 72
   100
 73
     1
 74
     3
 75
     0
 76
     0
 77
     0
 78
     0
281
     0
 65
     1
110
0.0
120
0.0
130
0.0
111
1.0
121
0.0
131
0.0
112
0.0
122
1.0
132
0.0
 79
     0
146
0.0
  0
ENDTAB
  0
TABLE
  2
LTYPE
  5
5
330
0
100
AcDbSymbolTable
 70
     1
  0
LTYPE
  5
14
330
5
100
AcDbSymbolTableRecord
100
AcDbLinetypeTableRecord
  2
ByBlock
 70
     0
  3

 72
    65
 73
     0
 40
0.0
  0
LTYPE
  5
15
330
5
100
AcDbSymbolTableRecord
100
AcDbLinetypeTableRecord
  2
ByLayer
 70
     0
  3

 72
    65
 73
     0
 40
0.0
  0
LTYPE
  5
16
330
5
100
AcDbSymbolTableRecord
100
AcDbLinetypeTableRecord
  2
Continuous
 70
     0
  3
Solid line
 72
    65
 73
     0
 40
0.0
  0
ENDTAB
  0
TABLE
  2
LAYER
  5
2
330
0
100
AcDbSymbolTable
 70
     2
  0
LAYER
  5
10
330
2
100
AcDbSymbolTableRecord
100
AcDbLayerTableRecord
  2
0
 70
     0
 62
     7
  6
Continuous
370
    -3
390
F
  0
LAYER
  5
3B
330
2
100
AcDbSymbolTableRecord
100
AcDbLayerTableRecord
  2
Ebene 3
 70
     0
 62
     7
  6
Continuous
370
    -3
390
F
  0
ENDTAB
  0
TABLE
  2
STYLE
  5
3
330
0
100
AcDbSymbolTable
 70
     1
  0
STYLE
  5
11
330
3
100
AcDbSymbolTableRecord
100
AcDbTextStyleTableRecord
  2
Standard
 70
     0
 40
0.0
 41
1.0
 50
0.0
 71
     0
 42
0.2
  3
txt
  4

  0
ENDTAB
  0
TABLE
  2
VIEW
  5
6
330
0
100
AcDbSymbolTable
 70
     0
  0
ENDTAB
  0
TABLE
  2
UCS
  5
7
330
0
100
AcDbSymbolTable
 70
     0
  0
ENDTAB
  0
TABLE
  2
APPID
  5
9
330
0
100
AcDbSymbolTable
 70
     1
  0
APPID
  5
12
330
9
100
AcDbSymbolTableRecord
100
AcDbRegAppTableRecord
  2
ACAD
 70
     0
  0
ENDTAB
  0
TABLE
  2
DIMSTYLE
  5
A
330
0
100
AcDbSymbolTable
 70
     1
100
AcDbDimStyleTable
  0
DIMSTYLE
105
27
330
A
100
AcDbSymbolTableRecord
100
AcDbDimStyleTableRecord
  2
Standard
 70
     0
340
11
  0
ENDTAB
  0
TABLE
  2
BLOCK_RECORD
  5
1
330
0
100
AcDbSymbolTable
 70
     1
  0
BLOCK_RECORD
  5
1F
330
1
100
AcDbSymbolTableRecord
100
AcDbBlockTableRecord
  2
*Model_Space
340
22
  0
BLOCK_RECORD
  5
1B
330
1
100
AcDbSymbolTableRecord
100
AcDbBlockTableRecord
  2
*Paper_Space
340
1E
  0
BLOCK_RECORD
  5
23
330
1
100
AcDbSymbolTableRecord
100
AcDbBlockTableRecord
  2
*Paper_Space0
340
26
  0
ENDTAB
  0
ENDSEC
  0
SECTION
  2
BLOCKS
  0
BLOCK
  5
20
330
1F
100
AcDbEntity
  8
0
100
AcDbBlockBegin
  2
*Model_Space
 70
     0
 71
     0
 10
0.0
 20
0.0
 30
0.0
  3
*Model_Space
  1

  0
ENDBLK
  5
21
330
1F
100
AcDbEntity
  8
0
100
AcDbBlockEnd
  0
BLOCK
  5
1C
330
1B
100
AcDbEntity
 67
     1
  8
0
100
AcDbBlockBegin
  2
*Paper_Space
 70
     0
 71
     0
 10
0.0
 20
0.0
 30
0.0
  3
*Paper_Space
  1

  0
ENDBLK
  5
1D
330
1B
100
AcDbEntity
 67
     1
  8
0
100
AcDbBlockEnd
  0
BLOCK
  5
24
330
23
100
AcDbEntity
  8
0
100
AcDbBlockBegin
  2
*Paper_Space0
 70
     0
 71
     0
 10
0.0
 20
0.0
 30
0.0
  3
*Paper_Space0
  1

  0
ENDBLK
  5
25
330
23
100
AcDbEntity
  8
0
100
AcDbBlockEnd
  0
ENDSEC
  0
SECTION
  2
ENTITIES
  0
POLYLINE
  5
3C
330
1F
100
AcDbEntity
  8
Ebene 3
370
     0
100
AcDb2dPolyline
 66
     1
 10
0.0
 20
0.0
 30
0.0
  0
VERTEX
  5
3D
330
3C
100
AcDbEntity
  8
Ebene 3
370
     0
100
AcDbVertex
100
AcDb2dVertex
 10
344.9339842887665
 20
-283.0307860620548
 30
0.0
  0
VERTEX
  5
3E
330
3C
100
AcDbEntity
  8
Ebene 3
370
     0
100
AcDbVertex
100
AcDb2dVertex
 10
309.9338812159193
 20
-283.0307860620548
 30
0.0
  0
VERTEX
  5
3F
330
3C
100
AcDbEntity
  8
Ebene 3
370
     0
100
AcDbVertex
100
AcDb2dVertex
 10
309.9338812159193
 20
-278.930777925059
 30
0.0
  0
VERTEX
  5
40
330
3C
100
AcDbEntity
  8
Ebene 3
370
     0
100
AcDbVertex
100
AcDb2dVertex
 10
344.9339842887665
 20
-278.930777925059
 30
0.0
  0
VERTEX
  5
41
330
3C
100
AcDbEntity
  8
Ebene 3
370
     0
100
AcDbVertex
100
AcDb2dVertex
 10
344.9339842887665
 20
-283.0307860620548
 30
0.0
  0
SEQEND
  5
42
330
3C
100
AcDbEntity
  8
Ebene 3
370
     0
  0
POLYLINE
  5
43
330
1F
100
AcDbEntity
  8
Ebene 3
370
     0
100
AcDb2dPolyline
 66
     1
 10
0.0
 20
0.0
 30
0.0
  0
VERTEX
  5
44
330
43
100
AcDbEntity
  8
Ebene 3
370
     0
100
AcDbVertex
100
AcDb2dVertex
 10
344.9319172314754
 20
-216.0057643774222
 30
0.0
  0
VERTEX
  5
45
330
43
100
AcDbEntity
  8
Ebene 3
370
     0
100
AcDbVertex
100
AcDb2dVertex
 10
309.9318141586282
 20
-216.0057643774222
 30
0.0
  0
VERTEX
  5
46
330
43
100
AcDbEntity
  8
Ebene 3
370
     0
100
AcDbVertex
100
AcDb2dVertex
 10
309.9318141586282
 20
-211.9061007499749
 30
0.0
  0
VERTEX
  5
47
330
43
100
AcDbEntity
  8
Ebene 3
370
     0
100
AcDbVertex
100
AcDb2dVertex
 10
344.9319172314754
 20
-211.9061007499749
 30
0.0
  0
VERTEX
  5
48
330
43
100
AcDbEntity
  8
Ebene 3
370
     0
100
AcDbVertex
100
AcDb2dVertex
 10
344.9319172314754
 20
-216.0057643774222
 30
0.0
  0
SEQEND
  5
49
330
43
100
AcDbEntity
  8
Ebene 3
370
     0
  0
POLYLINE
  5
4A
330
1F
100
AcDbEntity
  8
Ebene 3
370
     0
100
AcDb2dPolyline
 66
     1
 10
0.0
 20
0.0
 30
0.0
  0
VERTEX
  5
4B
330
4A
100
AcDbEntity
  8
Ebene 3
370
     0
100
AcDbVertex
100
AcDb2dVertex
 10
294.5784016190638
 20
-220.1639946281187
 30
0.0
  0
VERTEX
  5
4C
330
4A
100
AcDbEntity
  8
Ebene 3
370
     0
100
AcDbVertex
100
AcDb2dVertex
 10
294.5784016190638
 20
-239.8637396318744
 30
0.0
  0
VERTEX
  5
4D
330
4A
100
AcDbEntity
  8
Ebene 3
370
     0
100
AcDbVertex
100
AcDb2dVertex
 10
298.678065246511
 20
-239.8637396318744
 30
0.0
  0
VERTEX
  5
4E
330
4A
100
AcDbEntity
  8
Ebene 3
370
     0
100
AcDbVertex
100
AcDb2dVertex
 10
298.678065246511
 20
-220.1639946281187
 30
0.0
  0
VERTEX
  5
4F
330
4A
100
AcDbEntity
  8
Ebene 3
370
     0
100
AcDbVertex
100
AcDb2dVertex
 10
294.5784016190638
 20
-220.1639946281187
 30
0.0
  0
SEQEND
  5
50
330
4A
100
AcDbEntity
  8
Ebene 3
370
     0
  0
POLYLINE
  5
51
330
1F
100
AcDbEntity
  8
Ebene 3
370
     0
100
AcDb2dPolyline
 66
     1
 10
0.0
 20
0.0
 30
0.0
  0
VERTEX
  5
52
330
51
100
AcDbEntity
  8
Ebene 3
370
     0
100
AcDbVertex
100
AcDb2dVertex
 10
443.1329860003279
 20
-302.9765108834573
 30
0.0
  0
VERTEX
  5
53
330
51
100
AcDbEntity
  8
Ebene 3
370
     0
100
AcDbVertex
100
AcDb2dVertex
 10
443.1329860003279
 20
-303.2641763564756
 30
0.0
  0
SEQEND
  5
54
330
51
100
AcDbEntity
  8
Ebene 3
370
     0
  0
SPLINE
  5
55
330
1F
100
AcDbEntity
  8
Ebene 3
370
     0
100
AcDbSpline
210
0.0
220
0.0
230
1.0
 70
    11
 71
     3
 72
    29
 73
    25
 74
     0
 42
0.0000000001
 43
0.0000000001
 40
0.0
 40
0.0
 40
0.0
 40
0.0
 40
1.0
 40
1.0
 40
1.0
 40
2.0
 40
2.0
 40
2.0
 40
3.0
 40
3.0
 40
3.0
 40
4.0
 40
4.0
 40
4.0
 40
5.0
 40
5.0
 40
5.0
 40
6.0
 40
6.0
 40
6.0
 40
7.0
 40
7.0
 40
7.0
 40
8.0
 40
8.0
 40
8.0
 40
8.0
 10
456.3952255803457
 20
-321.2689343814884
 30
0.0
 10
456.3952255803457
 20
-321.2689343814884
 30
0.0
 10
456.9905380801968
 20
-321.2896049543999
 30
0.0
 10
457.2661457190168
 20
-320.4993000500835
 30
0.0
 10
457.3829344559668
 20
-320.1654702975628
 30
0.0
 10
457.3829344559668
 20
-287.8721787474764
 30
0.0
 10
457.2661457190168
 20
-287.5383489949557
 30
0.0
 10
456.9905380801968
 20
-286.7480440906394
 30
0.0
 10
456.3952255803457
 20
-286.7687146635509
 30
0.0
 10
456.3952255803457
 20
-286.7687146635509
 30
0.0
 10
456.3952255803457
 20
-286.7687146635509
 30
0.0
 10
417.3123398479289
 20
-286.7687146635509
 30
0.0
 10
417.3123398479289
 20
-286.7687146635509
 30
0.0
 10
417.3123398479289
 20
-286.7687146635509
 30
0.0
 10
416.7170273480777
 20
-286.7480440906394
 30
0.0
 10
416.4414197092577
 20
-287.5383489949557
 30
0.0
 10
416.3246309723078
 20
-287.8721787474764
 30
0.0
 10
416.3246309723078
 20
-320.1654702975628
 30
0.0
 10
416.4414197092577
 20
-320.4993000500835
 30
0.0
 10
416.7170273480777
 20
-321.2896049543999
 30
0.0
 10
417.3123398479289
 20
-321.2689343814884
 30
0.0
 10
417.3123398479289
 20
-321.2689343814884
 30
0.0
 10
417.3123398479289
 20
-321.2689343814884
 30
0.0
 10
456.3952255803457
 20
-321.2689343814884
 30
0.0
 10
456.3952255803457
 20
-321.2689343814884
 30
0.0
  0
POLYLINE
  5
56
330
1F
100
AcDbEntity
  8
Ebene 3
370
     0
100
AcDb2dPolyline
 66
     1
 10
0.0
 20
0.0
 30
0.0
  0
VERTEX
  5
57
330
56
100
AcDbEntity
  8
Ebene 3
370
     0
100
AcDbVertex
100
AcDb2dVertex
 10
486.3038220355421
 20
-302.9765108834573
 30
0.0
  0
VERTEX
  5
58
330
56
100
AcDbEntity
  8
Ebene 3
370
     0
100
AcDbVertex
100
AcDb2dVertex
 10
486.3038220355421
 20
-303.2641763564756
 30
0.0
  0
SEQEND
  5
59
330
56
100
AcDbEntity
  8
Ebene 3
370
     0
  0
SPLINE
  5
5A
330
1F
100
AcDbEntity
  8
Ebene 3
370
     0
100
AcDbSpline
210
0.0
220
0.0
230
1.0
 70
    11
 71
     3
 72
    29
 73
    25
 74
     0
 42
0.0000000001
 43
0.0000000001
 40
0.0
 40
0.0
 40
0.0
 40
0.0
 40
1.0
 40
1.0
 40
1.0
 40
2.0
 40
2.0
 40
2.0
 40
3.0
 40
3.0
 40
3.0
 40
4.0
 40
4.0
 40
4.0
 40
5.0
 40
5.0
 40
5.0
 40
6.0
 40
6.0
 40
6.0
 40
7.0
 40
7.0
 40
7.0
 40
8.0
 40
8.0
 40
8.0
 40
8.0
 10
499.5660616155599
 20
-321.2689343814884
 30
0.0
 10
499.5660616155599
 20
-321.2689343814884
 30
0.0
 10
500.1613741154111
 20
-321.2896049543999
 30
0.0
 10
500.4369817542311
 20
-320.4993000500835
 30
0.0
 10
500.553770491181
 20
-320.1654702975628
 30
0.0
 10
500.553770491181
 20
-287.8721787474764
 30
0.0
 10
500.4369817542311
 20
-287.5383489949557
 30
0.0
 10
500.1613741154111
 20
-286.7480440906394
 30
0.0
 10
499.5660616155599
 20
-286.7687146635509
 30
0.0
 10
499.5660616155599
 20
-286.7687146635509
 30
0.0
 10
499.5660616155599
 20
-286.7687146635509
 30
0.0
 10
460.4831758831431
 20
-286.7687146635509
 30
0.0
 10
460.4831758831431
 20
-286.7687146635509
 30
0.0
 10
460.4831758831431
 20
-286.7687146635509
 30
0.0
 10
459.887863383292
 20
-286.7480440906394
 30
0.0
 10
459.612255744472
 20
-287.5383489949557
 30
0.0
 10
459.495467007522
 20
-287.8721787474764
 30
0.0
 10
459.495467007522
 20
-320.1654702975628
 30
0.0
 10
459.612255744472
 20
-320.4993000500835
 30
0.0
 10
459.887863383292
 20
-321.2896049543999
 30
0.0
 10
460.4831758831431
 20
-321.2689343814884
 30
0.0
 10
460.4831758831431
 20
-321.2689343814884
 30
0.0
 10
460.4831758831431
 20
-321.2689343814884
 30
0.0
 10
499.5660616155599
 20
-321.2689343814884
 30
0.0
 10
499.5660616155599
 20
-321.2689343814884
 30
0.0
  0
POLYLINE
  5
5B
330
1F
100
AcDbEntity
  8
Ebene 3
370
     0
100
AcDb2dPolyline
 66
     1
 10
0.0
 20
0.0
 30
0.0
  0
VERTEX
  5
5C
330
5B
100
AcDbEntity
  8
Ebene 3
370
     0
100
AcDbVertex
100
AcDb2dVertex
 10
476.3967609486091
 20
-273.7510768629858
 30
0.0
  0
VERTEX
  5
5D
330
5B
100
AcDbEntity
  8
Ebene 3
370
     0
100
AcDbVertex
100
AcDb2dVertex
 10
441.3966578757619
 20
-273.7510768629858
 30
0.0
  0
VERTEX
  5
5E
330
5B
100
AcDbEntity
  8
Ebene 3
370
     0
100
AcDbVertex
100
AcDb2dVertex
 10
441.3966578757619
 20
-269.65106872599
 30
0.0
  0
VERTEX
  5
5F
330
5B
100
AcDbEntity
  8
Ebene 3
370
     0
100
AcDbVertex
100
AcDb2dVertex
 10
476.3967609486091
 20
-269.65106872599
 30
0.0
  0
VERTEX
  5
60
330
5B
100
AcDbEntity
  8
Ebene 3
370
     0
100
AcDbVertex
100
AcDb2dVertex
 10
476.3967609486091
 20
-273.7510768629858
 30
0.0
  0
SEQEND
  5
61
330
5B
100
AcDbEntity
  8
Ebene 3
370
     0
  0
POLYLINE
  5
62
330
1F
100
AcDbEntity
  8
Ebene 3
370
     0
100
AcDb2dPolyline
 66
     1
 10
0.0
 20
0.0
 30
0.0
  0
VERTEX
  5
63
330
62
100
AcDbEntity
  8
Ebene 3
370
     0
100
AcDbVertex
100
AcDb2dVertex
 10
476.4050291777738
 20
-206.722610082868
 30
0.0
  0
VERTEX
  5
64
330
62
100
AcDbEntity
  8
Ebene 3
370
     0
100
AcDbVertex
100
AcDb2dVertex
 10
441.4049261049266
 20
-206.722610082868
 30
0.0
  0
VERTEX
  5
65
330
62
100
AcDbEntity
  8
Ebene 3
370
     0
100
AcDbVertex
100
AcDb2dVertex
 10
441.4049261049266
 20
-202.6226019458721
 30
0.0
  0
VERTEX
  5
66
330
62
100
AcDbEntity
  8
Ebene 3
370
     0
100
AcDbVertex
100
AcDb2dVertex
 10
476.4050291777738
 20
-202.6226019458721
 30
0.0
  0
VERTEX
  5
67
330
62
100
AcDbEntity
  8
Ebene 3
370
     0
100
AcDbVertex
100
AcDb2dVertex
 10
476.4050291777738
 20
-206.722610082868
 30
0.0
  0
SEQEND
  5
68
330
62
100
AcDbEntity
  8
Ebene 3
370
     0
  0
SPLINE
  5
69
330
1F
100
AcDbEntity
  8
Ebene 3
370
     0
100
AcDbSpline
210
0.0
220
0.0
230
1.0
 70
    11
 71
     3
 72
    17
 73
    13
 74
     0
 42
0.0000000001
 43
0.0000000001
 40
0.0
 40
0.0
 40
0.0
 40
0.0
 40
1.0
 40
1.0
 40
1.0
 40
2.0
 40
2.0
 40
2.0
 40
3.0
 40
3.0
 40
3.0
 40
4.0
 40
4.0
 40
4.0
 40
4.0
 10
433.102590495023
 20
-160.9055962054333
 30
0.0
 10
433.102590495023
 20
-171.9512613502414
 30
0.0
 10
424.1484428193101
 20
-180.9054090259542
 30
0.0
 10
413.1024331649536
 20
-180.9054090259542
 30
0.0
 10
402.0567680201456
 20
-180.9054090259542
 30
0.0
 10
393.1026203444327
 20
-171.9512613502414
 30
0.0
 10
393.1026203444327
 20
-160.9055962054333
 30
0.0
 10
393.1026203444327
 20
-149.8595865510768
 30
0.0
 10
402.0567680201456
 20
-140.9054388753639
 30
0.0
 10
413.1024331649536
 20
-140.9054388753639
 30
0.0
 10
424.1484428193101
 20
-140.9054388753639
 30
0.0
 10
433.102590495023
 20
-149.8595865510768
 30
0.0
 10
433.102590495023
 20
-160.9055962054333
 30
0.0
  0
SPLINE
  5
6A
330
1F
100
AcDbEntity
  8
Ebene 3
370
     0
100
AcDbSpline
210
0.0
220
0.0
230
1.0
 70
    11
 71
     3
 72
    17
 73
    13
 74
     0
 42
0.0000000001
 43
0.0000000001
 40
0.0
 40
0.0
 40
0.0
 40
0.0
 40
1.0
 40
1.0
 40
1.0
 40
2.0
 40
2.0
 40
2.0
 40
3.0
 40
3.0
 40
3.0
 40
4.0
 40
4.0
 40
4.0
 40
4.0
 10
414.5528183642438
 20
-160.9055962054333
 30
0.0
 10
414.5528183642438
 20
-161.7062363962054
 30
0.0
 10
413.9037623748227
 20
-162.355636895175
 30
0.0
 10
413.1027776745021
 20
-162.355636895175
 30
0.0
 10
412.3017929741815
 20
-162.355636895175
 30
0.0
 10
411.6527369847605
 20
-161.7062363962054
 30
0.0
 10
411.6527369847605
 20
-160.9055962054333
 30
0.0
 10
411.6527369847605
 20
-160.1042669955642
 30
0.0
 10
412.3017929741815
 20
-159.4555555156917
 30
0.0
 10
413.1027776745021
 20
-159.4555555156917
 30
0.0
 10
413.9037623748227
 20
-159.4555555156917
 30
0.0
 10
414.5528183642438
 20
-160.1042669955642
 30
0.0
 10
414.5528183642438
 20
-160.9055962054333
 30
0.0
  0
SPLINE
  5
6B
330
1F
100
AcDbEntity
  8
Ebene 3
370
     0
100
AcDbSpline
210
0.0
220
0.0
230
1.0
 70
    11
 71
     3
 72
    17
 73
    13
 74
     0
 42
0.0000000001
 43
0.0000000001
 40
0.0
 40
0.0
 40
0.0
 40
0.0
 40
1.0
 40
1.0
 40
1.0
 40
2.0
 40
2.0
 40
2.0
 40
3.0
 40
3.0
 40
3.0
 40
4.0
 40
4.0
 40
4.0
 40
4.0
 10
529.097075605573
 20
-162.2777777372083
 30
0.0
 10
529.097075605573
 20
-173.3234428820164
 30
0.0
 10
520.1429279298601
 20
-182.2775905577292
 30
0.0
 10
509.0969182755036
 20
-182.2775905577292
 30
0.0
 10
498.0512531306956
 20
-182.2775905577292
 30
0.0
 10
489.0971054549827
 20
-173.3234428820164
 30
0.0
 10
489.0971054549827
 20
-162.2777777372083
 30
0.0
 10
489.0971054549827
 20
-151.2317680828518
 30
0.0
 10
498.0512531306956
 20
-142.2776204071389
 30
0.0
 10
509.0969182755036
 20
-142.2776204071389
 30
0.0
 10
520.1429279298601
 20
-142.2776204071389
 30
0.0
 10
529.097075605573
 20
-151.2317680828518
 30
0.0
 10
529.097075605573
 20
-162.2777777372083
 30
0.0
  0
SPLINE
  5
6C
330
1F
100
AcDbEntity
  8
Ebene 3
370
     0
100
AcDbSpline
210
0.0
220
0.0
230
1.0
 70
    11
 71
     3
 72
    17
 73
    13
 74
     0
 42
0.0000000001
 43
0.0000000001
 40
0.0
 40
0.0
 40
0.0
 40
0.0
 40
1.0
 40
1.0
 40
1.0
 40
2.0
 40
2.0
 40
2.0
 40
3.0
 40
3.0
 40
3.0
 40
4.0
 40
4.0
 40
4.0
 40
4.0
 10
510.5473034747938
 20
-162.2777777372083
 30
0.0
 10
510.5473034747938
 20
-163.0784179279804
 30
0.0
 10
509.8982474853727
 20
-163.72781842695
 30
0.0
 10
509.0972627850521
 20
-163.72781842695
 30
0.0
 10
508.2962780847315
 20
-163.72781842695
 30
0.0
 10
507.6472220953104
 20
-163.0784179279804
 30
0.0
 10
507.6472220953104
 20
-162.2777777372083
 30
0.0
 10
507.6472220953104
 20
-161.4764485273392
 30
0.0
 10
508.2962780847315
 20
-160.8277370474667
 30
0.0
 10
509.0972627850521
 20
-160.8277370474667
 30
0.0
 10
509.8982474853727
 20
-160.8277370474667
 30
0.0
 10
510.5473034747938
 20
-161.4764485273392
 30
0.0
 10
510.5473034747938
 20
-162.2777777372083
 30
0.0
  0
SPLINE
  5
6D
330
1F
100
AcDbEntity
  8
Ebene 3
370
     0
100
AcDbSpline
210
0.0
220
0.0
230
1.0
 70
    11
 71
     3
 72
    17
 73
    13
 74
     0
 42
0.0000000001
 43
0.0000000001
 40
0.0
 40
0.0
 40
0.0
 40
0.0
 40
1.0
 40
1.0
 40
1.0
 40
2.0
 40
2.0
 40
2.0
 40
3.0
 40
3.0
 40
3.0
 40
4.0
 40
4.0
 40
4.0
 40
4.0
 10
551.5921710860603
 20
-247.5004827940277
 30
0.0
 10
551.5921710860603
 20
-258.5461479388357
 30
0.0
 10
542.6380234103475
 20
-267.5002956145486
 30
0.0
 10
531.5920137559909
 20
-267.5002956145486
 30
0.0
 10
520.5463486111829
 20
-267.5002956145486
 30
0.0
 10
511.59220093547
 20
-258.5461479388357
 30
0.0
 10
511.59220093547
 20
-247.5004827940277
 30
0.0
 10
511.59220093547
 20
-236.4544731396711
 30
0.0
 10
520.5463486111829
 20
-227.5003254639583
 30
0.0
 10
531.5920137559909
 20
-227.5003254639583
 30
0.0
 10
542.6380234103475
 20
-227.5003254639583
 30
0.0
 10
551.5921710860603
 20
-236.4544731396711
 30
0.0
 10
551.5921710860603
 20
-247.5004827940277
 30
0.0
  0
SPLINE
  5
6E
330
1F
100
AcDbEntity
  8
Ebene 3
370
     0
100
AcDbSpline
210
0.0
220
0.0
230
1.0
 70
    11
 71
     3
 72
    17
 73
    13
 74
     0
 42
0.0000000001
 43
0.0000000001
 40
0.0
 40
0.0
 40
0.0
 40
0.0
 40
1.0
 40
1.0
 40
1.0
 40
2.0
 40
2.0
 40
2.0
 40
3.0
 40
3.0
 40
3.0
 40
4.0
 40
4.0
 40
4.0
 40
4.0
 10
533.0423989552811
 20
-247.5004827940277
 30
0.0
 10
533.0423989552811
 20
-248.3011229847997
 30
0.0
 10
532.39334296586
 20
-248.9505234837693
 30
0.0
 10
531.5923582655395
 20
-248.9505234837693
 30
0.0
 10
530.7913735652188
 20
-248.9505234837693
 30
0.0
 10
530.1423175757977
 20
-248.3011229847997
 30
0.0
 10
530.1423175757977
 20
-247.5004827940277
 30
0.0
 10
530.1423175757977
 20
-246.6991535841586
 30
0.0
 10
530.7913735652188
 20
-246.050442104286
 30
0.0
 10
531.5923582655395
 20
-246.050442104286
 30
0.0
 10
532.39334296586
 20
-246.050442104286
 30
0.0
 10
533.0423989552811
 20
-246.6991535841586
 30
0.0
 10
533.0423989552811
 20
-247.5004827940277
 30
0.0
  0
SPLINE
  5
6F
330
1F
100
AcDbEntity
  8
Ebene 3
370
     0
100
AcDbSpline
210
0.0
220
0.0
230
1.0
 70
    11
 71
     3
 72
    17
 73
    13
 74
     0
 42
0.0000000001
 43
0.0000000001
 40
0.0
 40
0.0
 40
0.0
 40
0.0
 40
1.0
 40
1.0
 40
1.0
 40
2.0
 40
2.0
 40
2.0
 40
3.0
 40
3.0
 40
3.0
 40
4.0
 40
4.0
 40
4.0
 40
4.0
 10
550.9303682433439
 20
-203.8666259255959
 30
0.0
 10
550.9303682433439
 20
-214.9122910704039
 30
0.0
 10
541.976220567631
 20
-223.8664387461167
 30
0.0
 10
530.9302109132744
 20
-223.8664387461167
 30
0.0
 10
519.8845457684664
 20
-223.8664387461167
 30
0.0
 10
510.9303980927535
 20
-214.9122910704039
 30
0.0
 10
510.9303980927535
 20
-203.8666259255959
 30
0.0
 10
510.9303980927535
 20
-192.8206162712393
 30
0.0
 10
519.8845457684664
 20
-183.8664685955264
 30
0.0
 10
530.9302109132744
 20
-183.8664685955264
 30
0.0
 10
541.976220567631
 20
-183.8664685955264
 30
0.0
 10
550.9303682433439
 20
-192.8206162712393
 30
0.0
 10
550.9303682433439
 20
-203.8666259255959
 30
0.0
  0
SPLINE
  5
70
330
1F
100
AcDbEntity
  8
Ebene 3
370
     0
100
AcDbSpline
210
0.0
220
0.0
230
1.0
 70
    11
 71
     3
 72
    17
 73
    13
 74
     0
 42
0.0000000001
 43
0.0000000001
 40
0.0
 40
0.0
 40
0.0
 40
0.0
 40
1.0
 40
1.0
 40
1.0
 40
2.0
 40
2.0
 40
2.0
 40
3.0
 40
3.0
 40
3.0
 40
4.0
 40
4.0
 40
4.0
 40
4.0
 10
532.3805961125646
 20
-203.8666259255959
 30
0.0
 10
532.3805961125646
 20
-204.6672661163679
 30
0.0
 10
531.7315401231435
 20
-205.3166666153375
 30
0.0
 10
530.930555422823
 20
-205.3166666153375
 30
0.0
 10
530.1295707225023
 20
-205.3166666153375
 30
0.0
 10
529.4805147330812
 20
-204.6672661163679
 30
0.0
 10
529.4805147330812
 20
-203.8666259255959
 30
0.0
 10
529.4805147330812
 20
-203.0652967157267
 30
0.0
 10
530.1295707225023
 20
-202.4165852358542
 30
0.0
 10
530.930555422823
 20
-202.4165852358542
 30
0.0
 10
531.7315401231435
 20
-202.4165852358542
 30
0.0
 10
532.3805961125646
 20
-203.0652967157267
 30
0.0
 10
532.3805961125646
 20
-203.8666259255959
 30
0.0
  0
SPLINE
  5
71
330
1F
100
AcDbEntity
  8
Ebene 3
370
     0
100
AcDbSpline
210
0.0
220
0.0
230
1.0
 70
    11
 71
     3
 72
    17
 73
    13
 74
     0
 42
0.0000000001
 43
0.0000000001
 40
0.0
 40
0.0
 40
0.0
 40
0.0
 40
1.0
 40
1.0
 40
1.0
 40
2.0
 40
2.0
 40
2.0
 40
3.0
 40
3.0
 40
3.0
 40
4.0
 40
4.0
 40
4.0
 40
4.0
 10
328.9952500262581
 20
-171.7228515195693
 30
0.0
 10
328.9952500262581
 20
-172.5234917103413
 30
0.0
 10
328.3458495272886
 20
-173.1725476997624
 30
0.0
 10
327.5452093365165
 20
-173.1725476997624
 30
0.0
 10
326.7438801266474
 20
-173.1725476997624
 30
0.0
 10
326.0951686467748
 20
-172.5234917103413
 30
0.0
 10
326.0951686467748
 20
-171.7228515195693
 30
0.0
 10
326.0951686467748
 20
-170.9215223097002
 30
0.0
 10
326.7438801266474
 20
-170.2724663202791
 30
0.0
 10
327.5452093365165
 20
-170.2724663202791
 30
0.0
 10
328.3458495272886
 20
-170.2724663202791
 30
0.0
 10
328.9952500262581
 20
-170.9215223097002
 30
0.0
 10
328.9952500262581
 20
-171.7228515195693
 30
0.0
  0
SPLINE
  5
72
330
1F
100
AcDbEntity
  8
Ebene 3
370
     0
100
AcDbSpline
210
0.0
220
0.0
230
1.0
 70
    11
 71
     3
 72
    29
 73
    25
 74
     0
 42
0.0000000001
 43
0.0000000001
 40
0.0
 40
0.0
 40
0.0
 40
0.0
 40
1.0
 40
1.0
 40
1.0
 40
2.0
 40
2.0
 40
2.0
 40
3.0
 40
3.0
 40
3.0
 40
4.0
 40
4.0
 40
4.0
 40
5.0
 40
5.0
 40
5.0
 40
6.0
 40
6.0
 40
6.0
 40
7.0
 40
7.0
 40
7.0
 40
8.0
 40
8.0
 40
8.0
 40
8.0
 10
511.8612628928681
 20
-288.3524250581202
 30
0.0
 10
516.8108315765265
 20
-288.3524250581202
 30
0.0
 10
520.913940299459
 20
-280.255072629589
 30
0.0
 10
521.6794405162816
 20
-276.1206135377407
 30
0.0
 10
521.6794405162816
 20
-276.1206135377407
 30
0.0
 10
513.4063882180026
 20
-276.1206135377407
 30
0.0
 10
513.4063882180026
 20
-276.1206135377407
 30
0.0
 10
513.4063882180026
 20
-276.1206135377407
 30
0.0
 10
513.3605684480488
 20
-282.3837971299249
 30
0.0
 10
513.3605684480488
 20
-282.4754366698326
 30
0.0
 10
513.3605684480488
 20
-283.3005370385499
 30
0.0
 10
512.6904973761676
 20
-283.9743977154648
 30
0.0
 10
511.8612628928681
 20
-283.9743977154648
 30
0.0
 10
511.0323729191169
 20
-283.9743977154648
 30
0.0
 10
510.3619573376873
 20
-283.3005370385499
 30
0.0
 10
510.3619573376873
 20
-282.4754366698326
 30
0.0
 10
510.3619573376873
 20
-282.4154920083892
 30
0.0
 10
510.302012676244
 20
-276.1206135377407
 30
0.0
 10
510.302012676244
 20
-276.1206135377407
 30
0.0
 10
510.302012676244
 20
-276.1206135377407
 30
0.0
 10
502.0434297790031
 20
-276.1206135377407
 30
0.0
 10
502.0434297790031
 20
-276.1206135377407
 30
0.0
 10
502.8089299958256
 20
-280.255072629589
 30
0.0
 10
506.9120387187581
 20
-288.3524250581202
 30
0.0
 10
511.8612628928681
 20
-288.3524250581202
 30
0.0
  0
SPLINE
  5
73
330
1F
100
AcDbEntity
  8
Ebene 3
370
     0
100
AcDbSpline
210
0.0
220
0.0
230
1.0
 70
    11
 71
     3
 72
    29
 73
    25
 74
     0
 42
0.0000000001
 43
0.0000000001
 40
0.0
 40
0.0
 40
0.0
 40
0.0
 40
1.0
 40
1.0
 40
1.0
 40
2.0
 40
2.0
 40
2.0
 40
3.0
 40
3.0
 40
3.0
 40
4.0
 40
4.0
 40
4.0
 40
5.0
 40
5.0
 40
5.0
 40
6.0
 40
6.0
 40
6.0
 40
7.0
 40
7.0
 40
7.0
 40
8.0
 40
8.0
 40
8.0
 40
8.0
 10
502.2108614195862
 20
-275.166666597875
 30
0.0
 10
502.2108614195862
 20
-275.166666597875
 30
0.0
 10
510.4694443168271
 20
-275.166666597875
 30
0.0
 10
510.4694443168271
 20
-275.166666597875
 30
0.0
 10
510.4694443168271
 20
-275.166666597875
 30
0.0
 10
510.5293889782704
 20
-268.8717881272265
 30
0.0
 10
510.5293889782704
 20
-268.8118434657832
 30
0.0
 10
510.5293889782704
 20
-267.9863985875173
 30
0.0
 10
511.1998045597001
 20
-267.3125379106024
 30
0.0
 10
512.0286945334511
 20
-267.3125379106024
 30
0.0
 10
512.8579290167509
 20
-267.3125379106024
 30
0.0
 10
513.5280000886319
 20
-267.9863985875173
 30
0.0
 10
513.5280000886319
 20
-268.8118434657832
 30
0.0
 10
513.5280000886319
 20
-268.9034830056908
 30
0.0
 10
513.5738198585857
 20
-275.166666597875
 30
0.0
 10
513.5738198585857
 20
-275.166666597875
 30
0.0
 10
513.5738198585857
 20
-275.166666597875
 30
0.0
 10
521.8475611759618
 20
-275.166666597875
 30
0.0
 10
521.8475611759618
 20
-275.166666597875
 30
0.0
 10
521.0820609591392
 20
-271.0322075060267
 30
0.0
 10
516.9789522362066
 20
-262.9345105679469
 30
0.0
 10
512.0286945334511
 20
-262.9345105679469
 30
0.0
 10
507.0794703593413
 20
-262.9345105679469
 30
0.0
 10
502.9763616364087
 20
-271.0322075060267
 30
0.0
 10
502.2108614195862
 20
-275.166666597875
 30
0.0
  0
SPLINE
  5
74
330
1F
100
AcDbEntity
  8
Ebene 3
370
     0
100
AcDbSpline
210
0.0
220
0.0
230
1.0
 70
    11
 71
     3
 72
    17
 73
    13
 74
     0
 42
0.0000000001
 43
0.0000000001
 40
0.0
 40
0.0
 40
0.0
 40
0.0
 40
1.0
 40
1.0
 40
1.0
 40
2.0
 40
2.0
 40
2.0
 40
3.0
 40
3.0
 40
3.0
 40
4.0
 40
4.0
 40
4.0
 40
4.0
 10
343.0450384342041
 20
-171.7228515195693
 30
0.0
 10
343.0450384342041
 20
-180.2832247813181
 30
0.0
 10
336.1059271078138
 20
-187.2230251268054
 30
0.0
 10
327.5452093365165
 20
-187.2230251268054
 30
0.0
 10
318.9848360747677
 20
-187.2230251268054
 30
0.0
 10
312.045380238829
 20
-180.2832247813181
 30
0.0
 10
312.045380238829
 20
-171.7228515195693
 30
0.0
 10
312.045380238829
 20
-163.1624782578205
 30
0.0
 10
318.9848360747677
 20
-156.2226779123332
 30
0.0
 10
327.5452093365165
 20
-156.2226779123332
 30
0.0
 10
336.1059271078138
 20
-156.2226779123332
 30
0.0
 10
343.0450384342041
 20
-163.1624782578205
 30
0.0
 10
343.0450384342041
 20
-171.7228515195693
 30
0.0
  0
SPLINE
  5
75
330
1F
100
AcDbEntity
  8
Ebene 3
370
     0
100
AcDbSpline
210
0.0
220
0.0
230
1.0
 70
    11
 71
     3
 72
    29
 73
    25
 74
     0
 42
0.0000000001
 43
0.0000000001
 40
0.0
 40
0.0
 40
0.0
 40
0.0
 40
1.0
 40
1.0
 40
1.0
 40
2.0
 40
2.0
 40
2.0
 40
3.0
 40
3.0
 40
3.0
 40
4.0
 40
4.0
 40
4.0
 40
5.0
 40
5.0
 40
5.0
 40
6.0
 40
6.0
 40
6.0
 40
7.0
 40
7.0
 40
7.0
 40
8.0
 40
8.0
 40
8.0
 40
8.0
 10
326.3073865286662
 20
-287.4656574802169
 30
0.0
 10
286.5113660308027
 20
-291.389276728368
 30
0.0
 10
277.9382459157585
 20
-357.5616372804013
 30
0.0
 10
259.136292795459
 20
-294.5942490582959
 30
0.0
 10
232.0037542822768
 20
-203.7277885775403
 30
0.0
 10
263.9439235451251
 20
-169.9703314462227
 30
0.0
 10
279.137483654174
 20
-156.2450710329873
 30
0.0
 10
291.168790617312
 20
-145.3764837961212
 30
0.0
 10
308.6695311728326
 20
-133.3491386927912
 30
0.0
 10
327.1869194060505
 20
-133.3357028203987
 30
0.0
 10
327.1869194060505
 20
-133.3357028203987
 30
0.0
 10
327.5372856169004
 20
-133.3357028203987
 30
0.0
 10
327.5372856169004
 20
-133.3357028203987
 30
0.0
 10
346.0546738501183
 20
-133.3491386927912
 30
0.0
 10
363.5554144056389
 20
-145.3764837961212
 30
0.0
 10
375.5867213687769
 20
-156.2450710329873
 30
0.0
 10
390.7802814778258
 20
-169.9703314462227
 30
0.0
 10
422.7204507406741
 20
-203.7277885775403
 30
0.0
 10
395.5879122274919
 20
-294.5942490582959
 30
0.0
 10
376.7859591071924
 20
-357.5616372804013
 30
0.0
 10
368.2128389921482
 20
-291.389276728368
 30
0.0
 10
328.4168184942847
 20
-287.4656574802169
 30
0.0
 10
328.4168184942847
 20
-287.4656574802169
 30
0.0
 10
326.3073865286662
 20
-287.4656574802169
 30
0.0
 10
326.3073865286662
 20
-287.4656574802169
 30
0.0
  0
SPLINE
  5
76
330
1F
100
AcDbEntity
  8
Ebene 3
370
     0
100
AcDbSpline
210
0.0
220
0.0
230
1.0
 70
    11
 71
     3
 72
    23
 73
    19
 74
     0
 42
0.0000000001
 43
0.0000000001
 40
0.0
 40
0.0
 40
0.0
 40
0.0
 40
1.0
 40
1.0
 40
1.0
 40
2.0
 40
2.0
 40
2.0
 40
3.0
 40
3.0
 40
3.0
 40
4.0
 40
4.0
 40
4.0
 40
5.0
 40
5.0
 40
5.0
 40
6.0
 40
6.0
 40
6.0
 40
6.0
 10
415.9525606599008
 20
-270.408989732745
 30
0.0
 10
406.1478189088797
 20
-259.4794243057899
 30
0.0
 10
409.4847383958927
 20
-217.4961126843413
 30
0.0
 10
409.4847383958927
 20
-217.4961126843413
 30
0.0
 10
409.4847383958927
 20
-217.4961126843413
 30
0.0
 10
409.6225422153027
 20
-198.8381645553252
 30
0.0
 10
429.0156737208711
 20
-182.0054280143945
 30
0.0
 10
448.4081162073425
 20
-165.1726914734638
 30
0.0
 10
469.720854917292
 20
-164.6790092904275
 30
0.0
 10
489.4860567352674
 20
-182.0054280143945
 30
0.0
 10
509.2505695341457
 20
-199.33219124791
 30
0.0
 10
508.8977917564561
 20
-218.0080538734494
 30
0.0
 10
508.8977917564561
 20
-218.0080538734494
 30
0.0
 10
508.8977917564561
 20
-218.0080538734494
 30
0.0
 10
510.081526565188
 20
-258.6112602435069
 30
0.0
 10
500.7756346404311
 20
-270.9167968072708
 30
0.0
 10
487.7828015273599
 20
-288.0978325017603
 30
0.0
 10
430.8284829652096
 20
-286.9923013605436
 30
0.0
 10
415.9525606599008
 20
-270.408989732745
 30
0.0
  0
POLYLINE
  5
77
330
1F
100
AcDbEntity
  8
Ebene 3
370
     0
100
AcDb2dPolyline
 66
     1
 10
0.0
 20
0.0
 30
0.0
  0
VERTEX
  5
78
330
77
100
AcDbEntity
  8
Ebene 3
370
     0
100
AcDbVertex
100
AcDb2dVertex
 10
289.3714843026572
 20
-240.0990396535169
 30
0.0
  0
VERTEX
  5
79
330
77
100
AcDbEntity
  8
Ebene 3
370
     0
100
AcDbVertex
100
AcDb2dVertex
 10
284.6093288133963
 20
-240.0990396535169
 30
0.0
  0
VERTEX
  5
7A
330
77
100
AcDbEntity
  8
Ebene 3
370
     0
100
AcDbVertex
100
AcDb2dVertex
 10
284.6093288133963
 20
-237.9823729873794
 30
0.0
  0
VERTEX
  5
7B
330
77
100
AcDbEntity
  8
Ebene 3
370
     0
100
AcDbVertex
100
AcDb2dVertex
 10
289.3714843026572
 20
-237.9823729873794
 30
0.0
  0
VERTEX
  5
7C
330
77
100
AcDbEntity
  8
Ebene 3
370
     0
100
AcDbVertex
100
AcDb2dVertex
 10
289.3714843026572
 20
-240.0990396535169
 30
0.0
  0
SEQEND
  5
7D
330
77
100
AcDbEntity
  8
Ebene 3
370
     0
  0
POLYLINE
  5
7E
330
1F
100
AcDbEntity
  8
Ebene 3
370
     0
100
AcDb2dPolyline
 66
     1
 10
0.0
 20
0.0
 30
0.0
  0
VERTEX
  5
7F
330
7E
100
AcDbEntity
  8
Ebene 3
370
     0
100
AcDbVertex
100
AcDb2dVertex
 10
306.7823078660128
 20
-240.0990396535169
 30
0.0
  0
VERTEX
  5
80
330
7E
100
AcDbEntity
  8
Ebene 3
370
     0
100
AcDbVertex
100
AcDb2dVertex
 10
302.0201523767519
 20
-240.0990396535169
 30
0.0
  0
VERTEX
  5
81
330
7E
100
AcDbEntity
  8
Ebene 3
370
     0
100
AcDbVertex
100
AcDb2dVertex
 10
302.0201523767519
 20
-237.9823729873794
 30
0.0
  0
VERTEX
  5
82
330
7E
100
AcDbEntity
  8
Ebene 3
370
     0
100
AcDbVertex
100
AcDb2dVertex
 10
306.7823078660128
 20
-237.9823729873794
 30
0.0
  0
VERTEX
  5
83
330
7E
100
AcDbEntity
  8
Ebene 3
370
     0
100
AcDbVertex
100
AcDb2dVertex
 10
306.7823078660128
 20
-240.0990396535169
 30
0.0
  0
SEQEND
  5
84
330
7E
100
AcDbEntity
  8
Ebene 3
370
     0
  0
POLYLINE
  5
85
330
1F
100
AcDbEntity
  8
Ebene 3
370
     0
100
AcDb2dPolyline
 66
     1
 10
0.0
 20
0.0
 30
0.0
  0
VERTEX
  5
86
330
85
100
AcDbEntity
  8
Ebene 3
370
     0
100
AcDbVertex
100
AcDb2dVertex
 10
289.3714843026572
 20
-271.1462401665884
 30
0.0
  0
VERTEX
  5
87
330
85
100
AcDbEntity
  8
Ebene 3
370
     0
100
AcDbVertex
100
AcDb2dVertex
 10
284.6093288133963
 20
-271.1462401665884
 30
0.0
  0
VERTEX
  5
88
330
85
100
AcDbEntity
  8
Ebene 3
370
     0
100
AcDbVertex
100
AcDb2dVertex
 10
284.6093288133963
 20
-269.029573500451
 30
0.0
  0
VERTEX
  5
89
330
85
100
AcDbEntity
  8
Ebene 3
370
     0
100
AcDbVertex
100
AcDb2dVertex
 10
289.3714843026572
 20
-269.029573500451
 30
0.0
  0
VERTEX
  5
8A
330
85
100
AcDbEntity
  8
Ebene 3
370
     0
100
AcDbVertex
100
AcDb2dVertex
 10
289.3714843026572
 20
-271.1462401665884
 30
0.0
  0
SEQEND
  5
8B
330
85
100
AcDbEntity
  8
Ebene 3
370
     0
  0
POLYLINE
  5
8C
330
1F
100
AcDbEntity
  8
Ebene 3
370
     0
100
AcDb2dPolyline
 66
     1
 10
0.0
 20
0.0
 30
0.0
  0
VERTEX
  5
8D
330
8C
100
AcDbEntity
  8
Ebene 3
370
     0
100
AcDbVertex
100
AcDb2dVertex
 10
306.7823078660128
 20
-271.1462401665884
 30
0.0
  0
VERTEX
  5
8E
330
8C
100
AcDbEntity
  8
Ebene 3
370
     0
100
AcDbVertex
100
AcDb2dVertex
 10
302.0201523767519
 20
-271.1462401665884
 30
0.0
  0
VERTEX
  5
8F
330
8C
100
AcDbEntity
  8
Ebene 3
370
     0
100
AcDbVertex
100
AcDb2dVertex
 10
302.0201523767519
 20
-269.029573500451
 30
0.0
  0
VERTEX
  5
90
330
8C
100
AcDbEntity
  8
Ebene 3
370
     0
100
AcDbVertex
100
AcDb2dVertex
 10
306.7823078660128
 20
-269.029573500451
 30
0.0
  0
VERTEX
  5
91
330
8C
100
AcDbEntity
  8
Ebene 3
370
     0
100
AcDbVertex
100
AcDb2dVertex
 10
306.7823078660128
 20
-271.1462401665884
 30
0.0
  0
SEQEND
  5
92
330
8C
100
AcDbEntity
  8
Ebene 3
370
     0
  0
SPLINE
  5
93
330
1F
100
AcDbEntity
  8
Ebene 3
370
     0
100
AcDbSpline
210
0.0
220
0.0
230
1.0
 70
    11
 71
     3
 72
    17
 73
    13
 74
     0
 42
0.0000000001
 43
0.0000000001
 40
0.0
 40
0.0
 40
0.0
 40
0.0
 40
1.0
 40
1.0
 40
1.0
 40
2.0
 40
2.0
 40
2.0
 40
3.0
 40
3.0
 40
3.0
 40
4.0
 40
4.0
 40
4.0
 40
4.0
 10
476.8752847115103
 20
-149.6170518289152
 30
0.0
 10
476.8752847115103
 20
-158.729329387401
 30
0.0
 10
469.4879664624892
 20
-166.1169921459708
 30
0.0
 10
460.3749998849063
 20
-166.1169921459708
 30
0.0
 10
451.2623778168719
 20
-166.1169921459708
 30
0.0
 10
443.8750595678507
 20
-158.729329387401
 30
0.0
 10
443.8750595678507
 20
-149.6170518289152
 30
0.0
 10
443.8750595678507
 20
-140.5040852513323
 30
0.0
 10
451.2623778168719
 20
-133.1171115118596
 30
0.0
 10
460.3749998849063
 20
-133.1171115118596
 30
0.0
 10
469.4879664624892
 20
-133.1171115118596
 30
0.0
 10
476.8752847115103
 20
-140.5040852513323
 30
0.0
 10
476.8752847115103
 20
-149.6170518289152
 30
0.0
  0
SPLINE
  5
94
330
1F
100
AcDbEntity
  8
Ebene 3
370
     0
100
AcDbSpline
210
0.0
220
0.0
230
1.0
 70
    11
 71
     3
 72
    17
 73
    13
 74
     0
 42
0.0000000001
 43
0.0000000001
 40
0.0
 40
0.0
 40
0.0
 40
0.0
 40
1.0
 40
1.0
 40
1.0
 40
2.0
 40
2.0
 40
2.0
 40
3.0
 40
3.0
 40
3.0
 40
4.0
 40
4.0
 40
4.0
 40
4.0
 10
461.8250405746479
 20
-149.6170518289152
 30
0.0
 10
461.8250405746479
 20
-150.4176920196873
 30
0.0
 10
461.1759845852268
 20
-151.0667480091083
 30
0.0
 10
460.3749998849063
 20
-151.0667480091083
 30
0.0
 10
459.5740151845857
 20
-151.0667480091083
 30
0.0
 10
458.9249591951646
 20
-150.4176920196873
 30
0.0
 10
458.9249591951646
 20
-149.6170518289152
 30
0.0
 10
458.9249591951646
 20
-148.8157226190461
 30
0.0
 10
459.5740151845857
 20
-148.166666629625
 30
0.0
 10
460.3749998849063
 20
-148.166666629625
 30
0.0
 10
461.1759845852268
 20
-148.166666629625
 30
0.0
 10
461.8250405746479
 20
-148.8157226190461
 30
0.0
 10
461.8250405746479
 20
-149.6170518289152
 30
0.0
  0
SPLINE
  5
95
330
1F
100
AcDbEntity
  8
Ebene 3
370
     0
100
AcDbSpline
210
0.0
220
0.0
230
1.0
 70
    11
 71
     3
 72
    17
 73
    13
 74
     0
 42
0.0000000001
 43
0.0000000001
 40
0.0
 40
0.0
 40
0.0
 40
0.0
 40
1.0
 40
1.0
 40
1.0
 40
2.0
 40
2.0
 40
2.0
 40
3.0
 40
3.0
 40
3.0
 40
4.0
 40
4.0
 40
4.0
 40
4.0
 10
540.4142142746186
 20
-305.5055554791792
 30
0.0
 10
540.4142142746186
 20
-314.617833037665
 30
0.0
 10
533.0268960255975
 20
-322.0054957962348
 30
0.0
 10
523.9139294480146
 20
-322.0054957962348
 30
0.0
 10
514.8013073799802
 20
-322.0054957962348
 30
0.0
 10
507.413989130959
 20
-314.617833037665
 30
0.0
 10
507.413989130959
 20
-305.5055554791792
 30
0.0
 10
507.413989130959
 20
-296.3925889015963
 30
0.0
 10
514.8013073799802
 20
-289.0056151621236
 30
0.0
 10
523.9139294480146
 20
-289.0056151621236
 30
0.0
 10
533.0268960255975
 20
-289.0056151621236
 30
0.0
 10
540.4142142746186
 20
-296.3925889015963
 30
0.0
 10
540.4142142746186
 20
-305.5055554791792
 30
0.0
  0
SPLINE
  5
96
330
1F
100
AcDbEntity
  8
Ebene 3
370
     0
100
AcDbSpline
210
0.0
220
0.0
230
1.0
 70
    11
 71
     3
 72
    17
 73
    13
 74
     0
 42
0.0000000001
 43
0.0000000001
 40
0.0
 40
0.0
 40
0.0
 40
0.0
 40
1.0
 40
1.0
 40
1.0
 40
2.0
 40
2.0
 40
2.0
 40
3.0
 40
3.0
 40
3.0
 40
4.0
 40
4.0
 40
4.0
 40
4.0
 10
525.3639701377563
 20
-305.5055554791792
 30
0.0
 10
525.3639701377563
 20
-306.3061956699513
 30
0.0
 10
524.7149141483352
 20
-306.9552516593723
 30
0.0
 10
523.9139294480146
 20
-306.9552516593723
 30
0.0
 10
523.112944747694
 20
-306.9552516593723
 30
0.0
 10
522.4638887582729
 20
-306.3061956699513
 30
0.0
 10
522.4638887582729
 20
-305.5055554791792
 30
0.0
 10
522.4638887582729
 20
-304.7042262693101
 30
0.0
 10
523.112944747694
 20
-304.055170279889
 30
0.0
 10
523.9139294480146
 20
-304.055170279889
 30
0.0
 10
524.7149141483352
 20
-304.055170279889
 30
0.0
 10
525.3639701377563
 20
-304.7042262693101
 30
0.0
 10
525.3639701377563
 20
-305.5055554791792
 30
0.0
  0
SPLINE
  5
97
330
1F
100
AcDbEntity
  8
Ebene 3
370
     0
100
AcDbSpline
210
0.0
220
0.0
230
1.0
 70
    11
 71
     3
 72
    89
 73
    85
 74
     0
 42
0.0000000001
 43
0.0000000001
 40
0.0
 40
0.0
 40
0.0
 40
0.0
 40
1.0
 40
1.0
 40
1.0
 40
2.0
 40
2.0
 40
2.0
 40
3.0
 40
3.0
 40
3.0
 40
4.0
 40
4.0
 40
4.0
 40
5.0
 40
5.0
 40
5.0
 40
6.0
 40
6.0
 40
6.0
 40
7.0
 40
7.0
 40
7.0
 40
8.0
 40
8.0
 40
8.0
 40
9.0
 40
9.0
 40
9.0
 40
10.0
 40
10.0
 40
10.0
 40
11.0
 40
11.0
 40
11.0
 40
12.0
 40
12.0
 40
12.0
 40
13.0
 40
13.0
 40
13.0
 40
14.0
 40
14.0
 40
14.0
 40
15.0
 40
15.0
 40
15.0
 40
16.0
 40
16.0
 40
16.0
 40
17.0
 40
17.0
 40
17.0
 40
18.0
 40
18.0
 40
18.0
 40
19.0
 40
19.0
 40
19.0
 40
20.0
 40
20.0
 40
20.0
 40
21.0
 40
21.0
 40
21.0
 40
22.0
 40
22.0
 40
22.0
 40
23.0
 40
23.0
 40
23.0
 40
24.0
 40
24.0
 40
24.0
 40
25.0
 40
25.0
 40
25.0
 40
26.0
 40
26.0
 40
26.0
 40
27.0
 40
27.0
 40
27.0
 40
28.0
 40
28.0
 40
28.0
 40
28.0
 10
277.8090548350617
 20
-243.4166666058125
 30
0.0
 10
277.8090548350617
 20
-243.4166666058125
 30
0.0
 10
277.6609157291959
 20
-243.1589734635158
 30
0.0
 10
277.6609157291959
 20
-243.1589734635158
 30
0.0
 10
277.6609157291959
 20
-243.1589734635158
 30
0.0
 10
278.8532632766409
 20
-218.1579155270578
 30
0.0
 10
278.8532632766409
 20
-218.1579155270578
 30
0.0
 10
278.8532632766409
 20
-218.1579155270578
 30
0.0
 10
284.2413926155716
 20
-217.2618461913443
 30
0.0
 10
284.2413926155716
 20
-217.2618461913443
 30
0.0
 10
285.6204643383171
 20
-217.1064723849595
 30
0.0
 10
286.5943928319973
 20
-215.6812363827116
 30
0.0
 10
286.4107692426334
 20
-214.086846192138
 30
0.0
 10
286.2378254492739
 20
-212.5875406369573
 30
0.0
 10
285.1126572637913
 20
-211.4654730374114
 30
0.0
 10
283.832115271924
 20
-211.4654730374114
 30
0.0
 10
283.750811018472
 20
-211.4654730374114
 30
0.0
 10
283.6660616695349
 20
-211.4692626424452
 30
0.0
 10
283.5816568301462
 20
-211.4795979289009
 30
0.0
 10
283.5816568301462
 20
-211.4795979289009
 30
0.0
 10
279.1354165968828
 20
-213.6789468866844
 30
0.0
 10
279.1354165968828
 20
-213.6789468866844
 30
0.0
 10
279.1354165968828
 20
-213.6789468866844
 30
0.0
 10
279.1354165968828
 20
-212.266457737732
 30
0.0
 10
279.1354165968828
 20
-212.266457737732
 30
0.0
 10
279.1354165968828
 20
-212.266457737732
 30
0.0
 10
279.3538356506477
 20
-207.6999836720333
 30
0.0
 10
279.3538356506477
 20
-207.6999836720333
 30
0.0
 10
279.3538356506477
 20
-207.6999836720333
 30
0.0
 10
282.4423637531742
 20
-199.4755072200964
 30
0.0
 10
282.4423637531742
 20
-199.4755072200964
 30
0.0
 10
283.0073594127551
 20
-197.9710340216878
 30
0.0
 10
282.2456488009664
 20
-196.2929280108226
 30
0.0
 10
280.7411756025578
 20
-195.7282768607902
 30
0.0
 10
279.2363578946006
 20
-195.1632812012092
 30
0.0
 10
277.5582518837355
 20
-195.9246473034494
 30
0.0
 10
276.993600733703
 20
-197.4294650114065
 30
0.0
 10
276.993600733703
 20
-197.4294650114065
 30
0.0
 10
275.559751992742
 20
-201.2314723889282
 30
0.0
 10
275.2245442020272
 20
-201.0409586085939
 30
0.0
 10
275.0853623444231
 20
-200.9617214124332
 30
0.0
 10
272.8253797060992
 20
-200.8859293117577
 30
0.0
 10
272.6827527530099
 20
-200.8122042683733
 30
0.0
 10
272.6827527530099
 20
-200.8122042683733
 30
0.0
 10
273.3025254308063
 20
-196.0414360403994
 30
0.0
 10
273.3025254308063
 20
-196.0414360403994
 30
0.0
 10
273.2732421191817
 20
-194.4342989965303
 30
0.0
 10
271.9468803573605
 20
-193.1551350428571
 30
0.0
 10
270.3397433134915
 20
-193.1847628640302
 30
0.0
 10
268.7329507791709
 20
-193.2140461756548
 30
0.0
 10
267.4534423159491
 20
-194.5400634279275
 30
0.0
 10
267.4827256275738
 20
-196.1472004717965
 30
0.0
 10
267.4827256275738
 20
-196.1472004717965
 30
0.0
 10
268.2592501499491
 20
-200.3646863648394
 30
0.0
 10
268.2592501499491
 20
-200.3646863648394
 30
0.0
 10
267.8544514304322
 20
-200.4787190254012
 30
0.0
 10
265.7567327894636
 20
-200.7846435044914
 30
0.0
 10
265.4676892782512
 20
-200.9710231702434
 30
0.0
 10
265.4676892782512
 20
-200.9710231702434
 30
0.0
 10
264.8169107410874
 20
-197.8914523159785
 30
0.0
 10
264.8169107410874
 20
-197.8914523159785
 30
0.0
 10
264.4848035363094
 20
-196.318766226962
 30
0.0
 10
262.9403672302719
 20
-195.3134873643661
 30
0.0
 10
261.3680256508038
 20
-195.6459390786927
 30
0.0
 10
259.7953395617873
 20
-195.9780462834708
 30
0.0
 10
258.7900606991914
 20
-197.5221380799597
 30
0.0
 10
259.1221679039695
 20
-199.0948241689763
 30
0.0
 10
259.1221679039695
 20
-199.0948241689763
 30
0.0
 10
260.7058782985388
 20
-206.5872178302976
 30
0.0
 10
260.7058782985388
 20
-206.5872178302976
 30
0.0
 10
259.7788031034581
 20
-211.5853623602981
 30
0.0
 10
250.5772975719043
 20
-264.9478243695269
 30
0.0
 10
280.1372503639935
 20
-265.4053330499681
 30
0.0
 10
280.1372503639935
 20
-265.4053330499681
 30
0.0
 10
280.3243190488425
 20
-265.4160128459724
 30
0.0
 10
280.3243190488425
 20
-265.4160128459724
 30
0.0
 10
280.3243190488425
 20
-265.4160128459724
 30
0.0
 10
311.1324299352377
 20
-265.4160128459724
 30
0.0
 10
311.1324299352377
 20
-265.4160128459724
 30
0.0
 10
311.1324299352377
 20
-265.4160128459724
 30
0.0
 10
311.1324299352377
 20
-243.4166666058125
 30
0.0
 10
311.1324299352377
 20
-243.4166666058125
 30
0.0
 10
311.1324299352377
 20
-243.4166666058125
 30
0.0
 10
277.8090548350617
 20
-243.4166666058125
 30
0.0
 10
277.8090548350617
 20
-243.4166666058125
 30
0.0
  0
POLYLINE
  5
98
330
1F
100
AcDbEntity
  8
Ebene 3
370
     0
100
AcDb2dPolyline
 66
     1
 10
0.0
 20
0.0
 30
0.0
  0
VERTEX
  5
99
330
98
100
AcDbEntity
  8
Ebene 3
370
     0
100
AcDbVertex
100
AcDb2dVertex
 10
361.3477972186909
 20
-220.1639946281187
 30
0.0
  0
VERTEX
  5
9A
330
98
100
AcDbEntity
  8
Ebene 3
370
     0
100
AcDbVertex
100
AcDb2dVertex
 10
361.3477972186909
 20
-239.8637396318744
 30
0.0
  0
VERTEX
  5
9B
330
98
100
AcDbEntity
  8
Ebene 3
370
     0
100
AcDbVertex
100
AcDb2dVertex
 10
357.2481335912435
 20
-239.8637396318744
 30
0.0
  0
VERTEX
  5
9C
330
98
100
AcDbEntity
  8
Ebene 3
370
     0
100
AcDbVertex
100
AcDb2dVertex
 10
357.2481335912435
 20
-220.1639946281187
 30
0.0
  0
VERTEX
  5
9D
330
98
100
AcDbEntity
  8
Ebene 3
370
     0
100
AcDbVertex
100
AcDb2dVertex
 10
361.3477972186909
 20
-220.1639946281187
 30
0.0
  0
SEQEND
  5
9E
330
98
100
AcDbEntity
  8
Ebene 3
370
     0
  0
POLYLINE
  5
9F
330
1F
100
AcDbEntity
  8
Ebene 3
370
     0
100
AcDb2dPolyline
 66
     1
 10
0.0
 20
0.0
 30
0.0
  0
VERTEX
  5
A0
330
9F
100
AcDbEntity
  8
Ebene 3
370
     0
100
AcDbVertex
100
AcDb2dVertex
 10
366.5547145350974
 20
-240.0990396535169
 30
0.0
  0
VERTEX
  5
A1
330
9F
100
AcDbEntity
  8
Ebene 3
370
     0
100
AcDbVertex
100
AcDb2dVertex
 10
371.3168700243583
 20
-240.0990396535169
 30
0.0
  0
VERTEX
  5
A2
330
9F
100
AcDbEntity
  8
Ebene 3
370
     0
100
AcDbVertex
100
AcDb2dVertex
 10
371.3168700243583
 20
-237.9823729873794
 30
0.0
  0
VERTEX
  5
A3
330
9F
100
AcDbEntity
  8
Ebene 3
370
     0
100
AcDbVertex
100
AcDb2dVertex
 10
366.5547145350974
 20
-237.9823729873794
 30
0.0
  0
VERTEX
  5
A4
330
9F
100
AcDbEntity
  8
Ebene 3
370
     0
100
AcDbVertex
100
AcDb2dVertex
 10
366.5547145350974
 20
-240.0990396535169
 30
0.0
  0
SEQEND
  5
A5
330
9F
100
AcDbEntity
  8
Ebene 3
370
     0
  0
POLYLINE
  5
A6
330
1F
100
AcDbEntity
  8
Ebene 3
370
     0
100
AcDb2dPolyline
 66
     1
 10
0.0
 20
0.0
 30
0.0
  0
VERTEX
  5
A7
330
A6
100
AcDbEntity
  8
Ebene 3
370
     0
100
AcDbVertex
100
AcDb2dVertex
 10
349.1438909717418
 20
-240.0990396535169
 30
0.0
  0
VERTEX
  5
A8
330
A6
100
AcDbEntity
  8
Ebene 3
370
     0
100
AcDbVertex
100
AcDb2dVertex
 10
353.9060464610027
 20
-240.0990396535169
 30
0.0
  0
VERTEX
  5
A9
330
A6
100
AcDbEntity
  8
Ebene 3
370
     0
100
AcDbVertex
100
AcDb2dVertex
 10
353.9060464610027
 20
-237.9823729873794
 30
0.0
  0
VERTEX
  5
AA
330
A6
100
AcDbEntity
  8
Ebene 3
370
     0
100
AcDbVertex
100
AcDb2dVertex
 10
349.1438909717418
 20
-237.9823729873794
 30
0.0
  0
VERTEX
  5
AB
330
A6
100
AcDbEntity
  8
Ebene 3
370
     0
100
AcDbVertex
100
AcDb2dVertex
 10
349.1438909717418
 20
-240.0990396535169
 30
0.0
  0
SEQEND
  5
AC
330
A6
100
AcDbEntity
  8
Ebene 3
370
     0
  0
POLYLINE
  5
AD
330
1F
100
AcDbEntity
  8
Ebene 3
370
     0
100
AcDb2dPolyline
 66
     1
 10
0.0
 20
0.0
 30
0.0
  0
VERTEX
  5
AE
330
AD
100
AcDbEntity
  8
Ebene 3
370
     0
100
AcDbVertex
100
AcDb2dVertex
 10
366.5547145350974
 20
-271.1462401665884
 30
0.0
  0
VERTEX
  5
AF
330
AD
100
AcDbEntity
  8
Ebene 3
370
     0
100
AcDbVertex
100
AcDb2dVertex
 10
371.3168700243583
 20
-271.1462401665884
 30
0.0
  0
VERTEX
  5
B0
330
AD
100
AcDbEntity
  8
Ebene 3
370
     0
100
AcDbVertex
100
AcDb2dVertex
 10
371.3168700243583
 20
-269.029573500451
 30
0.0
  0
VERTEX
  5
B1
330
AD
100
AcDbEntity
  8
Ebene 3
370
     0
100
AcDbVertex
100
AcDb2dVertex
 10
366.5547145350974
 20
-269.029573500451
 30
0.0
  0
VERTEX
  5
B2
330
AD
100
AcDbEntity
  8
Ebene 3
370
     0
100
AcDbVertex
100
AcDb2dVertex
 10
366.5547145350974
 20
-271.1462401665884
 30
0.0
  0
SEQEND
  5
B3
330
AD
100
AcDbEntity
  8
Ebene 3
370
     0
  0
POLYLINE
  5
B4
330
1F
100
AcDbEntity
  8
Ebene 3
370
     0
100
AcDb2dPolyline
 66
     1
 10
0.0
 20
0.0
 30
0.0
  0
VERTEX
  5
B5
330
B4
100
AcDbEntity
  8
Ebene 3
370
     0
100
AcDbVertex
100
AcDb2dVertex
 10
349.1438909717418
 20
-271.1462401665884
 30
0.0
  0
VERTEX
  5
B6
330
B4
100
AcDbEntity
  8
Ebene 3
370
     0
100
AcDbVertex
100
AcDb2dVertex
 10
353.9060464610027
 20
-271.1462401665884
 30
0.0
  0
VERTEX
  5
B7
330
B4
100
AcDbEntity
  8
Ebene 3
370
     0
100
AcDbVertex
100
AcDb2dVertex
 10
353.9060464610027
 20
-269.029573500451
 30
0.0
  0
VERTEX
  5
B8
330
B4
100
AcDbEntity
  8
Ebene 3
370
     0
100
AcDbVertex
100
AcDb2dVertex
 10
349.1438909717418
 20
-269.029573500451
 30
0.0
  0
VERTEX
  5
B9
330
B4
100
AcDbEntity
  8
Ebene 3
370
     0
100
AcDbVertex
100
AcDb2dVertex
 10
349.1438909717418
 20
-271.1462401665884
 30
0.0
  0
SEQEND
  5
BA
330
B4
100
AcDbEntity
  8
Ebene 3
370
     0
  0
SPLINE
  5
BB
330
1F
100
AcDbEntity
  8
Ebene 3
370
     0
100
AcDbSpline
210
0.0
220
0.0
230
1.0
 70
    11
 71
     3
 72
    89
 73
    85
 74
     0
 42
0.0000000001
 43
0.0000000001
 40
0.0
 40
0.0
 40
0.0
 40
0.0
 40
1.0
 40
1.0
 40
1.0
 40
2.0
 40
2.0
 40
2.0
 40
3.0
 40
3.0
 40
3.0
 40
4.0
 40
4.0
 40
4.0
 40
5.0
 40
5.0
 40
5.0
 40
6.0
 40
6.0
 40
6.0
 40
7.0
 40
7.0
 40
7.0
 40
8.0
 40
8.0
 40
8.0
 40
9.0
 40
9.0
 40
9.0
 40
10.0
 40
10.0
 40
10.0
 40
11.0
 40
11.0
 40
11.0
 40
12.0
 40
12.0
 40
12.0
 40
13.0
 40
13.0
 40
13.0
 40
14.0
 40
14.0
 40
14.0
 40
15.0
 40
15.0
 40
15.0
 40
16.0
 40
16.0
 40
16.0
 40
17.0
 40
17.0
 40
17.0
 40
18.0
 40
18.0
 40
18.0
 40
19.0
 40
19.0
 40
19.0
 40
20.0
 40
20.0
 40
20.0
 40
21.0
 40
21.0
 40
21.0
 40
22.0
 40
22.0
 40
22.0
 40
23.0
 40
23.0
 40
23.0
 40
24.0
 40
24.0
 40
24.0
 40
25.0
 40
25.0
 40
25.0
 40
26.0
 40
26.0
 40
26.0
 40
27.0
 40
27.0
 40
27.0
 40
28.0
 40
28.0
 40
28.0
 40
28.0
 10
344.7937689025168
 20
-243.4166666058125
 30
0.0
 10
344.7937689025168
 20
-243.4166666058125
 30
0.0
 10
344.7937689025168
 20
-265.4160128459724
 30
0.0
 10
344.7937689025168
 20
-265.4160128459724
 30
0.0
 10
344.7937689025168
 20
-265.4160128459724
 30
0.0
 10
375.6018797889121
 20
-265.4160128459724
 30
0.0
 10
375.6018797889121
 20
-265.4160128459724
 30
0.0
 10
375.6018797889121
 20
-265.4160128459724
 30
0.0
 10
375.7889484737611
 20
-265.4053330499681
 30
0.0
 10
375.7889484737611
 20
-265.4053330499681
 30
0.0
 10
405.3489012658503
 20
-264.9478243695269
 30
0.0
 10
396.1473957342965
 20
-211.5853623602981
 30
0.0
 10
395.2203205392158
 20
-206.5872178302976
 30
0.0
 10
395.2203205392158
 20
-206.5872178302976
 30
0.0
 10
396.8040309337851
 20
-199.0948241689763
 30
0.0
 10
396.8040309337851
 20
-199.0948241689763
 30
0.0
 10
397.1361381385632
 20
-197.5221380799597
 30
0.0
 10
396.1308592759673
 20
-195.9780462834708
 30
0.0
 10
394.5581731869507
 20
-195.6459390786927
 30
0.0
 10
392.9858316074827
 20
-195.3134873643661
 30
0.0
 10
391.4413953014452
 20
-196.318766226962
 30
0.0
 10
391.1092880966671
 20
-197.8914523159785
 30
0.0
 10
391.1092880966671
 20
-197.8914523159785
 30
0.0
 10
390.4585095595035
 20
-200.9710231702434
 30
0.0
 10
390.4585095595035
 20
-200.9710231702434
 30
0.0
 10
390.169466048291
 20
-200.7846435044914
 30
0.0
 10
388.0717474073223
 20
-200.4787190254012
 30
0.0
 10
387.6669486878055
 20
-200.3646863648394
 30
0.0
 10
387.6669486878055
 20
-200.3646863648394
 30
0.0
 10
388.4434732101808
 20
-196.1472004717965
 30
0.0
 10
388.4434732101808
 20
-196.1472004717965
 30
0.0
 10
388.4727565218054
 20
-194.5400634279275
 30
0.0
 10
387.1932480585837
 20
-193.2140461756548
 30
0.0
 10
385.5864555242631
 20
-193.1847628640302
 30
0.0
 10
383.9793184803941
 20
-193.1551350428571
 30
0.0
 10
382.6529567185729
 20
-194.4342989965303
 30
0.0
 10
382.6236734069483
 20
-196.0414360403994
 30
0.0
 10
382.6236734069483
 20
-196.0414360403994
 30
0.0
 10
383.2434460847447
 20
-200.8122042683733
 30
0.0
 10
383.2434460847447
 20
-200.8122042683733
 30
0.0
 10
383.1008191316554
 20
-200.8859293117577
 30
0.0
 10
380.8408364933315
 20
-200.9617214124332
 30
0.0
 10
380.7016546357274
 20
-201.0409586085939
 30
0.0
 10
380.3664468450125
 20
-201.2314723889282
 30
0.0
 10
378.9325981040516
 20
-197.4294650114065
 30
0.0
 10
378.9325981040516
 20
-197.4294650114065
 30
0.0
 10
378.3679469540191
 20
-195.9246473034494
 30
0.0
 10
376.689840943154
 20
-195.1632812012092
 30
0.0
 10
375.1850232351968
 20
-195.7282768607902
 30
0.0
 10
373.6805500367882
 20
-196.2929280108226
 30
0.0
 10
372.9188394249995
 20
-197.9710340216878
 30
0.0
 10
373.4838350845804
 20
-199.4755072200964
 30
0.0
 10
373.4838350845804
 20
-199.4755072200964
 30
0.0
 10
376.5723631871069
 20
-207.6999836720333
 30
0.0
 10
376.5723631871069
 20
-207.6999836720333
 30
0.0
 10
376.5723631871069
 20
-207.6999836720333
 30
0.0
 10
376.7907822408717
 20
-212.266457737732
 30
0.0
 10
376.7907822408717
 20
-212.266457737732
 30
0.0
 10
376.7907822408717
 20
-212.266457737732
 30
0.0
 10
376.7907822408717
 20
-213.6789468866844
 30
0.0
 10
376.7907822408717
 20
-213.6789468866844
 30
0.0
 10
376.7907822408717
 20
-213.6789468866844
 30
0.0
 10
372.3445420076083
 20
-211.4795979289009
 30
0.0
 10
372.3445420076083
 20
-211.4795979289009
 30
0.0
 10
372.2601371682197
 20
-211.4692626424452
 30
0.0
 10
372.1753878192825
 20
-211.4654730374114
 30
0.0
 10
372.0940835658307
 20
-211.4654730374114
 30
0.0
 10
370.8135415739633
 20
-211.4654730374114
 30
0.0
 10
369.6883733884807
 20
-212.5875406369573
 30
0.0
 10
369.5154295951211
 20
-214.086846192138
 30
0.0
 10
369.3318060057574
 20
-215.6812363827116
 30
0.0
 10
370.3057344994374
 20
-217.1064723849595
 30
0.0
 10
371.684806222183
 20
-217.2618461913443
 30
0.0
 10
371.684806222183
 20
-217.2618461913443
 30
0.0
 10
377.0729355611138
 20
-218.1579155270578
 30
0.0
 10
377.0729355611138
 20
-218.1579155270578
 30
0.0
 10
377.0729355611138
 20
-218.1579155270578
 30
0.0
 10
378.2652831085587
 20
-243.1589734635158
 30
0.0
 10
378.2652831085587
 20
-243.1589734635158
 30
0.0
 10
378.2652831085587
 20
-243.1589734635158
 30
0.0
 10
378.117144002693
 20
-243.4166666058125
 30
0.0
 10
378.117144002693
 20
-243.4166666058125
 30
0.0
 10
378.117144002693
 20
-243.4166666058125
 30
0.0
 10
344.7937689025168
 20
-243.4166666058125
 30
0.0
 10
344.7937689025168
 20
-243.4166666058125
 30
0.0
  0
ENDSEC
  0
SECTION
  2
OBJECTS
  0
DICTIONARY
  5
C
330
0
100
AcDbDictionary
281
     1
  3
ACAD_GROUP
350
D
  3
ACAD_LAYOUT
350
1A
  3
ACAD_MLINESTYLE
350
17
  3
ACAD_PLOTSETTINGS
350
19
  3
ACAD_PLOTSTYLENAME
350
E
  3
ACAD_TABLESTYLE
350
BC
  3
ACAD_VISUALSTYLE
350
2A
  0
DICTIONARY
  5
D
102
{ACAD_REACTORS
330
C
102
}
330
C
100
AcDbDictionary
281
     1
  0
DICTIONARY
  5
1A
102
{ACAD_REACTORS
330
C
102
}
330
C
100
AcDbDictionary
281
     1
  3
Layout1
350
1E
  3
Layout2
350
26
  3
Model
350
22
  0
DICTIONARY
  5
17
102
{ACAD_REACTORS
330
C
102
}
330
C
100
AcDbDictionary
281
     1
  3
Standard
350
18
  0
DICTIONARY
  5
19
102
{ACAD_REACTORS
330
C
102
}
330
C
100
AcDbDictionary
281
     1
  0
ACDBDICTIONARYWDFLT
  5
E
102
{ACAD_REACTORS
330
C
102
}
330
C
100
AcDbDictionary
281
     1
  3
Normal
350
F
100
AcDbDictionaryWithDefault
340
F
  0
DICTIONARY
  5
BC
102
{ACAD_REACTORS
330
C
102
}
330
C
100
AcDbDictionary
281
     1
  0
DICTIONARY
  5
2A
102
{ACAD_REACTORS
330
C
102
}
330
C
100
AcDbDictionary
281
     1
  3
2dWireframe
350
2F
  3
3D Hidden
350
31
  3
3dWireframe
350
30
  3
Basic
350
32
  3
Brighten
350
36
  3
ColorChange
350
3A
  3
Conceptual
350
34
  3
Dim
350
35
  3
Facepattern
350
39
  3
Flat
350
2B
  3
FlatWithEdges
350
2C
  3
Gouraud
350
2D
  3
GouraudWithEdges
350
2E
  3
Linepattern
350
38
  3
Realistic
350
33
  3
Thicken
350
37
  0
LAYOUT
  5
1E
102
{ACAD_REACTORS
330
1A
102
}
330
1A
100
AcDbPlotSettings
  1

  2
none_device
  4

  6

 40
0.0
 41
0.0
 42
0.0
 43
0.0
 44
0.0
 45
0.0
 46
0.0
 47
0.0
 48
0.0
 49
0.0
140
0.0
141
0.0
142
1.0
143
1.0
 70
   688
 72
     0
 73
     0
 74
     5
  7

 75
    16
 76
     0
 77
     2
 78
   300
147
1.0
148
0.0
149
0.0
100
AcDbLayout
  1
Layout1
 70
     1
 71
     1
 10
0.0
 20
0.0
 11
12.0
 21
9.0
 12
0.0
 22
0.0
 32
0.0
 14
1.000000000000000E+20
 24
1.000000000000000E+20
 34
1.000000000000000E+20
 15
-1.000000000000000E+20
 25
-1.000000000000000E+20
 35
-1.000000000000000E+20
146
0.0
 13
0.0
 23
0.0
 33
0.0
 16
1.0
 26
0.0
 36
0.0
 17
0.0
 27
1.0
 37
0.0
 76
     0
330
1B
  0
LAYOUT
  5
26
102
{ACAD_REACTORS
330
1A
102
}
330
1A
100
AcDbPlotSettings
  1

  2
none_device
  4

  6

 40
0.0
 41
0.0
 42
0.0
 43
0.0
 44
0.0
 45
0.0
 46
0.0
 47
0.0
 48
0.0
 49
0.0
140
0.0
141
0.0
142
1.0
143
1.0
 70
   688
 72
     0
 73
     0
 74
     5
  7

 75
    16
 76
     0
 77
     2
 78
   300
147
1.0
148
0.0
149
0.0
100
AcDbLayout
  1
Layout2
 70
     1
 71
     2
 10
0.0
 20
0.0
 11
0.0
 21
0.0
 12
0.0
 22
0.0
 32
0.0
 14
0.0
 24
0.0
 34
0.0
 15
0.0
 25
0.0
 35
0.0
146
0.0
 13
0.0
 23
0.0
 33
0.0
 16
1.0
 26
0.0
 36
0.0
 17
0.0
 27
1.0
 37
0.0
 76
     0
330
23
  0
LAYOUT
  5
22
102
{ACAD_REACTORS
330
1A
102
}
330
1A
100
AcDbPlotSettings
  1

  2
none_device
  4

  6

 40
0.0
 41
0.0
 42
0.0
 43
0.0
 44
0.0
 45
0.0
 46
0.0
 47
0.0
 48
0.0
 49
0.0
140
0.0
141
0.0
142
1.0
143
1.0
 70
  1712
 72
     0
 73
     0
 74
     0
  7

 75
     0
 76
     0
 77
     2
 78
   300
147
1.0
148
0.0
149
0.0
100
AcDbLayout
  1
Model
 70
     1
 71
     0
 10
0.0
 20
0.0
 11
12.0
 21
9.0
 12
0.0
 22
0.0
 32
0.0
 14
1.000000000000000E+20
 24
1.000000000000000E+20
 34
1.000000000000000E+20
 15
-1.000000000000000E+20
 25
-1.000000000000000E+20
 35
-1.000000000000000E+20
146
0.0
 13
0.0
 23
0.0
 33
0.0
 16
1.0
 26
0.0
 36
0.0
 17
0.0
 27
1.0
 37
0.0
 76
     0
330
1F
331
29
  0
MLINESTYLE
  5
18
102
{ACAD_REACTORS
330
17
102
}
330
17
100
AcDbMlineStyle
  2
Standard
 70
     0
  3

 62
   256
 51
90.0
 52
90.0
 71
     2
 49
0.5
 62
   256
  6
BYLAYER
 49
-0.5
 62
   256
  6
BYLAYER
  0
ACDBPLACEHOLDER
  5
F
102
{ACAD_REACTORS
330
E
102
}
330
E
  0
VISUALSTYLE
  5
2F
102
{ACAD_REACTORS
330
2A
102
}
330
2A
100
AcDbVisualStyle
  2
2dWireframe
 70
     4
 71
     0
 72
     2
 73
     0
 90
        0
 40
-0.6
 41
-30.0
 62
     5
 63
     7
421
 16777215
 74
     1
 91
        4
 64
     7
 65
   257
 75
     1
175
     1
 42
1.0
 92
        0
 66
   257
 43
1.0
 76
     1
 77
     6
 78
     2
 67
     7
 79
     5
170
     0
171
     0
290
     0
174
     0
 93
        1
 44
0.0
173
     0
291
     0
 45
0.0
1001
ACAD
1000
AcDbSavedByObjectVersion
1070
     0
  0
VISUALSTYLE
  5
31
102
{ACAD_REACTORS
330
2A
102
}
330
2A
100
AcDbVisualStyle
  2
3D Hidden
 70
     6
 71
     1
 72
     2
 73
     2
 90
        0
 40
-0.6
 41
-30.0
 62
     5
 63
     7
421
 16777215
 74
     2
 91
        2
 64
     7
 65
   257
 75
     2
175
     1
 42
40.0
 92
        0
 66
   257
 43
1.0
 76
     1
 77
     6
 78
     2
 67
     7
 79
     3
170
     0
171
     0
290
     0
174
     0
 93
        1
 44
0.0
173
     0
291
     0
 45
0.0
1001
ACAD
1000
AcDbSavedByObjectVersion
1070
     0
  0
VISUALSTYLE
  5
30
102
{ACAD_REACTORS
330
2A
102
}
330
2A
100
AcDbVisualStyle
  2
3dWireframe
 70
     5
 71
     0
 72
     2
 73
     0
 90
        0
 40
-0.6
 41
-30.0
 62
     5
 63
     7
421
 16777215
 74
     1
 91
        4
 64
     7
 65
   257
 75
     1
175
     1
 42
1.0
 92
        0
 66
   257
 43
1.0
 76
     1
 77
     6
 78
     2
 67
     7
 79
     5
170
     0
171
     0
290
     0
174
     0
 93
        1
 44
0.0
173
     0
291
     0
 45
0.0
1001
ACAD
1000
AcDbSavedByObjectVersion
1070
     0
  0
VISUALSTYLE
  5
32
102
{ACAD_REACTORS
330
2A
102
}
330
2A
100
AcDbVisualStyle
  2
Basic
 70
     7
 71
     1
 72
     0
 73
     1
 90
        0
 40
-0.6
 41
-30.0
 62
     5
 63
     7
421
 16777215
 74
     0
 91
        4
 64
     7
 65
   257
 75
     1
175
     1
 42
1.0
 92
        8
 66
     7
 43
1.0
 76
     1
 77
     6
 78
     2
 67
     7
 79
     5
170
     0
171
     0
290
     0
174
     0
 93
        1
 44
0.0
173
     0
291
     1
 45
0.0
1001
ACAD
1000
AcDbSavedByObjectVersion
1070
     0
  0
VISUALSTYLE
  5
36
102
{ACAD_REACTORS
330
2A
102
}
330
2A
100
AcDbVisualStyle
  2
Brighten
 70
    12
 71
     2
 72
     2
 73
     0
 90
        0
 40
-0.6
 41
-30.0
 62
     5
 63
     7
421
 16777215
 74
     1
 91
        4
 64
     7
 65
   257
 75
     1
175
     1
 42
1.0
 92
        8
 66
     7
 43
1.0
 76
     1
 77
     6
 78
     2
 67
     7
 79
     5
170
     0
171
     0
290
     0
174
     0
 93
        1
 44
50.0
173
     0
291
     1
 45
0.0
1001
ACAD
1000
AcDbSavedByObjectVersion
1070
     0
  0
VISUALSTYLE
  5
3A
102
{ACAD_REACTORS
330
2A
102
}
330
2A
100
AcDbVisualStyle
  2
ColorChange
 70
    16
 71
     2
 72
     2
 73
     3
 90
        0
 40
-0.6
 41
-30.0
 62
     5
 63
     8
421
  8421504
 74
     1
 91
        4
 64
     7
 65
   257
 75
     1
175
     1
 42
1.0
 92
        8
 66
     8
424
  8421504
 43
1.0
 76
     1
 77
     6
 78
     2
 67
     7
 79
     5
170
     0
171
     0
290
     0
174
     0
 93
        1
 44
0.0
173
     0
291
     1
 45
0.0
1001
ACAD
1000
AcDbSavedByObjectVersion
1070
     0
  0
VISUALSTYLE
  5
34
102
{ACAD_REACTORS
330
2A
102
}
330
2A
100
AcDbVisualStyle
  2
Conceptual
 70
     9
 71
     3
 72
     2
 73
     0
 90
        0
 40
-0.6
 41
-30.0
 62
     5
 63
     7
421
 16777215
 74
     2
 91
        2
 64
     7
 65
   257
 75
     1
175
     1
 42
40.0
 92
        8
 66
     7
 43
1.0
 76
     1
 77
     6
 78
     2
 67
     7
 79
     3
170
     0
171
     0
290
     0
174
     0
 93
        1
 44
0.0
173
     0
291
     0
 45
0.0
1001
ACAD
1000
AcDbSavedByObjectVersion
1070
     0
  0
VISUALSTYLE
  5
35
102
{ACAD_REACTORS
330
2A
102
}
330
2A
100
AcDbVisualStyle
  2
Dim
 70
    11
 71
     2
 72
     2
 73
     0
 90
        0
 40
-0.6
 41
-30.0
 62
     5
 63
     7
421
 16777215
 74
     1
 91
        4
 64
     7
 65
   257
 75
     1
175
     1
 42
1.0
 92
        8
 66
     7
 43
1.0
 76
     1
 77
     6
 78
     2
 67
     7
 79
     5
170
     0
171
     0
290
     0
174
     0
 93
        1
 44
-50.0
173
     0
291
     1
 45
0.0
1001
ACAD
1000
AcDbSavedByObjectVersion
1070
     0
  0
VISUALSTYLE
  5
39
102
{ACAD_REACTORS
330
2A
102
}
330
2A
100
AcDbVisualStyle
  2
Facepattern
 70
    15
 71
     2
 72
     2
 73
     0
 90
        0
 40
-0.6
 41
-30.0
 62
     5
 63
     7
421
 16777215
 74
     1
 91
        4
 64
     7
 65
   257
 75
     1
175
     1
 42
1.0
 92
        8
 66
     7
 43
1.0
 76
     1
 77
     6
 78
     2
 67
     7
 79
     5
170
     0
171
     0
290
     0
174
     0
 93
        1
 44
0.0
173
     0
291
     1
 45
0.0
1001
ACAD
1000
AcDbSavedByObjectVersion
1070
     0
  0
VISUALSTYLE
  5
2B
102
{ACAD_REACTORS
330
2A
102
}
330
2A
100
AcDbVisualStyle
  2
Flat
 70
     0
 71
     2
 72
     1
 73
     1
 90
        2
 40
-0.6
 41
30.0
 62
     5
 63
     7
421
 16777215
 74
     0
 91
        4
 64
     7
 65
   257
 75
     1
175
     1
 42
1.0
 92
        8
 66
     7
 43
1.0
 76
     1
 77
     6
 78
     2
 67
     7
 79
     5
170
     0
171
     0
290
     0
174
     0
 93
       13
 44
0.0
173
     0
291
     1
 45
0.0
1001
ACAD
1000
AcDbSavedByObjectVersion
1070
     0
  0
VISUALSTYLE
  5
2C
102
{ACAD_REACTORS
330
2A
102
}
330
2A
100
AcDbVisualStyle
  2
FlatWithEdges
 70
     1
 71
     2
 72
     1
 73
     1
 90
        2
 40
-0.6
 41
30.0
 62
     5
 63
     7
421
 16777215
 74
     1
 91
        4
 64
     7
 65
   257
 75
     1
175
     1
 42
1.0
 92
        0
 66
   257
 43
1.0
 76
     1
 77
     6
 78
     2
 67
     7
 79
     5
170
     0
171
     0
290
     0
174
     0
 93
       13
 44
0.0
173
     0
291
     1
 45
0.0
1001
ACAD
1000
AcDbSavedByObjectVersion
1070
     0
  0
VISUALSTYLE
  5
2D
102
{ACAD_REACTORS
330
2A
102
}
330
2A
100
AcDbVisualStyle
  2
Gouraud
 70
     2
 71
     2
 72
     2
 73
     1
 90
        2
 40
-0.6
 41
30.0
 62
     5
 63
     7
421
 16777215
 74
     0
 91
        4
 64
     7
 65
   257
 75
     1
175
     1
 42
1.0
 92
        0
 66
     7
 43
1.0
 76
     1
 77
     6
 78
     2
 67
     7
 79
     5
170
     0
171
     0
290
     0
174
     0
 93
       13
 44
0.0
173
     0
291
     1
 45
0.0
1001
ACAD
1000
AcDbSavedByObjectVersion
1070
     0
  0
VISUALSTYLE
  5
2E
102
{ACAD_REACTORS
330
2A
102
}
330
2A
100
AcDbVisualStyle
  2
GouraudWithEdges
 70
     3
 71
     2
 72
     2
 73
     1
 90
        2
 40
-0.6
 41
30.0
 62
     5
 63
     7
421
 16777215
 74
     1
 91
        4
 64
     7
 65
   257
 75
     1
175
     1
 42
1.0
 92
        0
 66
   257
 43
1.0
 76
     1
 77
     6
 78
     2
 67
     7
 79
     5
170
     0
171
     0
290
     0
174
     0
 93
       13
 44
0.0
173
     0
291
     1
 45
0.0
1001
ACAD
1000
AcDbSavedByObjectVersion
1070
     0
  0
VISUALSTYLE
  5
38
102
{ACAD_REACTORS
330
2A
102
}
330
2A
100
AcDbVisualStyle
  2
Linepattern
 70
    14
 71
     2
 72
     2
 73
     0
 90
        0
 40
-0.6
 41
-30.0
 62
     5
 63
     7
421
 16777215
 74
     1
 91
        4
 64
     7
 65
   257
 75
     7
175
     7
 42
1.0
 92
        8
 66
     7
 43
1.0
 76
     1
 77
     6
 78
     2
 67
     7
 79
     5
170
     0
171
     0
290
     0
174
     0
 93
        1
 44
0.0
173
     0
291
     1
 45
0.0
1001
ACAD
1000
AcDbSavedByObjectVersion
1070
     0
  0
VISUALSTYLE
  5
33
102
{ACAD_REACTORS
330
2A
102
}
330
2A
100
AcDbVisualStyle
  2
Realistic
 70
     8
 71
     2
 72
     2
 73
     0
 90
        0
 40
-0.6
 41
-30.0
 62
     5
 63
     7
421
 16777215
 74
     1
 91
        0
 64
     7
 65
   257
 75
     1
175
     1
 42
1.0
 92
        8
 66
     8
424
  7895160
 43
1.0
 76
     1
 77
     6
 78
     2
 67
     7
 79
     5
170
     0
171
     0
290
     0
174
     0
 93
       13
 44
0.0
173
     0
291
     0
 45
0.0
1001
ACAD
1000
AcDbSavedByObjectVersion
1070
     0
  0
VISUALSTYLE
  5
37
102
{ACAD_REACTORS
330
2A
102
}
330
2A
100
AcDbVisualStyle
  2
Thicken
 70
    13
 71
     2
 72
     2
 73
     0
 90
        0
 40
-0.6
 41
-30.0
 62
     5
 63
     7
421
 16777215
 74
     1
 91
        4
 64
     7
 65
   257
 75
     1
175
     1
 42
1.0
 92
       12
 66
     7
 43
1.0
 76
     1
 77
     6
 78
     2
 67
     7
 79
     5
170
     0
171
     0
290
     0
174
     0
 93
        1
 44
0.0
173
     0
291
     1
 45
0.0
1001
ACAD
1000
AcDbSavedByObjectVersion
1070
     0
  0
ENDSEC
  0
EOF
