  0
SECTION
  2
HEADER
  9
$ACADVER
  1
AC1014
  9
$ACADMAINTVER
 70
     9
  9
$DWGCODEPAGE
  3
ANSI_932
  9
$INSBASE
 10
0.0
 20
0.0
 30
0.0
  9
$EXTMIN
 10
1.000000000000000E+20
 20
1.000000000000000E+20
 30
1.000000000000000E+20
  9
$EXTMAX
 10
-1.000000000000000E+20
 20
-1.000000000000000E+20
 30
-1.000000000000000E+20
  9
$LIMMIN
 10
0.0
 20
0.0
  9
$LIMMAX
 10
12.0
 20
9.0
  9
$ORTHOMODE
 70
     0
  9
$REGENMODE
 70
     1
  9
$FILLMODE
 70
     1
  9
$QTEXTMODE
 70
     0
  9
$MIRRTEXT
 70
     1
  9
$DRAGMODE
 70
     2
  9
$LTSCALE
 40
1.0
  9
$OSMODE
 70
    37
  9
$ATTMODE
 70
     1
  9
$TEXTSIZE
 40
0.2
  9
$TRACEWID
 40
0.05
  9
$TEXTSTYLE
  7
STANDARD
  9
$CLAYER
  8
0
  9
$CELTYPE
  6
BYLAYER
  9
$CECOLOR
 62
   256
  9
$CELTSCALE
 40
1.0
  9
$DELOBJ
 70
     1
  9
$DISPSILH
 70
     0
  9
$DIMSCALE
 40
1.0
  9
$DIMASZ
 40
0.18
  9
$DIMEXO
 40
0.0625
  9
$DIMDLI
 40
0.38
  9
$DIMRND
 40
0.0
  9
$DIMDLE
 40
0.0
  9
$DIMEXE
 40
0.18
  9
$DIMTP
 40
0.0
  9
$DIMTM
 40
0.0
  9
$DIMTXT
 40
0.18
  9
$DIMCEN
 40
0.09
  9
$DIMTSZ
 40
0.0
  9
$DIMTOL
 70
     0
  9
$DIMLIM
 70
     0
  9
$DIMTIH
 70
     1
  9
$DIMTOH
 70
     1
  9
$DIMSE1
 70
     0
  9
$DIMSE2
 70
     0
  9
$DIMTAD
 70
     0
  9
$DIMZIN
 70
     0
  9
$DIMBLK
  1

  9
$DIMASO
 70
     1
  9
$DIMSHO
 70
     1
  9
$DIMPOST
  1

  9
$DIMAPOST
  1

  9
$DIMALT
 70
     0
  9
$DIMALTD
 70
     2
  9
$DIMALTF
 40
25.4
  9
$DIMLFAC
 40
1.0
  9
$DIMTOFL
 70
     0
  9
$DIMTVP
 40
0.0
  9
$DIMTIX
 70
     0
  9
$DIMSOXD
 70
     0
  9
$DIMSAH
 70
     0
  9
$DIMBLK1
  1

  9
$DIMBLK2
  1

  9
$DIMSTYLE
  2
STANDARD
  9
$DIMCLRD
 70
     0
  9
$DIMCLRE
 70
     0
  9
$DIMCLRT
 70
     0
  9
$DIMTFAC
 40
1.0
  9
$DIMGAP
 40
0.09
  9
$DIMJUST
 70
     0
  9
$DIMSD1
 70
     0
  9
$DIMSD2
 70
     0
  9
$DIMTOLJ
 70
     1
  9
$DIMTZIN
 70
     0
  9
$DIMALTZ
 70
     0
  9
$DIMALTTZ
 70
     0
  9
$DIMFIT
 70
     3
  9
$DIMUPT
 70
     0
  9
$DIMUNIT
 70
     2
  9
$DIMDEC
 70
     4
  9
$DIMTDEC
 70
     4
  9
$DIMALTU
 70
     2
  9
$DIMALTTD
 70
     2
  9
$DIMTXSTY
  7
STANDARD
  9
$DIMAUNIT
 70
     0
  9
$LUNITS
 70
     2
  9
$LUPREC
 70
     4
  9
$SKETCHINC
 40
0.1
  9
$FILLETRAD
 40
0.5
  9
$AUNITS
 70
     0
  9
$AUPREC
 70
     0
  9
$MENU
  1
.
  9
$ELEVATION
 40
0.0
  9
$PELEVATION
 40
0.0
  9
$THICKNESS
 40
0.0
  9
$LIMCHECK
 70
     0
  9
$CHAMFERA
 40
0.5
  9
$CHAMFERB
 40
0.5
  9
$CHAMFERC
 40
1.0
  9
$CHAMFERD
 40
0.0
  9
$SKPOLY
 70
     0
  9
$TDCREATE
 40
2457399.56037037
  9
$TDUPDATE
 40
2457399.560370382
  9
$TDINDWG
 40
0.0000000116
  9
$TDUSRTIMER
 40
0.0000000116
  9
$USRTIMER
 70
     1
  9
$ANGBASE
 50
0.0
  9
$ANGDIR
 70
     0
  9
$PDMODE
 70
     0
  9
$PDSIZE
 40
0.0
  9
$PLINEWID
 40
0.0
  9
$COORDS
 70
     1
  9
$SPLFRAME
 70
     0
  9
$SPLINETYPE
 70
     6
  9
$SPLINESEGS
 70
     8
  9
$ATTDIA
 70
     0
  9
$ATTREQ
 70
     1
  9
$HANDLING
 70
     1
  9
$HANDSEED
  5
BB
  9
$SURFTAB1
 70
     6
  9
$SURFTAB2
 70
     6
  9
$SURFTYPE
 70
     6
  9
$SURFU
 70
     6
  9
$SURFV
 70
     6
  9
$UCSNAME
  2

  9
$UCSORG
 10
0.0
 20
0.0
 30
0.0
  9
$UCSXDIR
 10
1.0
 20
0.0
 30
0.0
  9
$UCSYDIR
 10
0.0
 20
1.0
 30
0.0
  9
$PUCSNAME
  2

  9
$PUCSORG
 10
0.0
 20
0.0
 30
0.0
  9
$PUCSXDIR
 10
1.0
 20
0.0
 30
0.0
  9
$PUCSYDIR
 10
0.0
 20
1.0
 30
0.0
  9
$USERI1
 70
     0
  9
$USERI2
 70
     0
  9
$USERI3
 70
     0
  9
$USERI4
 70
     0
  9
$USERI5
 70
     0
  9
$USERR1
 40
0.0
  9
$USERR2
 40
0.0
  9
$USERR3
 40
0.0
  9
$USERR4
 40
0.0
  9
$USERR5
 40
0.0
  9
$WORLDVIEW
 70
     1
  9
$SHADEDGE
 70
     3
  9
$SHADEDIF
 70
    70
  9
$TILEMODE
 70
     1
  9
$MAXACTVP
 70
    64
  9
$PINSBASE
 10
0.0
 20
0.0
 30
0.0
  9
$PLIMCHECK
 70
     0
  9
$PEXTMIN
 10
1.000000000000000E+20
 20
1.000000000000000E+20
 30
1.000000000000000E+20
  9
$PEXTMAX
 10
-1.000000000000000E+20
 20
-1.000000000000000E+20
 30
-1.000000000000000E+20
  9
$PLIMMIN
 10
0.0
 20
0.0
  9
$PLIMMAX
 10
12.0
 20
9.0
  9
$UNITMODE
 70
     0
  9
$VISRETAIN
 70
     1
  9
$PLINEGEN
 70
     0
  9
$PSLTSCALE
 70
     1
  9
$TREEDEPTH
 70
  3020
  9
$PICKSTYLE
 70
     1
  9
$CMLSTYLE
  2
STANDARD
  9
$CMLJUST
 70
     0
  9
$CMLSCALE
 40
1.0
  9
$PROXYGRAPHICS
 70
     1
  9
$MEASUREMENT
 70
     0
  0
ENDSEC
  0
SECTION
  2
CLASSES
  0
CLASS
  1
ACDBDICTIONARYWDFLT
  2
AcDbDictionaryWithDefault
  3
ObjectDBX Classes
 90
        0
280
     0
281
     0
  0
CLASS
  1
VISUALSTYLE
  2
AcDbVisualStyle
  3
ObjectDBX Classes
 90
     4095
280
     0
281
     0
  0
CLASS
  1
XRECORD
  2
AcDbXrecord
  3
AutoCAD 2000
 90
        0
280
     0
281
     0
  0
CLASS
  1
LWPOLYLINE
  2
AcDbPolyline
  3
AutoCAD 2000
 90
        0
280
     0
281
     1
  0
CLASS
  1
HATCH
  2
AcDbHatch
  3
AutoCAD 2000
 90
        0
280
     0
281
     1
  0
CLASS
  1
ACDBPLACEHOLDER
  2
AcDbPlaceHolder
  3
ObjectDBX Classes
 90
        0
280
     0
281
     0
  0
CLASS
  1
LAYOUT
  2
AcDbLayout
  3
ObjectDBX Classes
 90
        0
280
     0
281
     0
  0
ENDSEC
  0
SECTION
  2
TABLES
  0
TABLE
  2
VPORT
  5
8
330
0
100
AcDbSymbolTable
 70
     1
  0
VPORT
  5
29
330
8
100
AcDbSymbolTableRecord
100
AcDbViewportTableRecord
  2
*ACTIVE
 70
     0
 10
0.0
 20
0.0
 11
1.0
 21
1.0
 12
0.0
 22
0.0
 13
0.0
 23
0.0
 14
0.5
 24
0.5
 15
0.5
 25
0.5
 16
0.0
 26
0.0
 36
1.0
 17
302.4902356557143
 27
-226.5702358103279
 37
0.0
 40
188.3776488786868
 41
1.314282474654787
 42
50.0
 43
0.0
 44
0.0
 50
0.0
 51
0.0
 71
     0
 72
   100
 73
     1
 74
     3
 75
     0
 76
     0
 77
     0
 78
     0
  0
ENDTAB
  0
TABLE
  2
LTYPE
  5
5
330
0
100
AcDbSymbolTable
 70
     1
  0
LTYPE
  5
14
330
5
100
AcDbSymbolTableRecord
100
AcDbLinetypeTableRecord
  2
BYBLOCK
 70
     0
  3

 72
    65
 73
     0
 40
0.0
  0
LTYPE
  5
15
330
5
100
AcDbSymbolTableRecord
100
AcDbLinetypeTableRecord
  2
BYLAYER
 70
     0
  3

 72
    65
 73
     0
 40
0.0
  0
LTYPE
  5
16
330
5
100
AcDbSymbolTableRecord
100
AcDbLinetypeTableRecord
  2
CONTINUOUS
 70
     0
  3
Solid line
 72
    65
 73
     0
 40
0.0
  0
ENDTAB
  0
TABLE
  2
LAYER
  5
2
330
0
100
AcDbSymbolTable
 70
     2
  0
LAYER
  5
10
330
2
100
AcDbSymbolTableRecord
100
AcDbLayerTableRecord
  2
0
 70
     0
 62
     7
  6
CONTINUOUS
  0
LAYER
  5
3B
330
2
100
AcDbSymbolTableRecord
100
AcDbLayerTableRecord
  2
EBENE_3
 70
     0
 62
     7
  6
CONTINUOUS
  0
ENDTAB
  0
TABLE
  2
STYLE
  5
3
330
0
100
AcDbSymbolTable
 70
     1
  0
STYLE
  5
11
330
3
100
AcDbSymbolTableRecord
100
AcDbTextStyleTableRecord
  2
STANDARD
 70
     0
 40
0.0
 41
1.0
 50
0.0
 71
     0
 42
0.2
  3
txt
  4

  0
ENDTAB
  0
TABLE
  2
VIEW
  5
6
330
0
100
AcDbSymbolTable
 70
     0
  0
ENDTAB
  0
TABLE
  2
UCS
  5
7
330
0
100
AcDbSymbolTable
 70
     0
  0
ENDTAB
  0
TABLE
  2
APPID
  5
9
330
0
100
AcDbSymbolTable
 70
     1
  0
APPID
  5
12
330
9
100
AcDbSymbolTableRecord
100
AcDbRegAppTableRecord
  2
ACAD
 70
     0
  0
ENDTAB
  0
TABLE
  2
DIMSTYLE
  5
A
330
0
100
AcDbSymbolTable
 70
     1
  0
DIMSTYLE
105
27
330
A
100
AcDbSymbolTableRecord
100
AcDbDimStyleTableRecord
  2
STANDARD
 70
     0
  3

  4

  5

  6

  7

 40
1.0
 41
0.18
 42
0.0625
 43
0.38
 44
0.18
 45
0.0
 46
0.0
 47
0.0
 48
0.0
140
0.18
141
0.09
142
0.0
143
25.4
144
1.0
145
0.0
146
1.0
147
0.09
 71
     0
 72
     0
 73
     1
 74
     1
 75
     0
 76
     0
 77
     0
 78
     0
170
     0
171
     2
172
     0
173
     0
174
     0
175
     0
176
     0
177
     0
178
     0
270
     2
271
     4
272
     4
273
     2
274
     2
340
11
275
     0
280
     0
281
     0
282
     0
283
     1
284
     0
285
     0
286
     0
287
     3
288
     0
  0
ENDTAB
  0
TABLE
  2
BLOCK_RECORD
  5
1
330
0
100
AcDbSymbolTable
 70
     1
  0
BLOCK_RECORD
  5
1F
330
1
100
AcDbSymbolTableRecord
100
AcDbBlockTableRecord
  2
*MODEL_SPACE
  0
BLOCK_RECORD
  5
1B
330
1
100
AcDbSymbolTableRecord
100
AcDbBlockTableRecord
  2
*PAPER_SPACE
  0
ENDTAB
  0
ENDSEC
  0
SECTION
  2
BLOCKS
  0
BLOCK
  5
20
330
1F
100
AcDbEntity
  8
0
100
AcDbBlockBegin
  2
*MODEL_SPACE
 70
     0
 71
     0
 10
0.0
 20
0.0
 30
0.0
  3
*MODEL_SPACE
  1

  0
ENDBLK
  5
21
330
1F
100
AcDbEntity
  8
0
100
AcDbBlockEnd
  0
BLOCK
  5
1C
330
1B
100
AcDbEntity
 67
     1
  8
0
100
AcDbBlockBegin
  2
*PAPER_SPACE
 70
     0
 71
     0
 10
0.0
 20
0.0
 30
0.0
  3
*PAPER_SPACE
  1

  0
ENDBLK
  5
1D
330
1B
100
AcDbEntity
 67
     1
  8
0
100
AcDbBlockEnd
  0
ENDSEC
  0
SECTION
  2
ENTITIES
  0
SPLINE
  5
3C
330
1F
100
AcDbEntity
  8
EBENE_3
100
AcDbSpline
210
0.0
220
0.0
230
1.0
 70
    11
 71
     3
 72
    26
 73
    22
 74
     0
 42
0.0000000001
 43
0.0000000001
 40
0.0
 40
0.0
 40
0.0
 40
0.0
 40
1.0
 40
1.0
 40
1.0
 40
2.0
 40
2.0
 40
2.0
 40
3.0
 40
3.0
 40
3.0
 40
4.0
 40
4.0
 40
4.0
 40
5.0
 40
5.0
 40
5.0
 40
6.0
 40
6.0
 40
6.0
 40
7.0
 40
7.0
 40
7.0
 40
7.0
 10
297.6000948691764
 20
-233.0434840997252
 30
0.0
 10
299.256841288033
 20
-233.1930012437851
 30
0.0
 10
300.415082390174
 20
-233.253290414777
 30
0.0
 10
301.2167561095916
 20
-233.2701713826547
 30
0.0
 10
301.3173528977609
 20
-233.2715494208488
 30
0.0
 10
301.4134710617994
 20
-233.2739609876885
 30
0.0
 10
301.5016655062218
 20
-233.2746500067855
 30
0.0
 10
302.3054062829306
 20
-233.2846407836927
 30
0.0
 10
303.5297932183884
 20
-233.2570800198107
 30
0.0
 10
305.3646510738325
 20
-233.1358126587299
 30
0.0
 10
312.2338269618721
 20
-232.681060054677
 30
0.0
 10
308.4128715591815
 20
-218.6381618377016
 30
0.0
 10
307.0561929570901
 20
-228.8976561927756
 30
0.0
 10
306.8625785908191
 20
-230.3590656976186
 30
0.0
 10
303.4167940864722
 20
-230.5654269171851
 30
0.0
 10
301.5774576068973
 20
-230.578518280029
 30
0.0
 10
299.7773952158543
 20
-230.5282198859443
 30
0.0
 10
296.2193005986882
 20
-230.2588134189978
 30
0.0
 10
296.0112168313792
 20
-228.7657090356905
 30
0.0
 10
294.6683186112288
 20
-219.147002440873
 30
0.0
 10
290.7464219108203
 20
-232.4237114219288
 30
0.0
 10
297.6000948691764
 20
-233.0434840997252
 30
0.0
  0
SPLINE
  5
3D
330
1F
100
AcDbEntity
  8
EBENE_3
100
AcDbSpline
210
0.0
220
0.0
230
1.0
 70
    11
 71
     3
 72
    26
 73
    22
 74
     0
 42
0.0000000001
 43
0.0000000001
 40
0.0
 40
0.0
 40
0.0
 40
0.0
 40
1.0
 40
1.0
 40
1.0
 40
2.0
 40
2.0
 40
2.0
 40
3.0
 40
3.0
 40
3.0
 40
4.0
 40
4.0
 40
4.0
 40
5.0
 40
5.0
 40
5.0
 40
6.0
 40
6.0
 40
6.0
 40
7.0
 40
7.0
 40
7.0
 40
7.0
 10
296.1517767271773
 20
-241.1404920187079
 30
0.0
 10
298.5550753376876
 20
-241.2989664110294
 30
0.0
 10
300.2355929153925
 20
-241.3654567538948
 30
0.0
 10
301.3976236225673
 20
-241.3864718363548
 30
0.0
 10
301.5440401806904
 20
-241.3888834031945
 30
0.0
 10
301.6832220382945
 20
-241.3916394795827
 30
0.0
 10
301.8113795903458
 20
-241.3930175177768
 30
0.0
 10
302.9765108834573
 20
-241.4071424092663
 30
0.0
 10
304.752113096555
 20
-241.3861273268062
 30
0.0
 10
307.412415830265
 20
-241.2748507426327
 30
0.0
 10
317.3714978590252
 20
-240.8569606602719
 30
0.0
 10
311.7546141798738
 20
-226.7927028512879
 30
0.0
 10
309.8425861855602
 20
-237.0453070153915
 30
0.0
 10
309.5697346231284
 20
-238.5060275011374
 30
0.0
 10
304.5740016599676
 20
-238.693440695535
 30
0.0
 10
301.9064642257387
 20
-238.6968857910202
 30
0.0
 10
299.2957708670164
 20
-238.6365966200284
 30
0.0
 10
294.1343288110151
 20
-238.348242127913
 30
0.0
 10
293.8249592364396
 20
-236.8537597064116
 30
0.0
 10
291.8254258168006
 20
-227.2271293919779
 30
0.0
 10
286.2095756662948
 20
-240.4838568192193
 30
0.0
 10
296.1517767271773
 20
-241.1404920187079
 30
0.0
  0
SPLINE
  5
3E
330
1F
100
AcDbEntity
  8
EBENE_3
100
AcDbSpline
210
0.0
220
0.0
230
1.0
 70
    11
 71
     3
 72
    26
 73
    22
 74
     0
 42
0.0000000001
 43
0.0000000001
 40
0.0
 40
0.0
 40
0.0
 40
0.0
 40
1.0
 40
1.0
 40
1.0
 40
2.0
 40
2.0
 40
2.0
 40
3.0
 40
3.0
 40
3.0
 40
4.0
 40
4.0
 40
4.0
 40
5.0
 40
5.0
 40
5.0
 40
6.0
 40
6.0
 40
6.0
 40
7.0
 40
7.0
 40
7.0
 40
7.0
 10
294.4051133161557
 20
-146.8685546507829
 30
0.0
 10
297.4746933935133
 20
-146.9980902410283
 30
0.0
 10
299.6189208235328
 20
-147.0452880491762
 30
0.0
 10
301.1027234490299
 20
-147.0521782401467
 30
0.0
 10
301.2891031147819
 20
-147.0521782401467
 30
0.0
 10
301.4675590609178
 20
-147.0535562783408
 30
0.0
 10
301.6308565869187
 20
-147.0535562783408
 30
0.0
 10
303.1184488174496
 20
-147.0535562783408
 30
0.0
 10
305.3839436085499
 20
-147.0115261134207
 30
0.0
 10
308.7766736424239
 20
-146.8685546507829
 30
0.0
 10
321.4790852060886
 20
-146.3314642646324
 30
0.0
 10
314.0969346002952
 20
-133.3944416984222
 30
0.0
 10
311.8131808031231
 20
-143.6697834927284
 30
0.0
 10
311.4872747702184
 20
-145.132915545314
 30
0.0
 10
305.1148816511518
 20
-144.3212510489891
 30
0.0
 10
301.7104382926279
 20
-144.3563910229387
 30
0.0
 10
298.3779974297458
 20
-144.3277967304111
 30
0.0
 10
291.7875297664629
 20
-145.160476309196
 30
0.0
 10
291.3686061554565
 20
-143.6697834927284
 30
0.0
 10
288.6700628618603
 20
-134.0679578657886
 30
0.0
 10
281.7064913575248
 20
-146.3314642646324
 30
0.0
 10
294.4051133161557
 20
-146.8685546507829
 30
0.0
  0
SPLINE
  5
3F
330
1F
100
AcDbEntity
  8
EBENE_3
100
AcDbSpline
210
0.0
220
0.0
230
1.0
 70
    11
 71
     3
 72
    56
 73
    52
 74
     0
 42
0.0000000001
 43
0.0000000001
 40
0.0
 40
0.0
 40
0.0
 40
0.0
 40
1.0
 40
1.0
 40
1.0
 40
2.0
 40
2.0
 40
2.0
 40
3.0
 40
3.0
 40
3.0
 40
4.0
 40
4.0
 40
4.0
 40
5.0
 40
5.0
 40
5.0
 40
6.0
 40
6.0
 40
6.0
 40
7.0
 40
7.0
 40
7.0
 40
8.0
 40
8.0
 40
8.0
 40
9.0
 40
9.0
 40
9.0
 40
10.0
 40
10.0
 40
10.0
 40
11.0
 40
11.0
 40
11.0
 40
12.0
 40
12.0
 40
12.0
 40
13.0
 40
13.0
 40
13.0
 40
14.0
 40
14.0
 40
14.0
 40
15.0
 40
15.0
 40
15.0
 40
16.0
 40
16.0
 40
16.0
 40
17.0
 40
17.0
 40
17.0
 40
17.0
 10
309.7881536768933
 20
-197.4883761442043
 30
0.0
 10
309.2062770494346
 20
-197.5204155322171
 30
0.0
 10
308.6557507908917
 20
-197.5486653151962
 30
0.0
 10
308.130373729391
 20
-197.5731254931414
 30
0.0
 10
308.1830836903154
 20
-197.3474717388576
 30
0.0
 10
308.2113334732944
 20
-197.1039034880504
 30
0.0
 10
308.2113334732944
 20
-196.8499999507875
 30
0.0
 10
308.2113334732944
 20
-195.5480983669116
 30
0.0
 10
307.4740830394509
 20
-194.4969997343619
 30
0.0
 10
306.5638888122479
 20
-194.4969997343619
 30
0.0
 10
305.6536945850449
 20
-194.4969997343619
 30
0.0
 10
304.9164441512015
 20
-195.5480983669116
 30
0.0
 10
304.9164441512015
 20
-196.8499999507875
 30
0.0
 10
304.9164441512015
 20
-197.146278162519
 30
0.0
 10
304.9553737301848
 20
-197.4322210877947
 30
0.0
 10
305.0294432831176
 20
-197.6930148160282
 30
0.0
 10
303.7523463867356
 20
-197.7353894904967
 30
0.0
 10
302.7363877281354
 20
-197.7495143819862
 30
0.0
 10
301.9285128368443
 20
-197.7495143819862
 30
0.0
 10
301.7483343429657
 20
-197.7495143819862
 30
0.0
 10
301.5509303716609
 20
-197.746069286501
 30
0.0
 10
301.346291699837
 20
-197.746069286501
 30
0.0
 10
300.407847689655
 20
-197.738834585982
 30
0.0
 10
299.2330701291848
 20
-197.7143744080367
 30
0.0
 10
297.7585692614979
 20
-197.6613199375638
 30
0.0
 10
297.8257486234602
 20
-197.4108614957862
 30
0.0
 10
297.8608885974098
 20
-197.1355983665147
 30
0.0
 10
297.8608885974098
 20
-196.8499999507875
 30
0.0
 10
297.8608885974098
 20
-195.5480983669116
 30
0.0
 10
297.1236381635663
 20
-194.4969997343619
 30
0.0
 10
296.2168890318486
 20
-194.4969997343619
 30
0.0
 10
295.3066948046456
 20
-194.4969997343619
 30
0.0
 10
294.5694443708021
 20
-195.5480983669116
 30
0.0
 10
294.5694443708021
 20
-196.8499999507875
 30
0.0
 10
294.5694443708021
 20
-197.0828884055904
 30
0.0
 10
294.5942490582959
 20
-197.3085421598743
 30
0.0
 10
294.6400688282497
 20
-197.5204155322171
 30
0.0
 10
294.4247503604216
 20
-197.5131808316981
 30
0.0
 10
294.2059867971083
 20
-197.4990559402086
 30
0.0
 10
293.9803330428244
 20
-197.4883761442043
 30
0.0
 10
280.0139159456215
 20
-196.7301106279008
 30
0.0
 10
287.6727077188805
 20
-180.1361192040979
 30
0.0
 10
290.6396239507776
 20
-193.6825791616488
 30
0.0
 10
291.1016112553496
 20
-195.7854654458453
 30
0.0
 10
297.9983479072712
 20
-191.1587022091548
 30
0.0
 10
301.6639295035771
 20
-191.2010768836234
 30
0.0
 10
305.4066812387525
 20
-191.1514675086358
 30
0.0
 10
312.7691948002799
 20
-195.746535866862
 30
0.0
 10
313.1254176734548
 20
-193.6825791616488
 30
0.0
 10
315.6410263967842
 20
-179.1869953979116
 30
0.0
 10
323.7583603791299
 20
-196.7301106279008
 30
0.0
 10
309.7881536768933
 20
-197.4883761442043
 30
0.0
  0
POLYLINE
  5
40
330
1F
100
AcDbEntity
  8
EBENE_3
100
AcDb2dPolyline
 66
     1
 10
0.0
 20
0.0
 30
0.0
  0
VERTEX
  5
41
330
40
100
AcDbEntity
  8
EBENE_3
100
AcDbVertex
100
AcDb2dVertex
 10
268.8325140386947
 20
-220.2766492504864
 30
0.0
  0
VERTEX
  5
42
330
40
100
AcDbEntity
  8
EBENE_3
100
AcDbVertex
100
AcDb2dVertex
 10
268.8325140386947
 20
-239.2763508516393
 30
0.0
  0
VERTEX
  5
43
330
40
100
AcDbEntity
  8
EBENE_3
100
AcDbVertex
100
AcDb2dVertex
 10
272.5780218502583
 20
-239.2763508516393
 30
0.0
  0
VERTEX
  5
44
330
40
100
AcDbEntity
  8
EBENE_3
100
AcDbVertex
100
AcDb2dVertex
 10
272.5780218502583
 20
-220.2766492504864
 30
0.0
  0
VERTEX
  5
45
330
40
100
AcDbEntity
  8
EBENE_3
100
AcDbVertex
100
AcDb2dVertex
 10
268.8325140386947
 20
-220.2766492504864
 30
0.0
  0
SEQEND
  5
46
330
40
100
AcDbEntity
  8
EBENE_3
  0
SPLINE
  5
47
330
1F
100
AcDbEntity
  8
EBENE_3
100
AcDbSpline
210
0.0
220
0.0
230
1.0
 70
    11
 71
     3
 72
    17
 73
    13
 74
     0
 42
0.0000000001
 43
0.0000000001
 40
0.0
 40
0.0
 40
0.0
 40
0.0
 40
1.0
 40
1.0
 40
1.0
 40
2.0
 40
2.0
 40
2.0
 40
3.0
 40
3.0
 40
3.0
 40
4.0
 40
4.0
 40
4.0
 40
4.0
 10
218.5385985781779
 20
-257.9587591586006
 30
0.0
 10
219.9690022236536
 20
-268.9114067253069
 30
0.0
 10
212.2495767698543
 20
-278.9497259502278
 30
0.0
 10
201.2965846935995
 20
-280.3801295957036
 30
0.0
 10
190.3439371268932
 20
-281.8105332411793
 30
0.0
 10
180.3056179019722
 20
-274.09110778738
 30
0.0
 10
178.8752142564965
 20
-263.1384602206737
 30
0.0
 10
177.4448106110208
 20
-252.1858126539674
 30
0.0
 10
185.1642360648201
 20
-242.1474934290465
 30
0.0
 10
196.1168836315263
 20
-240.7170897835707
 30
0.0
 10
207.0698757077812
 20
-239.286686138095
 30
0.0
 10
217.1081949327021
 20
-247.0057670823458
 30
0.0
 10
218.5385985781779
 20
-257.9587591586006
 30
0.0
  0
SPLINE
  5
48
330
1F
100
AcDbEntity
  8
EBENE_3
100
AcDbSpline
210
0.0
220
0.0
230
1.0
 70
    11
 71
     3
 72
    17
 73
    13
 74
     0
 42
0.0000000001
 43
0.0000000001
 40
0.0
 40
0.0
 40
0.0
 40
0.0
 40
1.0
 40
1.0
 40
1.0
 40
2.0
 40
2.0
 40
2.0
 40
3.0
 40
3.0
 40
3.0
 40
4.0
 40
4.0
 40
4.0
 40
4.0
 10
199.9464517729301
 20
-260.3868624566047
 30
0.0
 10
200.035679745998
 20
-261.0710584199753
 30
0.0
 10
199.5537108876116
 20
-261.6987548173879
 30
0.0
 10
198.8688259051439
 20
-261.7879827904558
 30
0.0
 10
198.1842854322248
 20
-261.8775552730723
 30
0.0
 10
197.5569335443608
 20
-261.3948973955888
 30
0.0
 10
197.4677055712928
 20
-260.7107014322182
 30
0.0
 10
197.3784775982248
 20
-260.025471940202
 30
0.0
 10
197.8607909661598
 20
-259.398809071435
 30
0.0
 10
198.545331439079
 20
-259.3092365888185
 30
0.0
 10
199.2298719119981
 20
-259.2200086157505
 30
0.0
 10
199.8568792903136
 20
-259.701977474137
 30
0.0
 10
199.9464517729301
 20
-260.3868624566047
 30
0.0
  0
SPLINE
  5
49
330
1F
100
AcDbEntity
  8
EBENE_3
100
AcDbSpline
210
0.0
220
0.0
230
1.0
 70
    11
 71
     3
 72
    17
 73
    13
 74
     0
 42
0.0000000001
 43
0.0000000001
 40
0.0
 40
0.0
 40
0.0
 40
0.0
 40
1.0
 40
1.0
 40
1.0
 40
2.0
 40
2.0
 40
2.0
 40
3.0
 40
3.0
 40
3.0
 40
4.0
 40
4.0
 40
4.0
 40
4.0
 10
234.2168836220013
 20
-297.6986246000545
 30
0.0
 10
235.6469427579285
 20
-308.6512721667608
 30
0.0
 10
227.9278618136778
 20
-318.6895913916818
 30
0.0
 10
216.9748697374229
 20
-320.1199950371575
 30
0.0
 10
206.0222221707167
 20
-321.5503986826333
 30
0.0
 10
195.9839029457957
 20
-313.8313177383824
 30
0.0
 10
194.55349930032
 20
-302.8786701716762
 30
0.0
 10
193.1230956548442
 20
-291.9256780954213
 30
0.0
 10
200.8425211086436
 20
-281.8873588705004
 30
0.0
 10
211.7951686753498
 20
-280.4569552250247
 30
0.0
 10
222.7481607516046
 20
-279.0265515795489
 30
0.0
 10
232.7864799765256
 20
-286.7456325237997
 30
0.0
 10
234.2168836220013
 20
-297.6986246000545
 30
0.0
  0
SPLINE
  5
4A
330
1F
100
AcDbEntity
  8
EBENE_3
100
AcDbSpline
210
0.0
220
0.0
230
1.0
 70
    11
 71
     3
 72
    17
 73
    13
 74
     0
 42
0.0000000001
 43
0.0000000001
 40
0.0
 40
0.0
 40
0.0
 40
0.0
 40
1.0
 40
1.0
 40
1.0
 40
2.0
 40
2.0
 40
2.0
 40
3.0
 40
3.0
 40
3.0
 40
4.0
 40
4.0
 40
4.0
 40
4.0
 10
215.6350721032093
 20
-301.5371499897199
 30
0.0
 10
215.6350721032093
 20
-302.2272026154154
 30
0.0
 10
215.0755885964047
 20
-302.7870306317685
 30
0.0
 10
214.3851914611606
 20
-302.7870306317685
 30
0.0
 10
213.6947943259166
 20
-302.7870306317685
 30
0.0
 10
213.135310819112
 20
-302.2272026154154
 30
0.0
 10
213.135310819112
 20
-301.5371499897199
 30
0.0
 10
213.135310819112
 20
-300.8464083449273
 30
0.0
 10
213.6947943259166
 20
-300.2872693476713
 30
0.0
 10
214.3851914611606
 20
-300.2872693476713
 30
0.0
 10
215.0755885964047
 20
-300.2872693476713
 30
0.0
 10
215.6350721032093
 20
-300.8464083449273
 30
0.0
 10
215.6350721032093
 20
-301.5371499897199
 30
0.0
  0
SPLINE
  5
4B
330
1F
100
AcDbEntity
  8
EBENE_3
100
AcDbSpline
210
0.0
220
0.0
230
1.0
 70
    11
 71
     3
 72
    17
 73
    13
 74
     0
 42
0.0000000001
 43
0.0000000001
 40
0.0
 40
0.0
 40
0.0
 40
0.0
 40
1.0
 40
1.0
 40
1.0
 40
2.0
 40
2.0
 40
2.0
 40
3.0
 40
3.0
 40
3.0
 40
4.0
 40
4.0
 40
4.0
 40
4.0
 10
303.9628417208843
 20
-168.1464978963314
 30
0.0
 10
303.9628417208843
 20
-169.5266031477225
 30
0.0
 10
302.8428411786296
 20
-170.6459146708802
 30
0.0
 10
301.4627359272385
 20
-170.6459146708802
 30
0.0
 10
300.0812526376533
 20
-170.6459146708802
 30
0.0
 10
298.9626301335927
 20
-169.5266031477225
 30
0.0
 10
298.9626301335927
 20
-168.1464978963314
 30
0.0
 10
298.9626301335927
 20
-166.7650146067463
 30
0.0
 10
300.0812526376533
 20
-165.6457030835886
 30
0.0
 10
301.4627359272385
 20
-165.6457030835886
 30
0.0
 10
302.8428411786296
 20
-165.6457030835886
 30
0.0
 10
303.9628417208843
 20
-166.7650146067463
 30
0.0
 10
303.9628417208843
 20
-168.1464978963314
 30
0.0
  0
SPLINE
  5
4C
330
1F
100
AcDbEntity
  8
EBENE_3
100
AcDbSpline
210
0.0
220
0.0
230
1.0
 70
    11
 71
     3
 72
    17
 73
    13
 74
     0
 42
0.0000000001
 43
0.0000000001
 40
0.0
 40
0.0
 40
0.0
 40
0.0
 40
1.0
 40
1.0
 40
1.0
 40
2.0
 40
2.0
 40
2.0
 40
3.0
 40
3.0
 40
3.0
 40
4.0
 40
4.0
 40
4.0
 40
4.0
 10
308.9627087986274
 20
-168.147531424977
 30
0.0
 10
308.9627087986274
 20
-172.2878471791503
 30
0.0
 10
305.6030516814117
 20
-175.6457817486233
 30
0.0
 10
301.4627359272385
 20
-175.6457817486233
 30
0.0
 10
297.318286058483
 20
-175.6457817486233
 30
0.0
 10
293.9627630558496
 20
-172.2878471791503
 30
0.0
 10
293.9627630558496
 20
-168.147531424977
 30
0.0
 10
293.9627630558496
 20
-164.0037705753185
 30
0.0
 10
297.318286058483
 20
-160.6458360058455
 30
0.0
 10
301.4627359272385
 20
-160.6458360058455
 30
0.0
 10
305.6030516814117
 20
-160.6458360058455
 30
0.0
 10
308.9627087986274
 20
-164.0037705753185
 30
0.0
 10
308.9627087986274
 20
-168.147531424977
 30
0.0
  0
SPLINE
  5
4D
330
1F
100
AcDbEntity
  8
EBENE_3
100
AcDbSpline
210
0.0
220
0.0
230
1.0
 70
    11
 71
     3
 72
    35
 73
    31
 74
     0
 42
0.0000000001
 43
0.0000000001
 40
0.0
 40
0.0
 40
0.0
 40
0.0
 40
1.0
 40
1.0
 40
1.0
 40
2.0
 40
2.0
 40
2.0
 40
3.0
 40
3.0
 40
3.0
 40
4.0
 40
4.0
 40
4.0
 40
5.0
 40
5.0
 40
5.0
 40
6.0
 40
6.0
 40
6.0
 40
7.0
 40
7.0
 40
7.0
 40
8.0
 40
8.0
 40
8.0
 40
9.0
 40
9.0
 40
9.0
 40
10.0
 40
10.0
 40
10.0
 40
10.0
 10
333.4821423862475
 20
-263.1115884758888
 30
0.0
 10
333.4821423862475
 20
-263.1115884758888
 30
0.0
 10
333.4821423862475
 20
-255.206127865886
 30
0.0
 10
333.4821423862475
 20
-255.206127865886
 30
0.0
 10
333.4821423862475
 20
-255.206127865886
 30
0.0
 10
328.0964246141565
 20
-255.1461832044426
 30
0.0
 10
328.0450926914262
 20
-255.1461832044426
 30
0.0
 10
327.33884811695
 20
-255.1461832044426
 30
0.0
 10
326.7621391327192
 20
-254.475767623013
 30
0.0
 10
326.7621391327192
 20
-253.6468776492619
 30
0.0
 10
326.7621391327192
 20
-252.8176431659623
 30
0.0
 10
327.33884811695
 20
-252.1475720940812
 30
0.0
 10
328.0450926914262
 20
-252.1475720940812
 30
0.0
 10
328.1232963589414
 20
-252.1475720940812
 30
0.0
 10
333.4821423862475
 20
-252.1017523241273
 30
0.0
 10
333.4821423862475
 20
-252.1017523241273
 30
0.0
 10
333.4821423862475
 20
-252.1017523241273
 30
0.0
 10
333.4821423862475
 20
-244.1811332939895
 30
0.0
 10
333.4821423862475
 20
-244.1811332939895
 30
0.0
 10
333.4821423862475
 20
-244.1811332939895
 30
0.0
 10
330.558289847916
 20
-243.8283555162999
 30
0.0
 10
330.4638942316201
 20
-243.8321451213336
 30
0.0
 10
327.4198078608534
 20
-243.953756991963
 30
0.0
 10
323.0689967725314
 20
-248.8554388483764
 30
0.0
 10
323.0166313211556
 20
-253.6468776492619
 30
0.0
 10
322.9635768506827
 20
-258.4992946402363
 30
0.0
 10
327.3953476829081
 20
-263.3489555548225
 30
0.0
 10
330.4638942316201
 20
-263.4120008022026
 30
0.0
 10
330.4638942316201
 20
-263.4120008022026
 30
0.0
 10
333.4821423862475
 20
-263.1115884758888
 30
0.0
 10
333.4821423862475
 20
-263.1115884758888
 30
0.0
  0
SPLINE
  5
4E
330
1F
100
AcDbEntity
  8
EBENE_3
100
AcDbSpline
210
0.0
220
0.0
230
1.0
 70
    11
 71
     3
 72
    35
 73
    31
 74
     0
 42
0.0000000001
 43
0.0000000001
 40
0.0
 40
0.0
 40
0.0
 40
0.0
 40
1.0
 40
1.0
 40
1.0
 40
2.0
 40
2.0
 40
2.0
 40
3.0
 40
3.0
 40
3.0
 40
4.0
 40
4.0
 40
4.0
 40
5.0
 40
5.0
 40
5.0
 40
6.0
 40
6.0
 40
6.0
 40
7.0
 40
7.0
 40
7.0
 40
8.0
 40
8.0
 40
8.0
 40
9.0
 40
9.0
 40
9.0
 40
10.0
 40
10.0
 40
10.0
 40
10.0
 10
273.3176838509414
 20
-263.4120008022026
 30
0.0
 10
276.3862303996535
 20
-263.3489555548225
 30
0.0
 10
280.8180012318788
 20
-258.4992946402363
 30
0.0
 10
280.764946761406
 20
-253.6468776492619
 30
0.0
 10
280.7125813100302
 20
-248.8554388483764
 30
0.0
 10
276.3617702217082
 20
-243.953756991963
 30
0.0
 10
273.3176838509414
 20
-243.8321451213336
 30
0.0
 10
273.2232882346456
 20
-243.8283555162999
 30
0.0
 10
270.299435696314
 20
-244.1811332939895
 30
0.0
 10
270.299435696314
 20
-244.1811332939895
 30
0.0
 10
270.299435696314
 20
-244.1811332939895
 30
0.0
 10
270.299435696314
 20
-252.1017523241273
 30
0.0
 10
270.299435696314
 20
-252.1017523241273
 30
0.0
 10
270.299435696314
 20
-252.1017523241273
 30
0.0
 10
275.6582817236202
 20
-252.1475720940812
 30
0.0
 10
275.7364853911353
 20
-252.1475720940812
 30
0.0
 10
276.4427299656115
 20
-252.1475720940812
 30
0.0
 10
277.0194389498424
 20
-252.8176431659623
 30
0.0
 10
277.0194389498424
 20
-253.6468776492619
 30
0.0
 10
277.0194389498424
 20
-254.475767623013
 30
0.0
 10
276.4427299656115
 20
-255.1461832044426
 30
0.0
 10
275.7364853911353
 20
-255.1461832044426
 30
0.0
 10
275.6851534684051
 20
-255.1461832044426
 30
0.0
 10
270.299435696314
 20
-255.206127865886
 30
0.0
 10
270.299435696314
 20
-255.206127865886
 30
0.0
 10
270.299435696314
 20
-255.206127865886
 30
0.0
 10
270.299435696314
 20
-263.1115884758888
 30
0.0
 10
270.299435696314
 20
-263.1115884758888
 30
0.0
 10
270.299435696314
 20
-263.1115884758888
 30
0.0
 10
273.3176838509414
 20
-263.4120008022026
 30
0.0
 10
273.3176838509414
 20
-263.4120008022026
 30
0.0
  0
SPLINE
  5
4F
330
1F
100
AcDbEntity
  8
EBENE_3
100
AcDbSpline
210
0.0
220
0.0
230
1.0
 70
    11
 71
     3
 72
    17
 73
    13
 74
     0
 42
0.0000000001
 43
0.0000000001
 40
0.0
 40
0.0
 40
0.0
 40
0.0
 40
1.0
 40
1.0
 40
1.0
 40
2.0
 40
2.0
 40
2.0
 40
3.0
 40
3.0
 40
3.0
 40
4.0
 40
4.0
 40
4.0
 40
4.0
 10
315.9627983151065
 20
-168.1458088772344
 30
0.0
 10
315.9627983151065
 20
-176.1539333326976
 30
0.0
 10
309.4712048922503
 20
-182.6458712651024
 30
0.0
 10
301.4627359272385
 20
-182.6458712651024
 30
0.0
 10
293.4546114717753
 20
-182.6458712651024
 30
0.0
 10
286.9626735393704
 20
-176.1539333326976
 30
0.0
 10
286.9626735393704
 20
-168.1458088772344
 30
0.0
 10
286.9626735393704
 20
-160.1376844217712
 30
0.0
 10
293.4546114717753
 20
-153.6457464893664
 30
0.0
 10
301.4627359272385
 20
-153.6457464893664
 30
0.0
 10
309.4712048922503
 20
-153.6457464893664
 30
0.0
 10
315.9627983151065
 20
-160.1376844217712
 30
0.0
 10
315.9627983151065
 20
-168.1458088772344
 30
0.0
  0
SPLINE
  5
50
330
1F
100
AcDbEntity
  8
EBENE_3
100
AcDbSpline
210
0.0
220
0.0
230
1.0
 70
     8
 71
     3
 72
    74
 73
    70
 74
     0
 42
0.0000000001
 43
0.0000000001
 40
0.0
 40
0.0
 40
0.0
 40
0.0
 40
1.0
 40
1.0
 40
1.0
 40
2.0
 40
2.0
 40
2.0
 40
3.0
 40
3.0
 40
3.0
 40
4.0
 40
4.0
 40
4.0
 40
5.0
 40
5.0
 40
5.0
 40
6.0
 40
6.0
 40
6.0
 40
7.0
 40
7.0
 40
7.0
 40
8.0
 40
8.0
 40
8.0
 40
9.0
 40
9.0
 40
9.0
 40
10.0
 40
10.0
 40
10.0
 40
11.0
 40
11.0
 40
11.0
 40
12.0
 40
12.0
 40
12.0
 40
13.0
 40
13.0
 40
13.0
 40
14.0
 40
14.0
 40
14.0
 40
15.0
 40
15.0
 40
15.0
 40
16.0
 40
16.0
 40
16.0
 40
17.0
 40
17.0
 40
17.0
 40
18.0
 40
18.0
 40
18.0
 40
19.0
 40
19.0
 40
19.0
 40
20.0
 40
20.0
 40
20.0
 40
21.0
 40
21.0
 40
21.0
 40
22.0
 40
22.0
 40
22.0
 40
23.0
 40
23.0
 40
23.0
 40
23.0
 10
301.7397216042526
 20
-132.4465236756557
 30
0.0
 10
301.7397216042526
 20
-132.4465236756557
 30
0.0
 10
282.4306504285243
 20
-129.8222221897667
 30
0.0
 10
265.0839056411943
 20
-159.2405815574121
 30
0.0
 10
256.5548827483613
 20
-173.7048149522335
 30
0.0
 10
248.9215846816932
 20
-189.1171386245957
 30
0.0
 10
251.4509737869637
 20
-242.181944383899
 30
0.0
 10
251.4509737869637
 20
-242.181944383899
 30
0.0
 10
252.0266492425489
 20
-242.5278319706181
 30
0.0
 10
252.0266492425489
 20
-242.5278319706181
 30
0.0
 10
252.0266492425489
 20
-242.5278319706181
 30
0.0
 10
285.2018852368593
 20
-242.5278319706181
 30
0.0
 10
285.2018852368593
 20
-242.5278319706181
 30
0.0
 10
285.2018852368593
 20
-242.5278319706181
 30
0.0
 10
285.2018852368593
 20
-264.5268337012294
 30
0.0
 10
285.2018852368593
 20
-264.5268337012294
 30
0.0
 10
285.2018852368593
 20
-264.5268337012294
 30
0.0
 10
254.040652063226
 20
-264.5268337012294
 30
0.0
 10
254.040652063226
 20
-264.5268337012294
 30
0.0
 10
254.040652063226
 20
-264.5268337012294
 30
0.0
 10
254.206705665615
 20
-264.5164984147737
 30
0.0
 10
254.206705665615
 20
-264.5164984147737
 30
0.0
 10
254.1043863297031
 20
-264.5164984147737
 30
0.0
 10
253.295822419315
 20
-264.5130533192884
 30
0.0
 10
253.193503083403
 20
-264.5054741092209
 30
0.0
 10
254.2659613079613
 20
-273.5157768413433
 30
0.0
 10
256.4715114376182
 20
-283.2309461097478
 30
0.0
 10
258.4755234813881
 20
-293.7054144231014
 30
0.0
 10
270.5226778837582
 20
-356.6721136261098
 30
0.0
 10
276.0155381254406
 20
-290.5021646409161
 30
0.0
 10
301.5071776589982
 20
-286.5754448068284
 30
0.0
 10
301.5071776589982
 20
-286.5754448068284
 30
0.0
 10
302.8583441083132
 20
-286.5754448068284
 30
0.0
 10
302.8583441083132
 20
-286.5754448068284
 30
0.0
 10
328.3534287373561
 20
-290.5021646409161
 30
0.0
 10
333.8462889790384
 20
-356.6721136261098
 30
0.0
 10
345.8937878909571
 20
-293.7054144231014
 30
0.0
 10
347.8974554251784
 20
-283.2275010142626
 30
0.0
 10
350.1064506503207
 20
-273.5088866503728
 30
0.0
 10
351.1754637793936
 20
-264.4951388227651
 30
0.0
 10
350.9742702030551
 20
-264.5054741092209
 30
0.0
 10
350.063386956755
 20
-264.5130533192884
 30
0.0
 10
349.8590927944797
 20
-264.5164984147737
 30
0.0
 10
349.8590927944797
 20
-264.5164984147737
 30
0.0
 10
349.6720241096306
 20
-264.5268337012294
 30
0.0
 10
349.6720241096306
 20
-264.5268337012294
 30
0.0
 10
349.6720241096306
 20
-264.5268337012294
 30
0.0
 10
318.8639132232354
 20
-264.5268337012294
 30
0.0
 10
318.8639132232354
 20
-264.5268337012294
 30
0.0
 10
318.8639132232354
 20
-264.5268337012294
 30
0.0
 10
318.8639132232354
 20
-242.5278319706181
 30
0.0
 10
318.8639132232354
 20
-242.5278319706181
 30
0.0
 10
318.8639132232354
 20
-242.5278319706181
 30
0.0
 10
352.1872883234115
 20
-242.5278319706181
 30
0.0
 10
352.1872883234115
 20
-242.5278319706181
 30
0.0
 10
352.1872883234115
 20
-242.5278319706181
 30
0.0
 10
352.3354274292773
 20
-242.2701388283214
 30
0.0
 10
352.3354274292773
 20
-242.2701388283214
 30
0.0
 10
352.3354274292773
 20
-242.2701388283214
 30
0.0
 10
352.360232116771
 20
-242.181944383899
 30
0.0
 10
352.360232116771
 20
-242.181944383899
 30
0.0
 10
352.360232116771
 20
-242.181944383899
 30
0.0
 10
352.7133544040092
 20
-242.181944383899
 30
0.0
 10
352.7133544040092
 20
-242.181944383899
 30
0.0
 10
355.2427435092796
 20
-189.1171386245957
 30
0.0
 10
347.6094454426116
 20
-173.7048149522335
 30
0.0
 10
339.0804225497785
 20
-159.2405815574121
 30
0.0
 10
321.7336777624486
 20
-129.8222221897667
 30
0.0
 10
302.4246065867202
 20
-132.4465236756557
 30
0.0
 10
302.4246065867202
 20
-132.4465236756557
 30
0.0
  0
SPLINE
  5
51
330
1F
100
AcDbEntity
  8
EBENE_3
100
AcDbSpline
210
0.0
220
0.0
230
1.0
 70
    11
 71
     3
 72
    20
 73
    16
 74
     0
 42
0.0000000001
 43
0.0000000001
 40
0.0
 40
0.0
 40
0.0
 40
0.0
 40
1.0
 40
1.0
 40
1.0
 40
2.0
 40
2.0
 40
2.0
 40
3.0
 40
3.0
 40
3.0
 40
4.0
 40
4.0
 40
4.0
 40
5.0
 40
5.0
 40
5.0
 40
5.0
 10
252.0721245029542
 20
-313.7131509632384
 30
0.0
 10
247.3912732671452
 20
-314.197875898013
 30
0.0
 10
244.9504231158458
 20
-315.4236408716649
 30
0.0
 10
243.1951469661109
 20
-309.543207387892
 30
0.0
 10
243.1951469661109
 20
-309.543207387892
 30
0.0
 10
215.2433647465364
 20
-238.2076822321148
 30
0.0
 10
215.2433647465364
 20
-238.2076822321148
 30
0.0
 10
175.6109862842223
 20
-139.0569728927531
 30
0.0
 10
217.2725259873486
 20
-216.0285020076248
 30
0.0
 10
234.4249673893104
 20
-229.069221947941
 30
0.0
 10
234.4249673893104
 20
-229.069221947941
 30
0.0
 10
239.5702174965311
 20
-229.2359645694271
 30
0.0
 10
239.5702174965311
 20
-229.2359645694271
 30
0.0
 10
240.2606146317751
 20
-229.317268822879
 30
0.0
 10
252.0721245029542
 20
-313.7131509632384
 30
0.0
 10
252.0721245029542
 20
-313.7131509632384
 30
0.0
  0
SPLINE
  5
52
330
1F
100
AcDbEntity
  8
EBENE_3
100
AcDbSpline
210
0.0
220
0.0
230
1.0
 70
    11
 71
     3
 72
    17
 73
    13
 74
     0
 42
0.0000000001
 43
0.0000000001
 40
0.0
 40
0.0
 40
0.0
 40
0.0
 40
1.0
 40
1.0
 40
1.0
 40
2.0
 40
2.0
 40
2.0
 40
3.0
 40
3.0
 40
3.0
 40
4.0
 40
4.0
 40
4.0
 40
4.0
 10
386.501817394694
 20
-257.9587591586006
 30
0.0
 10
385.0714137492183
 20
-268.9114067253069
 30
0.0
 10
392.7908392030176
 20
-278.9497259502278
 30
0.0
 10
403.7438312792724
 20
-280.3801295957036
 30
0.0
 10
414.6964788459787
 20
-281.8105332411793
 30
0.0
 10
424.7347980708997
 20
-274.09110778738
 30
0.0
 10
426.1652017163754
 20
-263.1384602206737
 30
0.0
 10
427.5956053618511
 20
-252.1858126539674
 30
0.0
 10
419.8761799080518
 20
-242.1474934290465
 30
0.0
 10
408.9235323413455
 20
-240.7170897835707
 30
0.0
 10
397.9705402650907
 20
-239.286686138095
 30
0.0
 10
387.9322210401697
 20
-247.0057670823458
 30
0.0
 10
386.501817394694
 20
-257.9587591586006
 30
0.0
  0
SPLINE
  5
53
330
1F
100
AcDbEntity
  8
EBENE_3
100
AcDbSpline
210
0.0
220
0.0
230
1.0
 70
    11
 71
     3
 72
    17
 73
    13
 74
     0
 42
0.0000000001
 43
0.0000000001
 40
0.0
 40
0.0
 40
0.0
 40
0.0
 40
1.0
 40
1.0
 40
1.0
 40
2.0
 40
2.0
 40
2.0
 40
3.0
 40
3.0
 40
3.0
 40
4.0
 40
4.0
 40
4.0
 40
4.0
 10
405.0939641999418
 20
-260.3868624566047
 30
0.0
 10
405.0047362268738
 20
-261.0710584199753
 30
0.0
 10
405.4867050852603
 20
-261.6987548173879
 30
0.0
 10
406.1715900677279
 20
-261.7879827904558
 30
0.0
 10
406.8561305406471
 20
-261.8775552730723
 30
0.0
 10
407.4834824285111
 20
-261.3948973955888
 30
0.0
 10
407.5727104015791
 20
-260.7107014322182
 30
0.0
 10
407.661938374647
 20
-260.025471940202
 30
0.0
 10
407.1796250067121
 20
-259.398809071435
 30
0.0
 10
406.4950845337929
 20
-259.3092365888185
 30
0.0
 10
405.8105440608738
 20
-259.2200086157505
 30
0.0
 10
405.1835366825583
 20
-259.701977474137
 30
0.0
 10
405.0939641999418
 20
-260.3868624566047
 30
0.0
  0
SPLINE
  5
54
330
1F
100
AcDbEntity
  8
EBENE_3
100
AcDbSpline
210
0.0
220
0.0
230
1.0
 70
    11
 71
     3
 72
    17
 73
    13
 74
     0
 42
0.0000000001
 43
0.0000000001
 40
0.0
 40
0.0
 40
0.0
 40
0.0
 40
1.0
 40
1.0
 40
1.0
 40
2.0
 40
2.0
 40
2.0
 40
3.0
 40
3.0
 40
3.0
 40
4.0
 40
4.0
 40
4.0
 40
4.0
 10
370.8235323508706
 20
-297.6986246000545
 30
0.0
 10
369.3934732149433
 20
-308.6512721667608
 30
0.0
 10
377.1125541591941
 20
-318.6895913916818
 30
0.0
 10
388.0655462354489
 20
-320.1199950371575
 30
0.0
 10
399.0181938021552
 20
-321.5503986826333
 30
0.0
 10
409.0565130270762
 20
-313.8313177383824
 30
0.0
 10
410.4869166725519
 20
-302.8786701716762
 30
0.0
 10
411.9173203180276
 20
-291.9256780954213
 30
0.0
 10
404.1978948642283
 20
-281.8873588705004
 30
0.0
 10
393.245247297522
 20
-280.4569552250247
 30
0.0
 10
382.2922552212672
 20
-279.0265515795489
 30
0.0
 10
372.2539359963462
 20
-286.7456325237997
 30
0.0
 10
370.8235323508706
 20
-297.6986246000545
 30
0.0
  0
SPLINE
  5
55
330
1F
100
AcDbEntity
  8
EBENE_3
100
AcDbSpline
210
0.0
220
0.0
230
1.0
 70
    11
 71
     3
 72
    17
 73
    13
 74
     0
 42
0.0000000001
 43
0.0000000001
 40
0.0
 40
0.0
 40
0.0
 40
0.0
 40
1.0
 40
1.0
 40
1.0
 40
2.0
 40
2.0
 40
2.0
 40
3.0
 40
3.0
 40
3.0
 40
4.0
 40
4.0
 40
4.0
 40
4.0
 10
389.4053438696625
 20
-301.5371499897199
 30
0.0
 10
389.4053438696625
 20
-302.2272026154154
 30
0.0
 10
389.9648273764672
 20
-302.7870306317685
 30
0.0
 10
390.6552245117112
 20
-302.7870306317685
 30
0.0
 10
391.3456216469553
 20
-302.7870306317685
 30
0.0
 10
391.9051051537598
 20
-302.2272026154154
 30
0.0
 10
391.9051051537598
 20
-301.5371499897199
 30
0.0
 10
391.9051051537598
 20
-300.8464083449273
 30
0.0
 10
391.3456216469553
 20
-300.2872693476713
 30
0.0
 10
390.6552245117112
 20
-300.2872693476713
 30
0.0
 10
389.9648273764672
 20
-300.2872693476713
 30
0.0
 10
389.4053438696625
 20
-300.8464083449273
 30
0.0
 10
389.4053438696625
 20
-301.5371499897199
 30
0.0
  0
SPLINE
  5
56
330
1F
100
AcDbEntity
  8
EBENE_3
100
AcDbSpline
210
0.0
220
0.0
230
1.0
 70
    11
 71
     3
 72
    20
 73
    16
 74
     0
 42
0.0000000001
 43
0.0000000001
 40
0.0
 40
0.0
 40
0.0
 40
0.0
 40
1.0
 40
1.0
 40
1.0
 40
2.0
 40
2.0
 40
2.0
 40
3.0
 40
3.0
 40
3.0
 40
4.0
 40
4.0
 40
4.0
 40
5.0
 40
5.0
 40
5.0
 40
5.0
 10
352.9682914699177
 20
-313.7131509632384
 30
0.0
 10
357.6491427057266
 20
-314.197875898013
 30
0.0
 10
360.0899928570261
 20
-315.4236408716649
 30
0.0
 10
361.8452690067609
 20
-309.543207387892
 30
0.0
 10
361.8452690067609
 20
-309.543207387892
 30
0.0
 10
389.7970512263355
 20
-238.2076822321148
 30
0.0
 10
389.7970512263355
 20
-238.2076822321148
 30
0.0
 10
429.4294296886496
 20
-139.0569728927531
 30
0.0
 10
387.7678899855233
 20
-216.0285020076248
 30
0.0
 10
370.6154485835614
 20
-229.069221947941
 30
0.0
 10
370.6154485835614
 20
-229.069221947941
 30
0.0
 10
365.4701984763408
 20
-229.2359645694271
 30
0.0
 10
365.4701984763408
 20
-229.2359645694271
 30
0.0
 10
364.7798013410967
 20
-229.317268822879
 30
0.0
 10
352.9682914699177
 20
-313.7131509632384
 30
0.0
 10
352.9682914699177
 20
-313.7131509632384
 30
0.0
  0
POLYLINE
  5
57
330
1F
100
AcDbEntity
  8
EBENE_3
100
AcDb2dPolyline
 66
     1
 10
0.0
 20
0.0
 30
0.0
  0
VERTEX
  5
58
330
57
100
AcDbEntity
  8
EBENE_3
100
AcDbVertex
100
AcDb2dVertex
 10
263.3995984584557
 20
-270.153708157288
 30
0.0
  0
VERTEX
  5
59
330
57
100
AcDbEntity
  8
EBENE_3
100
AcDbVertex
100
AcDb2dVertex
 10
258.6374429691948
 20
-270.153708157288
 30
0.0
  0
VERTEX
  5
5A
330
57
100
AcDbEntity
  8
EBENE_3
100
AcDbVertex
100
AcDb2dVertex
 10
258.6374429691948
 20
-268.2533934876242
 30
0.0
  0
VERTEX
  5
5B
330
57
100
AcDbEntity
  8
EBENE_3
100
AcDbVertex
100
AcDb2dVertex
 10
263.3995984584557
 20
-268.2533934876242
 30
0.0
  0
VERTEX
  5
5C
330
57
100
AcDbEntity
  8
EBENE_3
100
AcDbVertex
100
AcDb2dVertex
 10
263.3995984584557
 20
-270.153708157288
 30
0.0
  0
SEQEND
  5
5D
330
57
100
AcDbEntity
  8
EBENE_3
  0
POLYLINE
  5
5E
330
1F
100
AcDbEntity
  8
EBENE_3
100
AcDb2dPolyline
 66
     1
 10
0.0
 20
0.0
 30
0.0
  0
VERTEX
  5
5F
330
5E
100
AcDbEntity
  8
EBENE_3
100
AcDbVertex
100
AcDb2dVertex
 10
279.0444660760722
 20
-270.153708157288
 30
0.0
  0
VERTEX
  5
60
330
5E
100
AcDbEntity
  8
EBENE_3
100
AcDbVertex
100
AcDb2dVertex
 10
274.2823105868114
 20
-270.153708157288
 30
0.0
  0
VERTEX
  5
61
330
5E
100
AcDbEntity
  8
EBENE_3
100
AcDbVertex
100
AcDb2dVertex
 10
274.2823105868114
 20
-268.2533934876242
 30
0.0
  0
VERTEX
  5
62
330
5E
100
AcDbEntity
  8
EBENE_3
100
AcDbVertex
100
AcDb2dVertex
 10
279.0444660760722
 20
-268.2533934876242
 30
0.0
  0
VERTEX
  5
63
330
5E
100
AcDbEntity
  8
EBENE_3
100
AcDbVertex
100
AcDb2dVertex
 10
279.0444660760722
 20
-270.153708157288
 30
0.0
  0
SEQEND
  5
64
330
5E
100
AcDbEntity
  8
EBENE_3
  0
POLYLINE
  5
65
330
1F
100
AcDbEntity
  8
EBENE_3
100
AcDb2dPolyline
 66
     1
 10
0.0
 20
0.0
 30
0.0
  0
VERTEX
  5
66
330
65
100
AcDbEntity
  8
EBENE_3
100
AcDbVertex
100
AcDb2dVertex
 10
263.3995984584557
 20
-239.0748127657521
 30
0.0
  0
VERTEX
  5
67
330
65
100
AcDbEntity
  8
EBENE_3
100
AcDbVertex
100
AcDb2dVertex
 10
258.6374429691948
 20
-239.0748127657521
 30
0.0
  0
VERTEX
  5
68
330
65
100
AcDbEntity
  8
EBENE_3
100
AcDbVertex
100
AcDb2dVertex
 10
258.6374429691948
 20
-237.1744980960883
 30
0.0
  0
VERTEX
  5
69
330
65
100
AcDbEntity
  8
EBENE_3
100
AcDbVertex
100
AcDb2dVertex
 10
263.3995984584557
 20
-237.1744980960883
 30
0.0
  0
VERTEX
  5
6A
330
65
100
AcDbEntity
  8
EBENE_3
100
AcDbVertex
100
AcDb2dVertex
 10
263.3995984584557
 20
-239.0748127657521
 30
0.0
  0
SEQEND
  5
6B
330
65
100
AcDbEntity
  8
EBENE_3
  0
POLYLINE
  5
6C
330
1F
100
AcDbEntity
  8
EBENE_3
100
AcDb2dPolyline
 66
     1
 10
0.0
 20
0.0
 30
0.0
  0
VERTEX
  5
6D
330
6C
100
AcDbEntity
  8
EBENE_3
100
AcDbVertex
100
AcDb2dVertex
 10
279.0448105856208
 20
-239.0748127657521
 30
0.0
  0
VERTEX
  5
6E
330
6C
100
AcDbEntity
  8
EBENE_3
100
AcDbVertex
100
AcDb2dVertex
 10
274.2826550963599
 20
-239.0748127657521
 30
0.0
  0
VERTEX
  5
6F
330
6C
100
AcDbEntity
  8
EBENE_3
100
AcDbVertex
100
AcDb2dVertex
 10
274.2826550963599
 20
-237.1744980960883
 30
0.0
  0
VERTEX
  5
70
330
6C
100
AcDbEntity
  8
EBENE_3
100
AcDbVertex
100
AcDb2dVertex
 10
279.0448105856208
 20
-237.1744980960883
 30
0.0
  0
VERTEX
  5
71
330
6C
100
AcDbEntity
  8
EBENE_3
100
AcDbVertex
100
AcDb2dVertex
 10
279.0448105856208
 20
-239.0748127657521
 30
0.0
  0
SEQEND
  5
72
330
6C
100
AcDbEntity
  8
EBENE_3
  0
SPLINE
  5
73
330
1F
100
AcDbEntity
  8
EBENE_3
100
AcDbSpline
210
0.0
220
0.0
230
1.0
 70
    11
 71
     3
 72
    17
 73
    13
 74
     0
 42
0.0000000001
 43
0.0000000001
 40
0.0
 40
0.0
 40
0.0
 40
0.0
 40
1.0
 40
1.0
 40
1.0
 40
2.0
 40
2.0
 40
2.0
 40
3.0
 40
3.0
 40
3.0
 40
4.0
 40
4.0
 40
4.0
 40
4.0
 10
249.3742702284551
 20
-193.1785616921568
 30
0.0
 10
249.3742702284551
 20
-202.2908392506426
 30
0.0
 10
241.9869519794338
 20
-209.6785020092123
 30
0.0
 10
232.8739854018509
 20
-209.6785020092123
 30
0.0
 10
223.7613633338166
 20
-209.6785020092123
 30
0.0
 10
216.3740450847954
 20
-202.2908392506426
 30
0.0
 10
216.3740450847954
 20
-193.1785616921568
 30
0.0
 10
216.3740450847954
 20
-184.0655951145739
 30
0.0
 10
223.7613633338166
 20
-176.6786213751012
 30
0.0
 10
232.8739854018509
 20
-176.6786213751012
 30
0.0
 10
241.9869519794338
 20
-176.6786213751012
 30
0.0
 10
249.3742702284551
 20
-184.0655951145739
 30
0.0
 10
249.3742702284551
 20
-193.1785616921568
 30
0.0
  0
SPLINE
  5
74
330
1F
100
AcDbEntity
  8
EBENE_3
100
AcDbSpline
210
0.0
220
0.0
230
1.0
 70
    11
 71
     3
 72
    17
 73
    13
 74
     0
 42
0.0000000001
 43
0.0000000001
 40
0.0
 40
0.0
 40
0.0
 40
0.0
 40
1.0
 40
1.0
 40
1.0
 40
2.0
 40
2.0
 40
2.0
 40
3.0
 40
3.0
 40
3.0
 40
4.0
 40
4.0
 40
4.0
 40
4.0
 10
234.1238660438996
 20
-193.1785616921568
 30
0.0
 10
234.1238660438996
 20
-193.8686143178523
 30
0.0
 10
233.564382537095
 20
-194.4280978246569
 30
0.0
 10
232.8739854018509
 20
-194.4280978246569
 30
0.0
 10
232.1835882666069
 20
-194.4280978246569
 30
0.0
 10
231.6241047598023
 20
-193.8686143178523
 30
0.0
 10
231.6241047598023
 20
-193.1785616921568
 30
0.0
 10
231.6241047598023
 20
-192.4878200473642
 30
0.0
 10
232.1835882666069
 20
-191.9283365405596
 30
0.0
 10
232.8739854018509
 20
-191.9283365405596
 30
0.0
 10
233.564382537095
 20
-191.9283365405596
 30
0.0
 10
234.1238660438996
 20
-192.4878200473642
 30
0.0
 10
234.1238660438996
 20
-193.1785616921568
 30
0.0
  0
SPLINE
  5
75
330
1F
100
AcDbEntity
  8
EBENE_3
100
AcDbSpline
210
0.0
220
0.0
230
1.0
 70
    11
 71
     3
 72
    17
 73
    13
 74
     0
 42
0.0000000001
 43
0.0000000001
 40
0.0
 40
0.0
 40
0.0
 40
0.0
 40
1.0
 40
1.0
 40
1.0
 40
2.0
 40
2.0
 40
2.0
 40
3.0
 40
3.0
 40
3.0
 40
4.0
 40
4.0
 40
4.0
 40
4.0
 10
390.4633326931828
 20
-193.5289279030067
 30
0.0
 10
390.4633326931828
 20
-202.6412054614925
 30
0.0
 10
383.0760144441616
 20
-210.0288682200622
 30
0.0
 10
373.9630478665787
 20
-210.0288682200622
 30
0.0
 10
364.8504257985443
 20
-210.0288682200622
 30
0.0
 10
357.4631075495231
 20
-202.6412054614925
 30
0.0
 10
357.4631075495231
 20
-193.5289279030067
 30
0.0
 10
357.4631075495231
 20
-184.4159613254238
 30
0.0
 10
364.8504257985443
 20
-177.0289875859511
 30
0.0
 10
373.9630478665787
 20
-177.0289875859511
 30
0.0
 10
383.0760144441616
 20
-177.0289875859511
 30
0.0
 10
390.4633326931828
 20
-184.4159613254238
 30
0.0
 10
390.4633326931828
 20
-193.5289279030067
 30
0.0
  0
SPLINE
  5
76
330
1F
100
AcDbEntity
  8
EBENE_3
100
AcDbSpline
210
0.0
220
0.0
230
1.0
 70
    11
 71
     3
 72
    17
 73
    13
 74
     0
 42
0.0000000001
 43
0.0000000001
 40
0.0
 40
0.0
 40
0.0
 40
0.0
 40
1.0
 40
1.0
 40
1.0
 40
2.0
 40
2.0
 40
2.0
 40
3.0
 40
3.0
 40
3.0
 40
4.0
 40
4.0
 40
4.0
 40
4.0
 10
375.2129285086273
 20
-193.5289279030067
 30
0.0
 10
375.2129285086273
 20
-194.2189805287022
 30
0.0
 10
374.6534450018228
 20
-194.7784640355068
 30
0.0
 10
373.9630478665787
 20
-194.7784640355068
 30
0.0
 10
373.2726507313346
 20
-194.7784640355068
 30
0.0
 10
372.7131672245301
 20
-194.2189805287022
 30
0.0
 10
372.7131672245301
 20
-193.5289279030067
 30
0.0
 10
372.7131672245301
 20
-192.8381862582141
 30
0.0
 10
373.2726507313346
 20
-192.2787027514095
 30
0.0
 10
373.9630478665787
 20
-192.2787027514095
 30
0.0
 10
374.6534450018228
 20
-192.2787027514095
 30
0.0
 10
375.2129285086273
 20
-192.8381862582141
 30
0.0
 10
375.2129285086273
 20
-193.5289279030067
 30
0.0
  0
POLYLINE
  5
77
330
1F
100
AcDbEntity
  8
EBENE_3
100
AcDb2dPolyline
 66
     1
 10
0.0
 20
0.0
 30
0.0
  0
VERTEX
  5
78
330
77
100
AcDbEntity
  8
EBENE_3
100
AcDbVertex
100
AcDb2dVertex
 10
335.2480983319866
 20
-220.2766492504864
 30
0.0
  0
VERTEX
  5
79
330
77
100
AcDbEntity
  8
EBENE_3
100
AcDbVertex
100
AcDb2dVertex
 10
335.2480983319866
 20
-239.2763508516393
 30
0.0
  0
VERTEX
  5
7A
330
77
100
AcDbEntity
  8
EBENE_3
100
AcDbVertex
100
AcDb2dVertex
 10
331.502590520423
 20
-239.2763508516393
 30
0.0
  0
VERTEX
  5
7B
330
77
100
AcDbEntity
  8
EBENE_3
100
AcDbVertex
100
AcDb2dVertex
 10
331.502590520423
 20
-220.2766492504864
 30
0.0
  0
VERTEX
  5
7C
330
77
100
AcDbEntity
  8
EBENE_3
100
AcDbVertex
100
AcDb2dVertex
 10
335.2480983319866
 20
-220.2766492504864
 30
0.0
  0
SEQEND
  5
7D
330
77
100
AcDbEntity
  8
EBENE_3
  0
POLYLINE
  5
7E
330
1F
100
AcDbEntity
  8
EBENE_3
100
AcDb2dPolyline
 66
     1
 10
0.0
 20
0.0
 30
0.0
  0
VERTEX
  5
7F
330
7E
100
AcDbEntity
  8
EBENE_3
100
AcDbVertex
100
AcDb2dVertex
 10
340.582828690896
 20
-239.1127088160899
 30
0.0
  0
VERTEX
  5
80
330
7E
100
AcDbEntity
  8
EBENE_3
100
AcDbVertex
100
AcDb2dVertex
 10
345.3449841801568
 20
-239.1127088160899
 30
0.0
  0
VERTEX
  5
81
330
7E
100
AcDbEntity
  8
EBENE_3
100
AcDbVertex
100
AcDb2dVertex
 10
345.3449841801568
 20
-237.2123941464261
 30
0.0
  0
VERTEX
  5
82
330
7E
100
AcDbEntity
  8
EBENE_3
100
AcDbVertex
100
AcDb2dVertex
 10
340.582828690896
 20
-237.2123941464261
 30
0.0
  0
VERTEX
  5
83
330
7E
100
AcDbEntity
  8
EBENE_3
100
AcDbVertex
100
AcDb2dVertex
 10
340.582828690896
 20
-239.1127088160899
 30
0.0
  0
SEQEND
  5
84
330
7E
100
AcDbEntity
  8
EBENE_3
  0
POLYLINE
  5
85
330
1F
100
AcDbEntity
  8
EBENE_3
100
AcDb2dPolyline
 66
     1
 10
0.0
 20
0.0
 30
0.0
  0
VERTEX
  5
86
330
85
100
AcDbEntity
  8
EBENE_3
100
AcDbVertex
100
AcDb2dVertex
 10
324.5844942764928
 20
-239.1127088160899
 30
0.0
  0
VERTEX
  5
87
330
85
100
AcDbEntity
  8
EBENE_3
100
AcDbVertex
100
AcDb2dVertex
 10
329.3466497657536
 20
-239.1127088160899
 30
0.0
  0
VERTEX
  5
88
330
85
100
AcDbEntity
  8
EBENE_3
100
AcDbVertex
100
AcDb2dVertex
 10
329.3466497657536
 20
-237.2123941464261
 30
0.0
  0
VERTEX
  5
89
330
85
100
AcDbEntity
  8
EBENE_3
100
AcDbVertex
100
AcDb2dVertex
 10
324.5844942764928
 20
-237.2123941464261
 30
0.0
  0
VERTEX
  5
8A
330
85
100
AcDbEntity
  8
EBENE_3
100
AcDbVertex
100
AcDb2dVertex
 10
324.5844942764928
 20
-239.1127088160899
 30
0.0
  0
SEQEND
  5
8B
330
85
100
AcDbEntity
  8
EBENE_3
  0
POLYLINE
  5
8C
330
1F
100
AcDbEntity
  8
EBENE_3
100
AcDb2dPolyline
 66
     1
 10
0.0
 20
0.0
 30
0.0
  0
VERTEX
  5
8D
330
8C
100
AcDbEntity
  8
EBENE_3
100
AcDbVertex
100
AcDb2dVertex
 10
340.582828690896
 20
-270.119601711984
 30
0.0
  0
VERTEX
  5
8E
330
8C
100
AcDbEntity
  8
EBENE_3
100
AcDbVertex
100
AcDb2dVertex
 10
345.3449841801568
 20
-270.119601711984
 30
0.0
  0
VERTEX
  5
8F
330
8C
100
AcDbEntity
  8
EBENE_3
100
AcDbVertex
100
AcDb2dVertex
 10
345.3449841801568
 20
-268.2192870423202
 30
0.0
  0
VERTEX
  5
90
330
8C
100
AcDbEntity
  8
EBENE_3
100
AcDbVertex
100
AcDb2dVertex
 10
340.582828690896
 20
-268.2192870423202
 30
0.0
  0
VERTEX
  5
91
330
8C
100
AcDbEntity
  8
EBENE_3
100
AcDbVertex
100
AcDb2dVertex
 10
340.582828690896
 20
-270.119601711984
 30
0.0
  0
SEQEND
  5
92
330
8C
100
AcDbEntity
  8
EBENE_3
  0
POLYLINE
  5
93
330
1F
100
AcDbEntity
  8
EBENE_3
100
AcDb2dPolyline
 66
     1
 10
0.0
 20
0.0
 30
0.0
  0
VERTEX
  5
94
330
93
100
AcDbEntity
  8
EBENE_3
100
AcDbVertex
100
AcDb2dVertex
 10
324.5844942764928
 20
-270.119601711984
 30
0.0
  0
VERTEX
  5
95
330
93
100
AcDbEntity
  8
EBENE_3
100
AcDbVertex
100
AcDb2dVertex
 10
329.3466497657536
 20
-270.119601711984
 30
0.0
  0
VERTEX
  5
96
330
93
100
AcDbEntity
  8
EBENE_3
100
AcDbVertex
100
AcDb2dVertex
 10
329.3466497657536
 20
-268.2192870423202
 30
0.0
  0
VERTEX
  5
97
330
93
100
AcDbEntity
  8
EBENE_3
100
AcDbVertex
100
AcDb2dVertex
 10
324.5844942764928
 20
-268.2192870423202
 30
0.0
  0
VERTEX
  5
98
330
93
100
AcDbEntity
  8
EBENE_3
100
AcDbVertex
100
AcDb2dVertex
 10
324.5844942764928
 20
-270.119601711984
 30
0.0
  0
SEQEND
  5
99
330
93
100
AcDbEntity
  8
EBENE_3
  0
ENDSEC
  0
SECTION
  2
OBJECTS
  0
DICTIONARY
  5
C
330
0
100
AcDbDictionary
  3
ACAD_GROUP
350
D
  3
ACAD_LAYOUT
350
1A
  3
ACAD_MLINESTYLE
350
17
  3
ACAD_PLOTSETTINGS
350
19
  3
ACAD_TABLESTYLE
350
BA
  3
ACAD_VISUALSTYLE
350
2A
  3
ACDBHEADERROUNDTRIPXREC
350
9A
  0
DICTIONARY
  5
D
102
{ACAD_REACTORS
330
C
102
}
330
C
100
AcDbDictionary
  0
DICTIONARY
  5
1A
102
{ACAD_REACTORS
330
C
102
}
330
C
100
AcDbDictionary
  0
DICTIONARY
  5
17
102
{ACAD_REACTORS
330
C
102
}
330
C
100
AcDbDictionary
  3
STANDARD
350
18
  0
DICTIONARY
  5
19
102
{ACAD_REACTORS
330
C
102
}
330
C
100
AcDbDictionary
  0
DICTIONARY
  5
BA
102
{ACAD_REACTORS
330
C
102
}
330
C
100
AcDbDictionary
  0
DICTIONARY
  5
2A
102
{ACAD_REACTORS
330
C
102
}
330
C
100
AcDbDictionary
  3
2DWIREFRAME
350
2F
  3
3DWIREFRAME
350
30
  3
3D_HIDDEN
350
31
  3
BASIC
350
32
  3
BRIGHTEN
350
36
  3
COLORCHANGE
350
3A
  3
CONCEPTUAL
350
34
  3
DIM
350
35
  3
FACEPATTERN
350
39
  3
FLAT
350
2B
  3
FLATWITHEDGES
350
2C
  3
GOURAUD
350
2D
  3
GOURAUDWITHEDGES
350
2E
  3
LINEPATTERN
350
38
  3
REALISTIC
350
33
  3
THICKEN
350
37
  0
DICTIONARY
  5
9A
102
{ACAD_REACTORS
330
C
102
}
330
C
100
AcDbDictionary
  3
CEPSNTYPE
350
A3
  3
DIMSTYLEDATA
350
B9
  3
FINGERPRINTGUID
350
A4
  3
HYPERLINKBASE
350
9D
  3
INSUNITS
350
A2
  3
LAYOUTDICT
350
9F
  3
LWETCUNION
350
A1
  3
PLOTSETDICT
350
A0
  3
PSVPSCALE
350
A6
  3
PUCSBASE
350
A9
  3
PUCSORGBACK
350
AF
  3
PUCSORGBOTTOM
350
AB
  3
PUCSORGFRONT
350
AE
  3
PUCSORGLEFT
350
AC
  3
PUCSORGRIGHT
350
AD
  3
PUCSORGTOP
350
AA
  3
PUCSORTHOREF
350
A7
  3
PUCSORTHOVIEW
350
A8
  3
STYLESHEET
350
9E
  3
TSTACKALIGN
350
9B
  3
TSTACKSIZE
350
9C
  3
UCSBASE
350
B2
  3
UCSORGBACK
350
B8
  3
UCSORGBOTTOM
350
B4
  3
UCSORGFRONT
350
B7
  3
UCSORGLEFT
350
B5
  3
UCSORGRIGHT
350
B6
  3
UCSORGTOP
350
B3
  3
UCSORTHOREF
350
B0
  3
UCSORTHOVIEW
350
B1
  3
VERSIONGUID
350
A5
  0
MLINESTYLE
  5
18
102
{ACAD_REACTORS
330
17
102
}
330
17
100
AcDbMlineStyle
  2
Standard
 70
     0
  3

 62
   256
 51
90.0
 52
90.0
 71
     2
 49
0.5
 62
   256
  6
BYLAYER
 49
-0.5
 62
   256
  6
BYLAYER
  0
VISUALSTYLE
  5
2F
102
{ACAD_REACTORS
330
2A
102
}
330
2A
100
AcDbVisualStyle
  2
2dWireframe
 70
     4
 71
     0
 72
     2
 73
     0
 90
        0
 40
-0.6
 41
-30.0
 62
     5
 63
     7
 74
     1
 91
        4
 64
     7
 65
   257
 75
     1
175
     1
 42
1.0
 92
        0
 66
   257
 43
1.0
 76
     1
 77
     6
 78
     2
 67
     7
 79
     5
170
     0
171
     0
290
     0
174
     0
 93
        1
 44
0.0
173
     0
291
     0
 45
0.0
1001
ACAD
1000
AcDbSavedByObjectVersion
1070
     0
  0
VISUALSTYLE
  5
30
102
{ACAD_REACTORS
330
2A
102
}
330
2A
100
AcDbVisualStyle
  2
3dWireframe
 70
     5
 71
     0
 72
     2
 73
     0
 90
        0
 40
-0.6
 41
-30.0
 62
     5
 63
     7
 74
     1
 91
        4
 64
     7
 65
   257
 75
     1
175
     1
 42
1.0
 92
        0
 66
   257
 43
1.0
 76
     1
 77
     6
 78
     2
 67
     7
 79
     5
170
     0
171
     0
290
     0
174
     0
 93
        1
 44
0.0
173
     0
291
     0
 45
0.0
1001
ACAD
1000
AcDbSavedByObjectVersion
1070
     0
  0
VISUALSTYLE
  5
31
102
{ACAD_REACTORS
330
2A
102
}
330
2A
100
AcDbVisualStyle
  2
3D Hidden
 70
     6
 71
     1
 72
     2
 73
     2
 90
        0
 40
-0.6
 41
-30.0
 62
     5
 63
     7
 74
     2
 91
        2
 64
     7
 65
   257
 75
     2
175
     1
 42
40.0
 92
        0
 66
   257
 43
1.0
 76
     1
 77
     6
 78
     2
 67
     7
 79
     3
170
     0
171
     0
290
     0
174
     0
 93
        1
 44
0.0
173
     0
291
     0
 45
0.0
1001
ACAD
1000
AcDbSavedByObjectVersion
1070
     0
  0
VISUALSTYLE
  5
32
102
{ACAD_REACTORS
330
2A
102
}
330
2A
100
AcDbVisualStyle
  2
Basic
 70
     7
 71
     1
 72
     0
 73
     1
 90
        0
 40
-0.6
 41
-30.0
 62
     5
 63
     7
 74
     0
 91
        4
 64
     7
 65
   257
 75
     1
175
     1
 42
1.0
 92
        8
 66
     7
 43
1.0
 76
     1
 77
     6
 78
     2
 67
     7
 79
     5
170
     0
171
     0
290
     0
174
     0
 93
        1
 44
0.0
173
     0
291
     1
 45
0.0
1001
ACAD
1000
AcDbSavedByObjectVersion
1070
     0
  0
VISUALSTYLE
  5
36
102
{ACAD_REACTORS
330
2A
102
}
330
2A
100
AcDbVisualStyle
  2
Brighten
 70
    12
 71
     2
 72
     2
 73
     0
 90
        0
 40
-0.6
 41
-30.0
 62
     5
 63
     7
 74
     1
 91
        4
 64
     7
 65
   257
 75
     1
175
     1
 42
1.0
 92
        8
 66
     7
 43
1.0
 76
     1
 77
     6
 78
     2
 67
     7
 79
     5
170
     0
171
     0
290
     0
174
     0
 93
        1
 44
50.0
173
     0
291
     1
 45
0.0
1001
ACAD
1000
AcDbSavedByObjectVersion
1070
     0
  0
VISUALSTYLE
  5
3A
102
{ACAD_REACTORS
330
2A
102
}
330
2A
100
AcDbVisualStyle
  2
ColorChange
 70
    16
 71
     2
 72
     2
 73
     3
 90
        0
 40
-0.6
 41
-30.0
 62
     5
 63
     8
 74
     1
 91
        4
 64
     7
 65
   257
 75
     1
175
     1
 42
1.0
 92
        8
 66
     8
 43
1.0
 76
     1
 77
     6
 78
     2
 67
     7
 79
     5
170
     0
171
     0
290
     0
174
     0
 93
        1
 44
0.0
173
     0
291
     1
 45
0.0
1001
ACAD
1000
AcDbSavedByObjectVersion
1070
     0
  0
VISUALSTYLE
  5
34
102
{ACAD_REACTORS
330
2A
102
}
330
2A
100
AcDbVisualStyle
  2
Conceptual
 70
     9
 71
     3
 72
     2
 73
     0
 90
        0
 40
-0.6
 41
-30.0
 62
     5
 63
     7
 74
     2
 91
        2
 64
     7
 65
   257
 75
     1
175
     1
 42
40.0
 92
        8
 66
     7
 43
1.0
 76
     1
 77
     6
 78
     2
 67
     7
 79
     3
170
     0
171
     0
290
     0
174
     0
 93
        1
 44
0.0
173
     0
291
     0
 45
0.0
1001
ACAD
1000
AcDbSavedByObjectVersion
1070
     0
  0
VISUALSTYLE
  5
35
102
{ACAD_REACTORS
330
2A
102
}
330
2A
100
AcDbVisualStyle
  2
Dim
 70
    11
 71
     2
 72
     2
 73
     0
 90
        0
 40
-0.6
 41
-30.0
 62
     5
 63
     7
 74
     1
 91
        4
 64
     7
 65
   257
 75
     1
175
     1
 42
1.0
 92
        8
 66
     7
 43
1.0
 76
     1
 77
     6
 78
     2
 67
     7
 79
     5
170
     0
171
     0
290
     0
174
     0
 93
        1
 44
-50.0
173
     0
291
     1
 45
0.0
1001
ACAD
1000
AcDbSavedByObjectVersion
1070
     0
  0
VISUALSTYLE
  5
39
102
{ACAD_REACTORS
330
2A
102
}
330
2A
100
AcDbVisualStyle
  2
Facepattern
 70
    15
 71
     2
 72
     2
 73
     0
 90
        0
 40
-0.6
 41
-30.0
 62
     5
 63
     7
 74
     1
 91
        4
 64
     7
 65
   257
 75
     1
175
     1
 42
1.0
 92
        8
 66
     7
 43
1.0
 76
     1
 77
     6
 78
     2
 67
     7
 79
     5
170
     0
171
     0
290
     0
174
     0
 93
        1
 44
0.0
173
     0
291
     1
 45
0.0
1001
ACAD
1000
AcDbSavedByObjectVersion
1070
     0
  0
VISUALSTYLE
  5
2B
102
{ACAD_REACTORS
330
2A
102
}
330
2A
100
AcDbVisualStyle
  2
Flat
 70
     0
 71
     2
 72
     1
 73
     1
 90
        2
 40
-0.6
 41
30.0
 62
     5
 63
     7
 74
     0
 91
        4
 64
     7
 65
   257
 75
     1
175
     1
 42
1.0
 92
        8
 66
     7
 43
1.0
 76
     1
 77
     6
 78
     2
 67
     7
 79
     5
170
     0
171
     0
290
     0
174
     0
 93
       13
 44
0.0
173
     0
291
     1
 45
0.0
1001
ACAD
1000
AcDbSavedByObjectVersion
1070
     0
  0
VISUALSTYLE
  5
2C
102
{ACAD_REACTORS
330
2A
102
}
330
2A
100
AcDbVisualStyle
  2
FlatWithEdges
 70
     1
 71
     2
 72
     1
 73
     1
 90
        2
 40
-0.6
 41
30.0
 62
     5
 63
     7
 74
     1
 91
        4
 64
     7
 65
   257
 75
     1
175
     1
 42
1.0
 92
        0
 66
   257
 43
1.0
 76
     1
 77
     6
 78
     2
 67
     7
 79
     5
170
     0
171
     0
290
     0
174
     0
 93
       13
 44
0.0
173
     0
291
     1
 45
0.0
1001
ACAD
1000
AcDbSavedByObjectVersion
1070
     0
  0
VISUALSTYLE
  5
2D
102
{ACAD_REACTORS
330
2A
102
}
330
2A
100
AcDbVisualStyle
  2
Gouraud
 70
     2
 71
     2
 72
     2
 73
     1
 90
        2
 40
-0.6
 41
30.0
 62
     5
 63
     7
 74
     0
 91
        4
 64
     7
 65
   257
 75
     1
175
     1
 42
1.0
 92
        0
 66
     7
 43
1.0
 76
     1
 77
     6
 78
     2
 67
     7
 79
     5
170
     0
171
     0
290
     0
174
     0
 93
       13
 44
0.0
173
     0
291
     1
 45
0.0
1001
ACAD
1000
AcDbSavedByObjectVersion
1070
     0
  0
VISUALSTYLE
  5
2E
102
{ACAD_REACTORS
330
2A
102
}
330
2A
100
AcDbVisualStyle
  2
GouraudWithEdges
 70
     3
 71
     2
 72
     2
 73
     1
 90
        2
 40
-0.6
 41
30.0
 62
     5
 63
     7
 74
     1
 91
        4
 64
     7
 65
   257
 75
     1
175
     1
 42
1.0
 92
        0
 66
   257
 43
1.0
 76
     1
 77
     6
 78
     2
 67
     7
 79
     5
170
     0
171
     0
290
     0
174
     0
 93
       13
 44
0.0
173
     0
291
     1
 45
0.0
1001
ACAD
1000
AcDbSavedByObjectVersion
1070
     0
  0
VISUALSTYLE
  5
38
102
{ACAD_REACTORS
330
2A
102
}
330
2A
100
AcDbVisualStyle
  2
Linepattern
 70
    14
 71
     2
 72
     2
 73
     0
 90
        0
 40
-0.6
 41
-30.0
 62
     5
 63
     7
 74
     1
 91
        4
 64
     7
 65
   257
 75
     7
175
     7
 42
1.0
 92
        8
 66
     7
 43
1.0
 76
     1
 77
     6
 78
     2
 67
     7
 79
     5
170
     0
171
     0
290
     0
174
     0
 93
        1
 44
0.0
173
     0
291
     1
 45
0.0
1001
ACAD
1000
AcDbSavedByObjectVersion
1070
     0
  0
VISUALSTYLE
  5
33
102
{ACAD_REACTORS
330
2A
102
}
330
2A
100
AcDbVisualStyle
  2
Realistic
 70
     8
 71
     2
 72
     2
 73
     0
 90
        0
 40
-0.6
 41
-30.0
 62
     5
 63
     7
 74
     1
 91
        0
 64
     7
 65
   257
 75
     1
175
     1
 42
1.0
 92
        8
 66
     8
 43
1.0
 76
     1
 77
     6
 78
     2
 67
     7
 79
     5
170
     0
171
     0
290
     0
174
     0
 93
       13
 44
0.0
173
     0
291
     0
 45
0.0
1001
ACAD
1000
AcDbSavedByObjectVersion
1070
     0
  0
VISUALSTYLE
  5
37
102
{ACAD_REACTORS
330
2A
102
}
330
2A
100
AcDbVisualStyle
  2
Thicken
 70
    13
 71
     2
 72
     2
 73
     0
 90
        0
 40
-0.6
 41
-30.0
 62
     5
 63
     7
 74
     1
 91
        4
 64
     7
 65
   257
 75
     1
175
     1
 42
1.0
 92
       12
 66
     7
 43
1.0
 76
     1
 77
     6
 78
     2
 67
     7
 79
     5
170
     0
171
     0
290
     0
174
     0
 93
        1
 44
0.0
173
     0
291
     1
 45
0.0
1001
ACAD
1000
AcDbSavedByObjectVersion
1070
     0
  0
XRECORD
  5
A3
102
{ACAD_REACTORS
330
9A
102
}
330
9A
100
AcDbXrecord
 90
        0
  0
XRECORD
  5
B9
102
{ACAD_REACTORS
330
9A
102
}
330
9A
100
AcDbXrecord
1000
DSTYLE
1002
{
1070
   340
340
11
1002
}
  0
XRECORD
  5
A4
102
{ACAD_REACTORS
330
9A
102
}
330
9A
100
AcDbXrecord
  1
{97D8EF5F-46B4-C4A0-0FB3-251329BC8AC6}
  0
XRECORD
  5
9D
102
{ACAD_REACTORS
330
9A
102
}
330
9A
100
AcDbXrecord
  1

  0
XRECORD
  5
A2
102
{ACAD_REACTORS
330
9A
102
}
330
9A
100
AcDbXrecord
 90
        1
  0
XRECORD
  5
9F
102
{ACAD_REACTORS
330
9A
102
}
330
9A
100
AcDbXrecord
340
1A
  0
XRECORD
  5
A1
102
{ACAD_REACTORS
330
9A
102
}
330
9A
100
AcDbXrecord
 90
    10269
  0
XRECORD
  5
A0
102
{ACAD_REACTORS
330
9A
102
}
330
9A
100
AcDbXrecord
340
19
  0
XRECORD
  5
A6
102
{ACAD_REACTORS
330
9A
102
}
330
9A
100
AcDbXrecord
 40
0.0
  0
XRECORD
  5
A9
102
{ACAD_REACTORS
330
9A
102
}
330
9A
100
AcDbXrecord
340
0
  0
XRECORD
  5
AF
102
{ACAD_REACTORS
330
9A
102
}
330
9A
100
AcDbXrecord
 10
0.0
 20
0.0
 30
0.0
  0
XRECORD
  5
AB
102
{ACAD_REACTORS
330
9A
102
}
330
9A
100
AcDbXrecord
 10
0.0
 20
0.0
 30
0.0
  0
XRECORD
  5
AE
102
{ACAD_REACTORS
330
9A
102
}
330
9A
100
AcDbXrecord
 10
0.0
 20
0.0
 30
0.0
  0
XRECORD
  5
AC
102
{ACAD_REACTORS
330
9A
102
}
330
9A
100
AcDbXrecord
 10
0.0
 20
0.0
 30
0.0
  0
XRECORD
  5
AD
102
{ACAD_REACTORS
330
9A
102
}
330
9A
100
AcDbXrecord
 10
0.0
 20
0.0
 30
0.0
  0
XRECORD
  5
AA
102
{ACAD_REACTORS
330
9A
102
}
330
9A
100
AcDbXrecord
 10
0.0
 20
0.0
 30
0.0
  0
XRECORD
  5
A7
102
{ACAD_REACTORS
330
9A
102
}
330
9A
100
AcDbXrecord
340
0
  0
XRECORD
  5
A8
102
{ACAD_REACTORS
330
9A
102
}
330
9A
100
AcDbXrecord
 70
     0
  0
XRECORD
  5
9E
102
{ACAD_REACTORS
330
9A
102
}
330
9A
100
AcDbXrecord
  1

  0
XRECORD
  5
9B
102
{ACAD_REACTORS
330
9A
102
}
330
9A
100
AcDbXrecord
 90
        1
  0
XRECORD
  5
9C
102
{ACAD_REACTORS
330
9A
102
}
330
9A
100
AcDbXrecord
 90
       70
  0
XRECORD
  5
B2
102
{ACAD_REACTORS
330
9A
102
}
330
9A
100
AcDbXrecord
340
0
  0
XRECORD
  5
B8
102
{ACAD_REACTORS
330
9A
102
}
330
9A
100
AcDbXrecord
 10
0.0
 20
0.0
 30
0.0
  0
XRECORD
  5
B4
102
{ACAD_REACTORS
330
9A
102
}
330
9A
100
AcDbXrecord
 10
0.0
 20
0.0
 30
0.0
  0
XRECORD
  5
B7
102
{ACAD_REACTORS
330
9A
102
}
330
9A
100
AcDbXrecord
 10
0.0
 20
0.0
 30
0.0
  0
XRECORD
  5
B5
102
{ACAD_REACTORS
330
9A
102
}
330
9A
100
AcDbXrecord
 10
0.0
 20
0.0
 30
0.0
  0
XRECORD
  5
B6
102
{ACAD_REACTORS
330
9A
102
}
330
9A
100
AcDbXrecord
 10
0.0
 20
0.0
 30
0.0
  0
XRECORD
  5
B3
102
{ACAD_REACTORS
330
9A
102
}
330
9A
100
AcDbXrecord
 10
0.0
 20
0.0
 30
0.0
  0
XRECORD
  5
B0
102
{ACAD_REACTORS
330
9A
102
}
330
9A
100
AcDbXrecord
340
0
  0
XRECORD
  5
B1
102
{ACAD_REACTORS
330
9A
102
}
330
9A
100
AcDbXrecord
 70
     0
  0
XRECORD
  5
A5
102
{ACAD_REACTORS
330
9A
102
}
330
9A
100
AcDbXrecord
  1
{FAEB1C32-E019-11D5-929B-00C0DF256EC4}
  0
ENDSEC
  0
EOF
